# https://github.com/mikedh/trimesh

o m1_link-mesh
v -0.00010941 -0.00098937 0.00022120
v -0.00010941 -0.00098937 0.00000000
v -0.00058944 -0.00080211 0.00022120
v -0.00058944 -0.00080211 0.00000000
v -0.00091152 -0.00039993 0.00022120
v -0.00091152 -0.00039993 0.00000000
v -0.00098937 0.00010941 0.00022120
v -0.00098937 0.00010941 0.00000000
v -0.00080211 0.00058944 0.00022120
v -0.00080211 0.00058944 0.00000000
v -0.00039993 0.00091152 0.00022120
v -0.00039993 0.00091152 0.00000000
v 0.00010941 0.00098937 0.00022120
v 0.00010941 0.00098937 0.00000000
v 0.00058944 0.00080211 0.00022120
v 0.00058944 0.00080211 0.00000000
v 0.00091152 0.00039993 0.00022120
v 0.00091152 0.00039993 0.00000000
v 0.00098937 -0.00010941 0.00022120
v 0.00098937 -0.00010941 0.00000000
v 0.00080211 -0.00058944 0.00022120
v 0.00080211 -0.00058944 0.00000000
v 0.00039993 -0.00091152 0.00022120
v 0.00039993 -0.00091152 0.00000000
v 0.00174081 -0.01977676 0.00029434
v 0.00175244 -0.01977801 0.00028341
v 0.00181752 -0.01978522 0.00025900
v 0.00257140 -0.01986861 0.00037845
v 0.00255406 -0.01986670 0.00037870
v 0.00253087 -0.01986414 0.00036311
v 0.00250536 -0.01986128 0.00037491
v 0.00246459 -0.01985681 0.00034046
v 0.00243032 -0.01985299 0.00036946
v 0.00236022 -0.01984524 0.00030978
v 0.00234437 -0.01984351 0.00036382
v 0.00215143 -0.01982218 0.00026333
v 0.00215322 -0.01982235 0.00035392
v 0.00204211 -0.01981008 0.00024863
v 0.00189817 -0.01979416 0.00024695
v 0.00186616 -0.01979058 0.00034088
v 0.00181931 -0.01978540 0.00033667
v 0.00256884 -0.01986831 0.00037589
v 0.00173759 -0.01977640 0.00030676
v 0.00173741 -0.01977640 0.00030150
v 0.00174153 -0.01977682 0.00031350
v 0.00175369 -0.01977819 0.00032210
v 0.00178581 -0.00864518 0.00050802
v 0.00128770 -0.00859010 0.00027334
v 0.00101018 -0.00624102 0.00033738
v -0.00061331 -0.00376910 -0.00031173
v 0.00004105 -0.00384146 -0.00001536
v 0.00017526 -0.00614870 -0.00010418
v -0.00067763 -0.00376195 -0.00006366
v -0.00076590 -0.00604463 -0.00022662
v 0.00011137 -0.00614160 0.00012623
v 0.00109899 -0.00339293 0.00070276
v 0.00092544 -0.00281048 0.00062822
v 0.00091118 -0.00280893 0.00062377
v 0.00110877 -0.00339401 0.00070020
v 0.00128013 -0.00397849 0.00076342
v 0.00127500 -0.00397789 0.00075810
v 0.00266665 -0.01887035 0.00041290
v 0.00273615 -0.01786482 0.00044749
v 0.00269932 -0.01786077 0.00044532
v 0.00270963 -0.01837539 0.00042822
v 0.00266874 -0.01887059 0.00040977
v 0.00266612 -0.01887029 0.00040803
v 0.00201368 -0.01668846 0.00038042
v 0.00210518 -0.01779508 0.00037724
v 0.00243688 -0.01783174 0.00041452
v 0.00205517 -0.01100051 0.00045808
v 0.00258881 -0.01105952 0.00067616
v 0.00276661 -0.01338571 0.00059731
v 0.00225163 -0.01332873 0.00041497
v 0.00173151 -0.01327121 0.00024574
v 0.00151604 -0.01094090 0.00025304
v 0.00069761 -0.01315689 -0.00005012
v 0.00044269 -0.01082223 -0.00011347
v 0.00136375 -0.01872628 0.00011011
v -0.00141078 -0.01292371 -0.00029565
v -0.00139761 -0.01292520 -0.00030625
v -0.00113076 -0.01409786 -0.00020197
v 0.00079443 -0.00189412 0.00052583
v 0.00079280 -0.00189477 0.00052704
v 0.00079468 -0.00193894 0.00053097
v -0.00022575 -0.00204152 0.00025094
v -0.00031522 -0.00202966 0.00022411
v -0.00016470 -0.00212091 0.00025891
v -0.00071120 -0.00162345 -0.00012640
v -0.00064958 -0.00168526 -0.00012640
v -0.00062209 -0.00263935 -0.00021469
v -0.00032949 -0.00202739 -0.00007007
v 0.00000577 -0.00205398 0.00006515
v -0.00013324 -0.00212437 0.00000482
v -0.00008623 -0.00269860 0.00000714
v -0.00051763 -0.00198769 -0.00012640
v -0.00084596 -0.00158226 -0.00012640
v -0.00077483 -0.00159097 -0.00012640
v -0.00105482 -0.00169939 -0.00012640
v -0.00098481 -0.00163275 -0.00012640
v -0.00090728 -0.00260782 -0.00027782
v -0.00091327 -0.00159580 -0.00012640
v -0.00112414 -0.00171900 -0.00008470
v -0.00112152 -0.00172073 -0.00009159
v -0.00114161 -0.00201285 -0.00015195
v -0.00111812 -0.00172293 -0.00009743
v -0.00113040 -0.00201410 -0.00016432
v 0.00035128 -0.00217795 0.00041500
v 0.00034118 -0.00202542 0.00041824
v -0.00000913 -0.00205398 0.00031567
v 0.00062374 -0.00195700 0.00049301
v 0.00060429 -0.00220591 0.00049436
v 0.00066502 -0.00194335 0.00050221
v 0.00072602 -0.00221938 0.00053344
v 0.00074371 -0.00191462 0.00052092
v 0.00080158 -0.00222772 0.00055746
v 0.00078308 -0.00189883 0.00052781
v 0.00079150 -0.00193858 0.00053153
v 0.00079041 -0.00189578 0.00052766
v 0.00079630 -0.00193912 0.00052966
v 0.00079621 -0.00193912 0.00052753
v 0.00079460 -0.00189406 0.00052346
v 0.00079333 -0.00189459 0.00052104
v -0.00109857 -0.01410144 -0.00022015
v -0.00136059 -0.01292926 -0.00032290
v -0.00103474 -0.01410847 -0.00023683
v -0.00129348 -0.01293671 -0.00033566
v -0.00090883 -0.01412242 -0.00024961
v -0.00115877 -0.01295161 -0.00034397
v -0.00065575 -0.01415038 -0.00025076
v -0.00088995 -0.01298129 -0.00033608
v -0.00035520 -0.01304048 -0.00027516
v -0.00053176 -0.01187127 -0.00034338
v -0.00077807 -0.01526558 -0.00007254
v -0.00078038 -0.01526534 -0.00007809
v -0.00056764 -0.01584690 -0.00003290
v -0.00078082 -0.01526528 -0.00008363
v -0.00056709 -0.01584696 -0.00003822
v -0.00077941 -0.01526546 -0.00008913
v -0.00033896 -0.01642829 0.00000170
v 0.00053572 -0.01813495 0.00016716
v 0.00016901 -0.01758092 0.00011213
v 0.00017217 -0.01758128 0.00010323
v 0.00095136 -0.01868063 0.00020649
v 0.00096137 -0.01868176 0.00019499
v 0.00098488 -0.01868438 0.00017771
v 0.00145698 -0.01772338 0.00008630
v 0.00180423 -0.01877498 0.00015696
v -0.00033043 -0.01642924 -0.00000791
v -0.00077197 -0.01526623 -0.00009981
v -0.00030643 -0.01643186 -0.00002454
v -0.00074517 -0.01526921 -0.00011851
v -0.00025807 -0.01643723 -0.00004305
v -0.00068736 -0.01527559 -0.00013834
v -0.00015981 -0.01644808 -0.00006281
v -0.00057397 -0.01528817 -0.00015528
v 0.00003989 -0.01647019 -0.00007964
v -0.00034426 -0.01531356 -0.00016506
v 0.00011493 -0.01536434 -0.00013948
v -0.00015121 -0.01420623 -0.00020776
v 0.00102186 -0.01546466 0.00001425
v 0.00044066 -0.01651448 -0.00006979
v 0.00047481 -0.01761478 0.00000976
v 0.00031210 -0.01759678 0.00003502
v 0.00023347 -0.01758807 0.00005852
v 0.00019537 -0.01758384 0.00007898
v 0.00017812 -0.01758193 0.00009459
v 0.00223464 -0.01882255 0.00026158
v 0.00209707 -0.01779413 0.00023887
v 0.00201195 -0.01668828 0.00023938
v 0.00103539 -0.01868993 0.00015565
v 0.00114298 -0.01870185 0.00012866
v 0.00080396 -0.01765114 0.00000211
v 0.00123346 -0.01660215 0.00005027
v 0.00191313 -0.01556318 0.00023842
v 0.00236148 -0.01561278 0.00037086
v 0.00241798 -0.01782965 0.00033407
v 0.00280505 -0.01453310 0.00055718
v 0.00281197 -0.01510035 0.00053712
v 0.00150490 -0.01093965 0.00040275
v 0.00172579 -0.01327061 0.00039377
v 0.00206262 -0.01100134 0.00054613
v 0.00226122 -0.01332980 0.00050108
v 0.00232375 -0.01103025 0.00061399
v 0.00251186 -0.01335752 0.00055203
v 0.00250089 -0.01104980 0.00066044
v 0.00268185 -0.01337629 0.00058701
v 0.00257027 -0.01105749 0.00067663
v 0.00274861 -0.01338368 0.00059879
v 0.00258762 -0.01105940 0.00067903
v 0.00276542 -0.01338553 0.00060015
v 0.00259042 -0.01105970 0.00067831
v 0.00276810 -0.01338583 0.00059930
v 0.00269574 -0.01222819 0.00063863
v 0.00279027 -0.01396131 0.00057743
v 0.00280076 -0.01424795 0.00057018
v 0.00279218 -0.01396149 0.00057948
v 0.00279641 -0.01410484 0.00057515
v 0.00280702 -0.01453334 0.00055843
v 0.00281435 -0.01510065 0.00053845
v 0.00279391 -0.01453191 0.00056061
v 0.00278997 -0.01396125 0.00058048
v 0.00278115 -0.01367408 0.00058942
v 0.00192982 -0.01556503 0.00038623
v 0.00239044 -0.01561599 0.00045821
v 0.00260830 -0.01564007 0.00049299
v 0.00275522 -0.01565635 0.00051661
v 0.00280666 -0.01566201 0.00052258
v -0.00111657 -0.01180660 -0.00019316
v -0.00124973 -0.01063507 -0.00027751
v -0.00138724 -0.01177668 -0.00026390
v -0.00152206 -0.01060491 -0.00035706
v -0.00152081 -0.01176190 -0.00030884
v -0.00165617 -0.01059007 -0.00040637
v -0.00158363 -0.01175498 -0.00033715
v -0.00171906 -0.01058316 -0.00043667
v -0.00161779 -0.01175117 -0.00035974
v -0.00175327 -0.01057934 -0.00046040
v -0.00162995 -0.01174986 -0.00037255
v -0.00176543 -0.01057803 -0.00047367
v -0.00163323 -0.01174950 -0.00037895
v -0.00176871 -0.01057767 -0.00048022
v -0.00163412 -0.01174938 -0.00038521
v -0.00176954 -0.01057755 -0.00048656
v -0.00163239 -0.01174956 -0.00039123
v -0.00176769 -0.01057779 -0.00049259
v -0.00162834 -0.01175004 -0.00039698
v -0.00176340 -0.01057827 -0.00049826
v -0.00161463 -0.01175153 -0.00040750
v -0.00174922 -0.01057982 -0.00050845
v -0.00157559 -0.01175588 -0.00042354
v -0.00170910 -0.01058423 -0.00052340
v -0.00150531 -0.01176363 -0.00043445
v -0.00163752 -0.01059216 -0.00053207
v -0.00136501 -0.01177912 -0.00043854
v -0.00149518 -0.01060789 -0.00053169
v -0.00108588 -0.01181000 -0.00042195
v -0.00121272 -0.01063913 -0.00050611
v -0.00065344 -0.01070100 -0.00040959
v -0.00114071 -0.01409679 -0.00019110
v -0.00128847 -0.01351022 -0.00023947
v -0.00141483 -0.01292330 -0.00028994
v -0.00128990 -0.01351004 -0.00023360
v -0.00141674 -0.01292306 -0.00028402
v -0.00128901 -0.01351016 -0.00022760
v -0.00141621 -0.01292312 -0.00027793
v -0.00141329 -0.01292341 -0.00027175
v -0.00077423 -0.01526600 -0.00006707
v -0.00076312 -0.01526725 -0.00005658
v -0.00112599 -0.01409840 -0.00015642
v -0.00109494 -0.01410186 -0.00013711
v -0.00136936 -0.01292830 -0.00023790
v -0.00130826 -0.01293504 -0.00021140
v -0.00140202 -0.01292467 -0.00025946
v -0.00113785 -0.01409709 -0.00016781
v -0.00114161 -0.01409667 -0.00017368
v -0.00114346 -0.01409649 -0.00017957
v -0.00114316 -0.01409649 -0.00018539
v 0.00281638 -0.01566308 0.00052179
v 0.00279444 -0.01677483 0.00048288
v 0.00281203 -0.01566261 0.00051775
v 0.00277114 -0.01732766 0.00046497
v 0.00273985 -0.01786524 0.00044251
v 0.00281316 -0.01566272 0.00052257
v 0.00274074 -0.01786535 0.00044703
v 0.00274301 -0.01786559 0.00044607
v 0.00279164 -0.01677447 0.00048449
v 0.00280702 -0.01453334 0.00056077
v 0.00280219 -0.01453280 0.00056112
v 0.00281596 -0.01510083 0.00054114
v 0.00102073 -0.01546448 0.00025333
v 0.00121886 -0.01660054 0.00028133
v 0.00266904 -0.01887059 0.00041221
v 0.00269061 -0.01862353 0.00041963
v -0.00033643 -0.01642858 0.00003192
v -0.00034247 -0.01642787 0.00002194
v 0.00016941 -0.01758098 0.00012110
v -0.00117910 -0.01294934 -0.00017080
v -0.00103730 -0.01410824 -0.00011351
v -0.00073513 -0.01527035 -0.00003912
v -0.00055524 -0.01584827 -0.00001206
v -0.00056397 -0.01584732 -0.00002229
v -0.00056655 -0.01584702 -0.00002757
v -0.00034364 -0.01642775 0.00001685
v -0.00034340 -0.01642781 0.00001175
v -0.00034177 -0.01642799 0.00000669
v -0.00031529 -0.01643091 0.00004964
v 0.00017337 -0.01758140 0.00012989
v 0.00053828 -0.01813524 0.00018276
v 0.00053569 -0.01813495 0.00017502
v 0.00094606 -0.01868009 0.00023188
v 0.00094483 -0.01867991 0.00022547
v 0.00097600 -0.01868337 0.00026145
v 0.00102812 -0.01868915 0.00027978
v 0.00057939 -0.01813977 0.00021646
v 0.00030430 -0.01759588 0.00018981
v 0.00022552 -0.01758718 0.00016611
v -0.00017280 -0.01644665 0.00009912
v 0.00095320 -0.01868087 0.00024401
v 0.00054932 -0.01813644 0.00019708
v 0.00018851 -0.01758307 0.00014581
v -0.00026925 -0.01643598 0.00007134
v -0.00057126 -0.01528847 0.00001311
v -0.00066749 -0.01414912 -0.00002480
v -0.00034561 -0.01531338 0.00005722
v 0.00002442 -0.01646846 0.00013550
v 0.00046666 -0.01761382 0.00021779
v 0.00113743 -0.01870125 0.00029846
v -0.00038877 -0.01303672 -0.00000625
v -0.00016808 -0.01420432 0.00006014
v 0.00010949 -0.01536375 0.00012486
v 0.00042224 -0.01651245 0.00018667
v 0.00079434 -0.01765006 0.00025196
v 0.00135845 -0.01872569 0.00031624
v -0.00091732 -0.01297831 -0.00010884
v -0.00091503 -0.01412171 -0.00007772
v -0.00068268 -0.01527613 -0.00001807
v 0.00094548 -0.01868003 0.00021904
v 0.00145048 -0.01772266 0.00031238
v 0.00180113 -0.01877462 0.00034436
v 0.00259382 -0.01784908 0.00043288
v 0.00081885 -0.00222963 0.00055893
v 0.00083846 -0.00237501 0.00057501
v 0.00086416 -0.00252038 0.00059215
v 0.00086406 -0.00252038 0.00058978
v 0.00089605 -0.00266582 0.00061033
v 0.00093406 -0.00281143 0.00062826
v 0.00093195 -0.00281119 0.00062937
v 0.00086175 -0.00252014 0.00059248
v 0.00081688 -0.00222945 0.00055972
v 0.00084461 -0.00251824 0.00058848
v 0.00085755 -0.00251967 0.00059192
v 0.00081321 -0.00222903 0.00055967
v 0.00082458 -0.00279933 0.00058969
v 0.00101888 -0.00310266 0.00066533
v 0.00097545 -0.00295705 0.00064772
v 0.00101960 -0.00310272 0.00066720
v 0.00119954 -0.00368619 0.00073799
v 0.00111133 -0.00339431 0.00070473
v 0.00110513 -0.00339365 0.00070450
v 0.00126380 -0.00397664 0.00076183
v 0.00127667 -0.00397807 0.00076565
v 0.00110930 -0.00339407 0.00070519
v 0.00068996 -0.00278443 0.00053506
v 0.00142723 -0.00456446 0.00080544
v 0.00142842 -0.00456458 0.00080773
v 0.00150037 -0.00485849 0.00082458
v 0.00142348 -0.00456405 0.00080174
v 0.00157112 -0.00515288 0.00083576
v 0.00135595 -0.00427127 0.00078797
v 0.00127989 -0.00397843 0.00076577
v 0.00142258 -0.00456393 0.00080782
v 0.00170112 -0.00574160 0.00084734
v 0.00156456 -0.00515216 0.00083717
v 0.00152254 -0.00514752 0.00082092
v 0.00157189 -0.00515294 0.00083782
v 0.00164211 -0.00544768 0.00084628
v 0.00149846 -0.00485831 0.00082517
v 0.00156963 -0.00515270 0.00083825
v 0.00170714 -0.00574225 0.00084884
v 0.00156754 -0.00515246 0.00083217
v 0.00170690 -0.00574225 0.00084371
v 0.00171024 -0.00574261 0.00084879
v 0.00177586 -0.00603759 0.00084539
v 0.00124401 -0.00397450 0.00075417
v 0.00113881 -0.00396287 0.00070779
v 0.00098004 -0.00394529 0.00063760
v 0.00041480 -0.00275403 0.00042502
v 0.00183767 -0.00633252 0.00083376
v 0.00183928 -0.00633270 0.00083542
v 0.00207579 -0.00751585 0.00079819
v 0.00142550 -0.00628692 0.00057874
v 0.00227857 -0.00869965 0.00075561
v 0.00228029 -0.00869989 0.00075796
v 0.00218183 -0.00810796 0.00077838
v 0.00245190 -0.00988221 0.00071811
v 0.00227797 -0.00869959 0.00075866
v 0.00226218 -0.00869787 0.00075550
v 0.00183922 -0.00633270 0.00083791
v 0.00139820 -0.00513375 0.00076521
v 0.00121301 -0.00511324 0.00068227
v 0.00064743 -0.00390851 0.00049238
v -0.00012660 -0.00269413 0.00021862
v -0.00068279 -0.00206357 0.00009454
v -0.00070013 -0.00193095 0.00011360
v -0.00120312 -0.00599623 -0.00040636
v -0.00100756 -0.00372547 -0.00020554
v -0.00141734 -0.00597256 -0.00050592
v -0.00116789 -0.00370777 -0.00028580
v -0.00152081 -0.00596112 -0.00056438
v -0.00124395 -0.00369936 -0.00033394
v -0.00156814 -0.00595587 -0.00059861
v -0.00127780 -0.00369561 -0.00036276
v -0.00159156 -0.00595331 -0.00062317
v -0.00129282 -0.00369394 -0.00038264
v -0.00159937 -0.00595242 -0.00063621
v -0.00129783 -0.00369340 -0.00039331
v -0.00160128 -0.00595224 -0.00064245
v -0.00129968 -0.00369316 -0.00040357
v -0.00160152 -0.00595218 -0.00064831
v -0.00159985 -0.00595236 -0.00065368
v -0.00118303 -0.00257730 -0.00023609
v -0.00118154 -0.00257748 -0.00024421
v -0.00129902 -0.00369322 -0.00040833
v -0.00127041 -0.00369644 -0.00043276
v -0.00145060 -0.00481874 -0.00056417
v -0.00129098 -0.00369412 -0.00042067
v -0.00145888 -0.00481778 -0.00055584
v -0.00129729 -0.00369346 -0.00041276
v -0.00117743 -0.00257796 -0.00025159
v -0.00116330 -0.00257951 -0.00026403
v -0.00122273 -0.00370169 -0.00044315
v -0.00112605 -0.00258362 -0.00027926
v -0.00113404 -0.00371152 -0.00044089
v 0.00219804 -0.00869077 0.00073568
v 0.00203258 -0.00867247 0.00067913
v 0.00178838 -0.00864547 0.00059630
v 0.00126749 -0.00858790 0.00042116
v 0.00023880 -0.00847411 0.00008509
v -0.00078843 -0.00719911 -0.00026533
v -0.00094372 -0.00260377 -0.00007962
v -0.00107723 -0.00258905 -0.00013941
v -0.00114006 -0.00258207 -0.00017752
v -0.00116742 -0.00257903 -0.00020190
v -0.00117832 -0.00257784 -0.00021850
v -0.00159639 -0.00595278 -0.00065854
v -0.00158525 -0.00595397 -0.00066677
v -0.00155282 -0.00595760 -0.00067765
v -0.00149113 -0.00596440 -0.00068146
v -0.00137383 -0.00597739 -0.00066927
v -0.00114280 -0.00600290 -0.00062104
v 0.00183505 -0.00633222 0.00083745
v 0.00182778 -0.00633144 0.00083546
v 0.00177592 -0.00632572 0.00081576
v 0.00163537 -0.00631016 0.00075602
v 0.00142729 -0.00628716 0.00066804
v 0.00098546 -0.00623828 0.00048281
v -0.00001369 -0.00383538 0.00021316
v -0.00067044 -0.00263399 0.00002103
v -0.00102943 -0.00177735 0.00000757
v -0.00110209 -0.00173324 -0.00003534
v -0.00111735 -0.00172341 -0.00005282
v -0.00112373 -0.00171930 -0.00006689
v -0.00112516 -0.00171834 -0.00007574
v -0.00109923 -0.00201756 -0.00018157
v -0.00105369 -0.00259161 -0.00028712
v -0.00095731 -0.00373101 -0.00041232
v -0.00069162 -0.00605279 -0.00048102
v 0.00066980 -0.00278222 0.00044666
v 0.00058219 -0.00220346 0.00038974
v 0.00080933 -0.00222862 0.00054730
v 0.00061627 -0.00195932 0.00039425
v 0.00075290 -0.00191098 0.00048887
v 0.00081725 -0.00222945 0.00055465
v 0.00085500 -0.00251937 0.00058141
v 0.00025538 -0.00203806 0.00018645
v 0.00035102 -0.00217789 0.00024787
v 0.00041924 -0.00275451 0.00028892
v 0.00066287 -0.00391018 0.00034458
v 0.00120455 -0.00511235 0.00059015
v 0.00096887 -0.00394404 0.00054366
v 0.00092503 -0.00281048 0.00061922
v 0.00092980 -0.00281096 0.00062314
v 0.00093288 -0.00281131 0.00062619
v 0.00084149 -0.00507218 0.00036310
v -0.00071967 -0.00720674 -0.00052510
v -0.00121272 -0.00715220 -0.00066431
v -0.00146425 -0.00712436 -0.00071184
v -0.00159180 -0.00711030 -0.00072353
v -0.00165808 -0.00710297 -0.00071979
v -0.00169402 -0.00709897 -0.00070833
v -0.00170648 -0.00709760 -0.00069965
v -0.00171029 -0.00709718 -0.00069454
v -0.00171196 -0.00709700 -0.00068891
v -0.00171149 -0.00709706 -0.00068278
v -0.00170898 -0.00709730 -0.00067628
v -0.00169957 -0.00709838 -0.00066273
v -0.00167227 -0.00710136 -0.00063750
v -0.00161940 -0.00710720 -0.00060308
v -0.00150460 -0.00711989 -0.00054431
v -0.00126863 -0.00714600 -0.00044470
v -0.00079307 -0.00836003 -0.00024696
v 0.00040444 -0.01081800 0.00012953
v 0.00066982 -0.01315379 0.00019156
v -0.00073024 -0.00836694 -0.00051104
v -0.00125635 -0.00830877 -0.00063984
v -0.00152373 -0.00827920 -0.00068193
v -0.00165910 -0.00826424 -0.00069078
v -0.00172824 -0.00825655 -0.00068612
v -0.00176686 -0.00825232 -0.00067380
v -0.00178057 -0.00825077 -0.00066470
v -0.00178486 -0.00825030 -0.00065941
v -0.00178689 -0.00825012 -0.00065364
v -0.00178647 -0.00825012 -0.00064741
v -0.00178385 -0.00825042 -0.00064082
v -0.00177342 -0.00825161 -0.00062714
v -0.00174302 -0.00825495 -0.00060186
v -0.00168544 -0.00826132 -0.00056815
v -0.00156140 -0.00827503 -0.00051142
v -0.00130779 -0.00830305 -0.00041647
v -0.00071694 -0.00953174 -0.00046801
v -0.00126642 -0.00947100 -0.00058168
v -0.00154471 -0.00944024 -0.00061596
v -0.00168526 -0.00942469 -0.00062075
v -0.00175649 -0.00941682 -0.00061415
v -0.00179642 -0.00941241 -0.00060045
v -0.00181049 -0.00941080 -0.00059073
v -0.00181478 -0.00941038 -0.00058521
v -0.00181669 -0.00941014 -0.00057926
v -0.00181597 -0.00941020 -0.00057292
v -0.00181288 -0.00941056 -0.00056629
v -0.00180125 -0.00941187 -0.00055272
v -0.00176835 -0.00941551 -0.00052809
v -0.00170731 -0.00942224 -0.00049597
v -0.00157642 -0.00943673 -0.00044264
v -0.00130999 -0.00946617 -0.00035482
v -0.00069897 -0.01069593 -0.00013944
v -0.00056980 -0.01186710 -0.00007286
v 0.00029256 -0.00848007 -0.00015288
v 0.00023342 -0.00731212 -0.00014796
v 0.00078608 -0.00189757 0.00051342
v -0.00110948 -0.00172853 -0.00010765
v -0.00108433 -0.00174439 -0.00012640
v 0.00017675 0.00204635 -0.00001282
v 0.00051763 0.00198769 -0.00012640
v -0.00020363 0.00204384 -0.00012640
v 0.00062413 -0.00195688 -0.00012640
v -0.00022577 -0.00204152 -0.00012640
v 0.00062413 -0.00195688 0.00093220
v 0.00136608 -0.00153381 0.00093220
v 0.00136608 -0.00153381 -0.00012640
v -0.00022577 -0.00204152 0.00093220
v -0.00103658 -0.00177318 0.00093220
v -0.00166821 -0.00119823 -0.00012640
v -0.00166821 -0.00119823 0.00093220
v -0.00003314 0.00205368 0.00007763
v -0.00076832 0.00190485 0.00052595
v -0.00101733 0.00178432 0.00093220
v -0.00068954 0.00193477 0.00050787
v -0.00020363 0.00204384 0.00093220
v -0.00036558 0.00202119 0.00042513
v -0.00020334 0.00204390 0.00037854
v -0.00078835 0.00189668 0.00052786
v -0.00079264 0.00189489 0.00052710
v -0.00079445 0.00189412 0.00052580
v -0.00101733 0.00178432 -0.00012640
v -0.00079458 0.00189406 0.00052337
v -0.00079311 0.00189465 0.00052073
v -0.00078481 0.00189811 0.00051232
v -0.00070815 0.00192803 0.00045879
v -0.00038319 0.00201792 0.00025494
v -0.00020509 0.00204372 0.00016070
v 0.00003123 0.00205374 0.00030908
v 0.00064530 0.00194997 0.00093220
v 0.00030283 0.00203151 0.00022781
v 0.00108433 0.00174439 -0.00012640
v 0.00109422 0.00173825 -0.00012015
v 0.00138259 0.00151891 -0.00012640
v 0.00111514 0.00172484 -0.00010139
v 0.00112259 0.00172001 -0.00008925
v 0.00112498 0.00171852 -0.00008058
v 0.00112522 0.00171834 -0.00007697
v 0.00112474 0.00171864 -0.00007148
v 0.00111997 0.00172174 -0.00005740
v 0.00138259 0.00151891 0.00093220
v 0.00111216 0.00172681 -0.00004552
v 0.00108796 0.00174212 -0.00002445
v 0.00097459 0.00180805 0.00002976
v 0.00064858 0.00194889 0.00012791
v 0.00188088 0.00082526 0.00093220
v 0.00188088 0.00082526 -0.00012640
v 0.00205392 -0.00001113 0.00093220
v 0.00205392 -0.00001113 -0.00012640
v 0.00187182 -0.00084559 0.00093220
v 0.00187182 -0.00084559 -0.00012640
v -0.00201136 -0.00041616 0.00093220
v -0.00201136 -0.00041616 -0.00012640
v -0.00200677 0.00043793 0.00093220
v -0.00200677 0.00043793 -0.00012640
v -0.00165510 0.00121629 0.00093220
v -0.00165510 0.00121629 -0.00012640
v -0.00115746 -0.00050785 0.00093220
v -0.00074849 -0.00101852 0.00093220
v -0.00013893 -0.00125629 0.00093220
v 0.00050785 -0.00115746 0.00093220
v 0.00101852 -0.00074849 0.00093220
v 0.00125629 -0.00013893 0.00093220
v 0.00115746 0.00050785 0.00093220
v 0.00074849 0.00101852 0.00093220
v 0.00013893 0.00125629 0.00093220
v -0.00050785 0.00115746 0.00093220
v -0.00101852 0.00074849 0.00093220
v -0.00125629 0.00013893 0.00093220
v 0.00153804 -0.00036169 -0.00012640
v 0.00119376 -0.00103498 -0.00012640
v 0.00057604 -0.00147122 -0.00012640
v -0.00017367 -0.00157040 -0.00012640
v -0.00088359 -0.00130981 -0.00012640
v 0.00117135 0.00106031 -0.00012640
v 0.00152993 0.00039450 -0.00012640
v -0.00139105 -0.00074918 -0.00012640
v -0.00157988 -0.00001689 -0.00012640
v -0.00140679 0.00071926 -0.00012640
v -0.00091140 0.00129062 -0.00012640
v -0.00020721 0.00156635 -0.00012640
v 0.00083959 0.00158203 -0.00012640
v 0.00076196 0.00159544 -0.00012640
v 0.00054445 0.00148320 -0.00012640
v 0.00070296 0.00162971 -0.00012640
v 0.00052496 0.00196236 -0.00012640
v 0.00053521 0.00192899 -0.00012640
v 0.00063318 0.00170833 -0.00012640
v 0.00091645 0.00159693 -0.00012640
v 0.00100946 0.00165212 -0.00012640
v 0.00107896 0.00173485 -0.00012640
v -0.00174081 0.01977676 0.00029434
v -0.00175244 0.01977801 0.00028341
v -0.00181752 0.01978522 0.00025900
v -0.00257051 0.01986849 0.00037876
v -0.00255406 0.01986670 0.00037870
v -0.00253087 0.01986414 0.00036311
v -0.00250536 0.01986128 0.00037491
v -0.00246459 0.01985681 0.00034046
v -0.00243032 0.01985299 0.00036946
v -0.00236022 0.01984524 0.00030978
v -0.00234437 0.01984351 0.00036382
v -0.00215143 0.01982218 0.00026333
v -0.00215322 0.01982235 0.00035392
v -0.00204211 0.01981008 0.00024863
v -0.00189817 0.01979416 0.00024695
v -0.00186616 0.01979058 0.00034088
v -0.00181931 0.01978540 0.00033667
v -0.00256884 0.01986831 0.00037589
v -0.00173759 0.01977640 0.00030676
v -0.00173741 0.01977640 0.00030150
v -0.00174153 0.01977682 0.00031350
v -0.00175369 0.01977819 0.00032210
v -0.00178576 0.00864482 0.00050803
v -0.00128770 0.00858974 0.00027334
v -0.00101012 0.00624061 0.00033739
v 0.00090727 0.00260729 -0.00027776
v 0.00062211 0.00263882 -0.00021465
v 0.00061329 0.00376862 -0.00031169
v 0.00067761 0.00376147 -0.00006361
v 0.00076588 0.00604421 -0.00022659
v -0.00011136 0.00614118 0.00012625
v -0.00109887 0.00339246 0.00070270
v -0.00092529 0.00280994 0.00062815
v -0.00091104 0.00280839 0.00062371
v -0.00110859 0.00339353 0.00070013
v -0.00127882 0.00397784 0.00076191
v -0.00127488 0.00397742 0.00075806
v -0.00266665 0.01887029 0.00041290
v -0.00273615 0.01786476 0.00044749
v -0.00269932 0.01786071 0.00044532
v -0.00270867 0.01837521 0.00042666
v -0.00266874 0.01887053 0.00040977
v -0.00266612 0.01887023 0.00040803
v -0.00201368 0.01668834 0.00038042
v -0.00210518 0.01779496 0.00037724
v -0.00243688 0.01783168 0.00041452
v -0.00205517 0.01100027 0.00045808
v -0.00258875 0.01105928 0.00067617
v -0.00276661 0.01338547 0.00059732
v -0.00225163 0.01332855 0.00041497
v -0.00173151 0.01327103 0.00024574
v -0.00151598 0.01094061 0.00025304
v -0.00069758 0.01315665 -0.00005013
v -0.00044267 0.01082193 -0.00011348
v -0.00136375 0.01872622 0.00011010
v 0.00141084 0.01292353 -0.00029567
v 0.00139767 0.01292496 -0.00030627
v 0.00113076 0.01409769 -0.00020199
v -0.00079466 0.00193840 0.00053092
v 0.00107723 0.00258851 -0.00013934
v 0.00094371 0.00260329 -0.00007956
v 0.00109923 0.00201702 -0.00018147
v 0.00105369 0.00259113 -0.00028705
v 0.00114155 0.00201231 -0.00015184
v 0.00113040 0.00201356 -0.00016422
v 0.00114000 0.00258160 -0.00017744
v 0.00116742 0.00257856 -0.00020182
v 0.00117826 0.00257736 -0.00021842
v 0.00118297 0.00257683 -0.00023601
v 0.00016471 0.00212032 0.00025898
v -0.00035126 0.00217742 0.00041501
v -0.00060426 0.00220537 0.00049434
v -0.00072597 0.00221884 0.00053340
v -0.00080152 0.00222719 0.00055740
v -0.00079148 0.00193805 0.00053148
v -0.00079627 0.00193858 0.00052961
v -0.00079618 0.00193858 0.00052748
v -0.00035100 0.00217736 0.00024783
v 0.00109863 0.01410126 -0.00022017
v 0.00136059 0.01292908 -0.00032292
v 0.00103480 0.01410830 -0.00023685
v 0.00129348 0.01293647 -0.00033568
v 0.00090887 0.01412224 -0.00024963
v 0.00115877 0.01295137 -0.00034399
v 0.00065579 0.01415026 -0.00025078
v 0.00088999 0.01298111 -0.00033609
v 0.00035524 0.01304024 -0.00027517
v 0.00053180 0.01187103 -0.00034339
v 0.00077812 0.01526546 -0.00007255
v 0.00078043 0.01526516 -0.00007810
v 0.00056769 0.01584678 -0.00003291
v 0.00078087 0.01526516 -0.00008365
v 0.00056714 0.01584684 -0.00003823
v 0.00077946 0.01526528 -0.00008915
v 0.00033900 0.01642817 0.00000169
v -0.00053568 0.01813489 0.00016716
v -0.00016897 0.01758086 0.00011213
v -0.00017213 0.01758122 0.00010322
v -0.00095134 0.01868063 0.00020649
v -0.00096134 0.01868170 0.00019499
v -0.00098486 0.01868432 0.00017771
v -0.00145698 0.01772332 0.00008630
v -0.00180423 0.01877492 0.00015696
v 0.00033047 0.01642912 -0.00000792
v 0.00077202 0.01526612 -0.00009982
v 0.00030647 0.01643180 -0.00002455
v 0.00074522 0.01526910 -0.00011852
v 0.00025811 0.01643711 -0.00004306
v 0.00068741 0.01527547 -0.00013835
v 0.00015985 0.01644802 -0.00006282
v 0.00057401 0.01528799 -0.00015529
v -0.00003985 0.01647007 -0.00007965
v 0.00034431 0.01531344 -0.00016507
v -0.00011489 0.01536422 -0.00013949
v 0.00015125 0.01420605 -0.00020777
v -0.00102186 0.01546448 0.00001425
v -0.00044063 0.01651442 -0.00006980
v -0.00047478 0.01761466 0.00000975
v -0.00031206 0.01759672 0.00003501
v -0.00023343 0.01758801 0.00005851
v -0.00019533 0.01758378 0.00007897
v -0.00017808 0.01758188 0.00009459
v -0.00223464 0.01882255 0.00026158
v -0.00209707 0.01779407 0.00023887
v -0.00201189 0.01668816 0.00023938
v -0.00103539 0.01868993 0.00015564
v -0.00114292 0.01870179 0.00012866
v -0.00080394 0.01765108 0.00000211
v -0.00123340 0.01660209 0.00005027
v -0.00191313 0.01556307 0.00023842
v -0.00236148 0.01561266 0.00037087
v -0.00241798 0.01782959 0.00033407
v -0.00280505 0.01453298 0.00055718
v -0.00281197 0.01510024 0.00053713
v -0.00150484 0.01093941 0.00040276
v -0.00172579 0.01327037 0.00039377
v -0.00206256 0.01100105 0.00054614
v -0.00226116 0.01332956 0.00050109
v -0.00232375 0.01102995 0.00061400
v -0.00251186 0.01335728 0.00055204
v -0.00250083 0.01104950 0.00066045
v -0.00268185 0.01337611 0.00058702
v -0.00257021 0.01105719 0.00067663
v -0.00274861 0.01338350 0.00059880
v -0.00258762 0.01105910 0.00067903
v -0.00276542 0.01338535 0.00060015
v -0.00269568 0.01222795 0.00063864
v -0.00276810 0.01338565 0.00059930
v -0.00279027 0.01396107 0.00057743
v -0.00280041 0.01424771 0.00056853
v -0.00279641 0.01410466 0.00057515
v -0.00279218 0.01396131 0.00057949
v -0.00278997 0.01396107 0.00058049
v -0.00279945 0.01424765 0.00057063
v -0.00280702 0.01453316 0.00055844
v -0.00281435 0.01510047 0.00053846
v -0.00279391 0.01453173 0.00056062
v -0.00278038 0.01367378 0.00059002
v -0.00280505 0.01453298 0.00056106
v -0.00281453 0.01510047 0.00054159
v -0.00281596 0.01566290 0.00052018
v -0.00192982 0.01556491 0.00038623
v -0.00239044 0.01561582 0.00045822
v -0.00260830 0.01563996 0.00049299
v -0.00275522 0.01565617 0.00051661
v -0.00280666 0.01566189 0.00052258
v 0.00111663 0.01180636 -0.00019318
v 0.00124973 0.01063477 -0.00027753
v 0.00138730 0.01177644 -0.00026392
v 0.00152206 0.01060467 -0.00035708
v 0.00152081 0.01176166 -0.00030887
v 0.00165623 0.01058983 -0.00040640
v 0.00158363 0.01175475 -0.00033717
v 0.00171912 0.01058286 -0.00043670
v 0.00161779 0.01175093 -0.00035976
v 0.00175327 0.01057910 -0.00046043
v 0.00162995 0.01174962 -0.00037257
v 0.00176543 0.01057773 -0.00047369
v 0.00163329 0.01174926 -0.00037897
v 0.00176871 0.01057738 -0.00048025
v 0.00163418 0.01174914 -0.00038523
v 0.00176954 0.01057726 -0.00048659
v 0.00163245 0.01174932 -0.00039125
v 0.00176769 0.01057749 -0.00049261
v 0.00162834 0.01174980 -0.00039701
v 0.00176340 0.01057797 -0.00049829
v 0.00161469 0.01175129 -0.00040752
v 0.00174928 0.01057952 -0.00050847
v 0.00157565 0.01175558 -0.00042357
v 0.00170910 0.01058399 -0.00052342
v 0.00150531 0.01176339 -0.00043448
v 0.00163752 0.01059186 -0.00053210
v 0.00136506 0.01177889 -0.00043856
v 0.00149518 0.01060760 -0.00053171
v 0.00108588 0.01180976 -0.00042197
v 0.00121272 0.01063883 -0.00050612
v 0.00065346 0.01070070 -0.00040960
v 0.00114077 0.01409661 -0.00019112
v 0.00128847 0.01351004 -0.00023949
v 0.00141490 0.01292306 -0.00028996
v 0.00128996 0.01350986 -0.00023362
v 0.00141680 0.01292282 -0.00028404
v 0.00128907 0.01350998 -0.00022762
v 0.00141627 0.01292294 -0.00027795
v 0.00141334 0.01292324 -0.00027176
v 0.00077427 0.01526588 -0.00006708
v 0.00076316 0.01526707 -0.00005659
v 0.00112605 0.01409822 -0.00015644
v 0.00109500 0.01410168 -0.00013712
v 0.00136936 0.01292806 -0.00023792
v 0.00130832 0.01293486 -0.00021142
v 0.00140208 0.01292449 -0.00025948
v 0.00113785 0.01409691 -0.00016782
v 0.00114167 0.01409649 -0.00017370
v 0.00114351 0.01409631 -0.00017958
v 0.00114322 0.01409631 -0.00018541
v -0.00277185 0.01732766 0.00046366
v -0.00279444 0.01677471 0.00048289
v -0.00279164 0.01677441 0.00048449
v -0.00281519 0.01566284 0.00052229
v -0.00281203 0.01566249 0.00051776
v -0.00273985 0.01786518 0.00044252
v -0.00281316 0.01566261 0.00052257
v -0.00274080 0.01786530 0.00044703
v -0.00276971 0.01732742 0.00046540
v -0.00274301 0.01786553 0.00044607
v -0.00280219 0.01453262 0.00056113
v -0.00102073 0.01546436 0.00025333
v -0.00121886 0.01660048 0.00028133
v -0.00270831 0.01837515 0.00042931
v -0.00269061 0.01862353 0.00041963
v -0.00266904 0.01887059 0.00041221
v 0.00033648 0.01642847 0.00003191
v 0.00034251 0.01642781 0.00002193
v -0.00016938 0.01758092 0.00012109
v 0.00117916 0.01294910 -0.00017082
v 0.00103736 0.01410806 -0.00011353
v 0.00073518 0.01527017 -0.00003913
v 0.00055528 0.01584815 -0.00001207
v 0.00056402 0.01584720 -0.00002230
v 0.00056660 0.01584690 -0.00002758
v 0.00034368 0.01642769 0.00001684
v 0.00034344 0.01642769 0.00001175
v 0.00034181 0.01642787 0.00000668
v 0.00031533 0.01643079 0.00004963
v -0.00017333 0.01758134 0.00012988
v -0.00053824 0.01813519 0.00018276
v -0.00053565 0.01813489 0.00017501
v -0.00094603 0.01868003 0.00023188
v -0.00094481 0.01867991 0.00022547
v -0.00097597 0.01868337 0.00026145
v -0.00102806 0.01868909 0.00027978
v -0.00057936 0.01813971 0.00021645
v -0.00030426 0.01759582 0.00018980
v -0.00022548 0.01758712 0.00016611
v 0.00017284 0.01644653 0.00009911
v -0.00095318 0.01868081 0.00024400
v -0.00054928 0.01813644 0.00019707
v -0.00018847 0.01758301 0.00014581
v 0.00026929 0.01643592 0.00007133
v 0.00057130 0.01528829 0.00001310
v 0.00066753 0.01414895 -0.00002481
v 0.00034565 0.01531326 0.00005721
v -0.00002438 0.01646834 0.00013549
v -0.00046662 0.01761376 0.00021779
v -0.00113743 0.01870119 0.00029846
v 0.00038880 0.01303654 -0.00000627
v 0.00016812 0.01420414 0.00006013
v -0.00010946 0.01536357 0.00012486
v -0.00042221 0.01651233 0.00018667
v -0.00079431 0.01765000 0.00025195
v -0.00135845 0.01872563 0.00031624
v 0.00091736 0.01297807 -0.00010885
v 0.00091507 0.01412153 -0.00007773
v 0.00068273 0.01527601 -0.00001808
v -0.00094545 0.01867997 0.00021904
v -0.00145048 0.01772260 0.00031238
v -0.00180113 0.01877462 0.00034436
v -0.00259382 0.01784902 0.00043288
v -0.00081878 0.00222909 0.00055887
v -0.00083863 0.00237447 0.00057344
v -0.00086405 0.00251985 0.00059208
v -0.00086296 0.00251973 0.00058845
v -0.00089592 0.00266528 0.00061026
v -0.00093303 0.00281083 0.00062920
v -0.00086164 0.00251955 0.00059242
v -0.00083752 0.00237435 0.00057534
v -0.00081682 0.00222886 0.00055966
v -0.00093009 0.00281048 0.00062915
v -0.00084450 0.00251770 0.00058842
v -0.00085744 0.00251913 0.00059185
v -0.00081315 0.00222850 0.00055962
v -0.00082445 0.00279880 0.00058963
v -0.00119972 0.00368571 0.00073648
v -0.00111121 0.00339383 0.00070467
v -0.00101936 0.00310218 0.00066634
v -0.00101799 0.00310206 0.00066786
v -0.00097530 0.00295651 0.00064765
v -0.00110495 0.00339311 0.00070443
v -0.00126362 0.00397617 0.00076179
v -0.00127655 0.00397760 0.00076561
v -0.00110912 0.00339359 0.00070513
v -0.00119835 0.00368559 0.00073818
v -0.00068984 0.00278395 0.00053501
v -0.00127977 0.00397795 0.00076573
v -0.00135463 0.00427067 0.00078891
v -0.00135547 0.00427073 0.00078689
v -0.00142336 0.00456357 0.00080171
v -0.00142807 0.00456411 0.00080675
v -0.00157100 0.00515240 0.00083574
v -0.00142246 0.00456345 0.00080779
v -0.00142670 0.00456393 0.00080847
v -0.00170106 0.00574118 0.00084734
v -0.00156450 0.00515169 0.00083715
v -0.00152242 0.00514704 0.00082090
v -0.00150025 0.00485808 0.00082455
v -0.00157177 0.00515246 0.00083780
v -0.00164151 0.00544721 0.00084434
v -0.00164109 0.00544715 0.00084660
v -0.00171012 0.00574219 0.00084879
v -0.00149834 0.00485784 0.00082514
v -0.00156951 0.00515223 0.00083823
v -0.00170702 0.00574183 0.00084884
v -0.00177431 0.00603700 0.00084550
v -0.00156742 0.00515199 0.00083215
v -0.00170678 0.00574178 0.00084371
v -0.00177616 0.00603718 0.00084392
v -0.00184005 0.00633234 0.00083669
v -0.00124389 0.00397396 0.00075413
v -0.00113875 0.00396234 0.00070775
v -0.00097994 0.00394481 0.00063757
v -0.00041470 0.00275350 0.00042499
v -0.00183755 0.00633210 0.00083377
v -0.00207537 0.00751543 0.00079640
v -0.00183743 0.00633210 0.00083789
v -0.00207448 0.00751531 0.00079846
v -0.00142544 0.00628650 0.00057876
v -0.00227851 0.00869930 0.00075562
v -0.00228024 0.00869954 0.00075797
v -0.00218218 0.00810760 0.00077775
v -0.00227791 0.00869924 0.00075867
v -0.00218034 0.00810742 0.00077861
v -0.00226212 0.00869751 0.00075551
v -0.00245106 0.00988179 0.00071866
v -0.00259036 0.01105946 0.00067832
v -0.00139809 0.00513327 0.00076520
v -0.00121289 0.00511283 0.00068227
v -0.00064735 0.00390804 0.00049237
v 0.00012666 0.00269365 0.00021863
v 0.00068280 0.00206304 0.00009463
v -0.00183493 0.00633180 0.00083746
v -0.00182772 0.00633103 0.00083547
v -0.00219798 0.00869042 0.00073569
v -0.00177586 0.00632524 0.00081577
v -0.00203252 0.00867212 0.00067914
v -0.00163525 0.00630975 0.00075603
v -0.00178838 0.00864512 0.00059631
v -0.00142723 0.00628674 0.00066805
v -0.00126743 0.00858754 0.00042116
v -0.00098540 0.00623786 0.00048282
v 0.00001372 0.00383490 0.00021317
v 0.00067045 0.00263351 0.00002108
v 0.00120306 0.00599581 -0.00040633
v 0.00100750 0.00372499 -0.00020548
v 0.00141734 0.00597215 -0.00050589
v 0.00116783 0.00370729 -0.00028573
v 0.00152081 0.00596070 -0.00056435
v 0.00124389 0.00369888 -0.00033387
v 0.00156808 0.00595546 -0.00059857
v 0.00127774 0.00369513 -0.00036269
v 0.00159150 0.00595289 -0.00062314
v 0.00129277 0.00369346 -0.00038257
v 0.00159931 0.00595200 -0.00063618
v 0.00129771 0.00369292 -0.00039324
v 0.00160122 0.00595182 -0.00064242
v 0.00129962 0.00369269 -0.00040350
v 0.00160146 0.00595176 -0.00064828
v 0.00159979 0.00595194 -0.00065365
v 0.00118148 0.00257701 -0.00024413
v 0.00129896 0.00369275 -0.00040825
v 0.00127035 0.00369596 -0.00043268
v 0.00145054 0.00481826 -0.00056413
v 0.00129092 0.00369364 -0.00042060
v 0.00145882 0.00481737 -0.00055580
v 0.00129724 0.00369298 -0.00041269
v 0.00117737 0.00257742 -0.00025151
v 0.00116324 0.00257897 -0.00026395
v 0.00122267 0.00370121 -0.00044308
v 0.00112605 0.00258309 -0.00027918
v 0.00113398 0.00371104 -0.00044083
v -0.00023878 0.00847375 0.00008508
v 0.00078843 0.00719875 -0.00026532
v 0.00159633 0.00595236 -0.00065851
v 0.00158518 0.00595361 -0.00066674
v 0.00155276 0.00595719 -0.00067762
v 0.00149113 0.00596398 -0.00068142
v 0.00137383 0.00597697 -0.00066924
v 0.00114274 0.00600248 -0.00062101
v 0.00095727 0.00373054 -0.00041226
v 0.00069161 0.00605237 -0.00048099
v 0.00013326 0.00212383 0.00000481
v 0.00008629 0.00269812 0.00000714
v -0.00004102 0.00384098 -0.00001534
v -0.00017524 0.00614828 -0.00010416
v -0.00066968 0.00278169 0.00044660
v -0.00058216 0.00220293 0.00038969
v -0.00080926 0.00222802 0.00054724
v -0.00081719 0.00222891 0.00055459
v -0.00085489 0.00251883 0.00058134
v -0.00041914 0.00275397 0.00028889
v -0.00066279 0.00390971 0.00034457
v -0.00120443 0.00511187 0.00059014
v -0.00096876 0.00394356 0.00054363
v -0.00092489 0.00280994 0.00061915
v -0.00092966 0.00281042 0.00062306
v -0.00093274 0.00281078 0.00062612
v -0.00084142 0.00507170 0.00036309
v 0.00071967 0.00720632 -0.00052510
v 0.00121266 0.00715178 -0.00066431
v 0.00146419 0.00712401 -0.00071184
v 0.00159180 0.00710988 -0.00072353
v 0.00165802 0.00710255 -0.00071979
v 0.00169396 0.00709862 -0.00070833
v 0.00170648 0.00709718 -0.00069965
v 0.00171024 0.00709677 -0.00069454
v 0.00171196 0.00709659 -0.00068891
v 0.00171143 0.00709665 -0.00068278
v 0.00170898 0.00709695 -0.00067628
v 0.00169957 0.00709796 -0.00066273
v 0.00167227 0.00710100 -0.00063751
v 0.00161940 0.00710684 -0.00060308
v 0.00150460 0.00711954 -0.00054431
v 0.00126856 0.00714564 -0.00044470
v 0.00079307 0.00835967 -0.00024697
v -0.00040441 0.01081770 0.00012952
v -0.00066980 0.01315361 0.00019156
v 0.00073024 0.00836658 -0.00051105
v 0.00125635 0.00830841 -0.00063986
v 0.00152367 0.00827885 -0.00068195
v 0.00165910 0.00826389 -0.00069080
v 0.00172824 0.00825626 -0.00068613
v 0.00176680 0.00825197 -0.00067382
v 0.00178057 0.00825042 -0.00066472
v 0.00178486 0.00825000 -0.00065943
v 0.00178689 0.00824976 -0.00065366
v 0.00178647 0.00824976 -0.00064743
v 0.00178385 0.00825006 -0.00064083
v 0.00177336 0.00825125 -0.00062716
v 0.00174302 0.00825459 -0.00060188
v 0.00168544 0.00826097 -0.00056816
v 0.00156140 0.00827467 -0.00051144
v 0.00130779 0.00830275 -0.00041649
v 0.00071695 0.00953144 -0.00046802
v 0.00126642 0.00947070 -0.00058170
v 0.00154471 0.00943988 -0.00061598
v 0.00168526 0.00942439 -0.00062078
v 0.00175649 0.00941646 -0.00061418
v 0.00179642 0.00941205 -0.00060047
v 0.00181055 0.00941050 -0.00059076
v 0.00181478 0.00941002 -0.00058523
v 0.00181669 0.00940984 -0.00057929
v 0.00181597 0.00940990 -0.00057294
v 0.00181288 0.00941026 -0.00056632
v 0.00180125 0.00941151 -0.00055275
v 0.00176835 0.00941515 -0.00052812
v 0.00170731 0.00942194 -0.00049599
v 0.00157642 0.00943637 -0.00044266
v 0.00130999 0.00946587 -0.00035484
v 0.00069899 0.01069569 -0.00013946
v 0.00056983 0.01186686 -0.00007288
v -0.00029254 0.00847971 -0.00015288
v -0.00023340 0.00731170 -0.00014795
v -0.00091140 0.00129062 0.00000000
v -0.00020721 0.00156635 0.00000000
v 0.00054445 0.00148320 0.00000000
v 0.00117135 0.00106031 0.00000000
v 0.00152993 0.00039450 0.00000000
v 0.00153804 -0.00036169 0.00000000
v 0.00119376 -0.00103498 0.00000000
v 0.00057604 -0.00147122 0.00000000
v -0.00017367 -0.00157040 0.00000000
v -0.00088359 -0.00130981 0.00000000
v -0.00139105 -0.00074918 0.00000000
v -0.00157988 -0.00001689 0.00000000
v -0.00140679 0.00071926 0.00000000
v 0.00050785 -0.00115746 0.00022120
v 0.00101852 -0.00074849 0.00022120
v 0.00125629 -0.00013893 0.00022120
v 0.00115746 0.00050785 0.00022120
v 0.00074849 0.00101852 0.00022120
v 0.00013893 0.00125629 0.00022120
v -0.00050785 0.00115746 0.00022120
v -0.00101852 0.00074849 0.00022120
v -0.00125629 0.00013893 0.00022120
v -0.00115746 -0.00050785 0.00022120
v -0.00074849 -0.00101852 0.00022120
v -0.00013893 -0.00125629 0.00022120
f 1 2 3
f 3 2 4
f 3 4 5
f 5 4 6
f 5 6 7
f 7 6 8
f 7 8 9
f 9 8 10
f 9 10 11
f 11 10 12
f 11 12 13
f 13 12 14
f 13 14 15
f 15 14 16
f 15 16 17
f 17 16 18
f 17 18 19
f 19 18 20
f 19 20 21
f 21 20 22
f 21 22 23
f 23 22 24
f 23 24 1
f 1 24 2
f 25 26 27
f 28 29 30
f 30 29 31
f 30 31 32
f 32 31 33
f 32 33 34
f 34 33 35
f 34 35 36
f 36 35 37
f 36 37 38
f 38 37 39
f 39 37 40
f 39 40 27
f 27 40 41
f 27 41 25
f 42 28 30
f 43 44 45
f 45 44 25
f 45 25 46
f 46 25 41
f 47 48 49
f 50 51 52
f 53 54 55
f 56 57 58
f 59 60 61
f 62 63 64
f 65 66 67
f 68 69 70
f 71 72 73
f 74 75 76
f 77 78 76
f 79 39 27
f 80 81 82
f 83 84 85
f 86 87 88
f 89 90 91
f 92 93 94
f 94 95 92
f 92 95 91
f 92 91 96
f 96 91 90
f 97 98 89
f 99 100 101
f 101 100 102
f 101 102 97
f 103 104 105
f 105 104 106
f 105 106 107
f 108 109 110
f 109 108 111
f 111 108 112
f 111 112 113
f 113 112 114
f 113 114 115
f 115 114 116
f 115 116 117
f 117 116 118
f 117 118 119
f 83 120 121
f 83 121 122
f 122 121 123
f 82 81 124
f 124 81 125
f 124 125 126
f 126 125 127
f 126 127 128
f 128 127 129
f 128 129 130
f 130 129 131
f 130 131 132
f 132 131 133
f 132 133 78
f 134 135 136
f 136 135 137
f 136 137 138
f 138 137 139
f 138 139 140
f 141 142 143
f 44 144 25
f 25 144 145
f 25 145 26
f 26 145 146
f 26 146 27
f 147 148 79
f 140 139 149
f 149 139 150
f 149 150 151
f 151 150 152
f 151 152 153
f 153 152 154
f 153 154 155
f 155 154 156
f 155 156 157
f 157 156 158
f 157 158 159
f 159 158 160
f 159 160 77
f 76 75 77
f 77 75 161
f 77 161 159
f 159 161 162
f 159 162 157
f 157 162 163
f 157 163 155
f 155 163 164
f 155 164 153
f 153 164 165
f 153 165 151
f 151 165 166
f 151 166 149
f 149 166 167
f 149 167 140
f 168 148 169
f 169 148 147
f 169 147 170
f 146 171 27
f 27 171 172
f 27 172 79
f 79 172 173
f 79 173 147
f 147 173 174
f 147 174 170
f 174 175 170
f 170 175 176
f 170 176 169
f 169 176 177
f 169 177 168
f 178 179 176
f 39 79 38
f 38 79 148
f 38 148 36
f 36 148 168
f 36 168 34
f 34 168 177
f 34 177 32
f 180 181 182
f 182 181 183
f 182 183 184
f 184 183 185
f 184 185 186
f 186 185 187
f 186 187 188
f 188 187 189
f 188 189 190
f 190 189 191
f 190 191 192
f 192 191 193
f 192 193 194
f 144 167 145
f 145 167 166
f 145 166 146
f 146 166 165
f 146 165 171
f 171 165 164
f 171 164 172
f 172 164 163
f 172 163 173
f 173 163 162
f 173 162 174
f 174 162 161
f 174 161 175
f 175 161 75
f 175 75 176
f 176 75 74
f 176 74 178
f 178 74 195
f 178 195 196
f 196 195 197
f 196 197 198
f 196 199 178
f 178 199 200
f 178 200 179
f 187 201 189
f 189 201 202
f 189 202 191
f 191 202 203
f 191 203 193
f 181 204 183
f 183 204 205
f 183 205 185
f 185 205 206
f 185 206 187
f 187 206 207
f 187 207 201
f 201 207 208
f 209 210 211
f 211 210 212
f 211 212 213
f 213 212 214
f 213 214 215
f 215 214 216
f 215 216 217
f 217 216 218
f 217 218 219
f 219 218 220
f 219 220 221
f 221 220 222
f 221 222 223
f 223 222 224
f 223 224 225
f 225 224 226
f 225 226 227
f 227 226 228
f 227 228 229
f 229 228 230
f 229 230 231
f 231 230 232
f 231 232 233
f 233 232 234
f 233 234 235
f 235 234 236
f 235 236 237
f 237 236 238
f 237 238 239
f 82 240 80
f 80 240 241
f 80 241 242
f 242 241 243
f 242 243 244
f 244 243 245
f 244 245 246
f 246 245 247
f 248 249 250
f 250 249 251
f 250 251 252
f 252 251 253
f 254 247 255
f 255 247 245
f 255 245 256
f 256 245 243
f 256 243 257
f 257 243 241
f 257 241 258
f 258 241 240
f 259 260 261
f 261 260 262
f 261 262 263
f 264 265 262
f 262 265 266
f 262 267 264
f 268 196 269
f 268 269 270
f 270 269 264
f 270 264 259
f 259 264 267
f 259 267 260
f 260 267 262
f 262 266 263
f 271 272 68
f 63 62 65
f 65 62 273
f 65 273 274
f 42 67 28
f 28 67 66
f 65 274 66
f 66 274 273
f 66 273 28
f 28 273 62
f 28 62 29
f 29 62 64
f 29 64 31
f 275 276 277
f 278 253 279
f 279 253 251
f 279 251 280
f 280 251 249
f 280 249 281
f 281 249 248
f 281 248 282
f 282 248 283
f 282 283 284
f 284 283 285
f 284 285 142
f 142 285 286
f 142 286 143
f 287 275 288
f 288 275 277
f 288 277 289
f 289 277 290
f 289 290 291
f 291 290 292
f 45 46 293
f 293 46 294
f 293 294 295
f 295 294 296
f 295 296 297
f 297 296 298
f 43 45 299
f 299 45 293
f 299 293 300
f 300 293 295
f 300 295 301
f 301 295 297
f 301 297 302
f 302 297 298
f 302 298 303
f 304 303 305
f 305 303 298
f 305 298 306
f 306 298 296
f 306 296 307
f 307 296 294
f 307 294 308
f 308 294 46
f 308 46 41
f 309 304 310
f 310 304 305
f 310 305 311
f 311 305 306
f 311 306 312
f 312 306 307
f 312 307 313
f 313 307 308
f 313 308 314
f 314 308 41
f 314 41 40
f 315 278 316
f 316 278 279
f 316 279 317
f 317 279 280
f 317 280 287
f 287 280 281
f 287 281 275
f 275 281 282
f 275 282 276
f 276 282 284
f 276 284 277
f 277 284 142
f 277 142 290
f 290 142 141
f 290 141 292
f 292 141 318
f 68 272 69
f 69 272 319
f 69 319 320
f 64 321 31
f 31 321 70
f 31 70 33
f 33 70 69
f 33 69 35
f 35 69 320
f 35 320 37
f 78 77 132
f 132 77 160
f 132 160 130
f 130 160 158
f 130 158 128
f 128 158 156
f 128 156 126
f 126 156 154
f 126 154 124
f 124 154 152
f 124 152 82
f 82 152 150
f 82 150 240
f 240 150 139
f 240 139 258
f 258 139 137
f 258 137 257
f 257 137 135
f 257 135 256
f 256 135 134
f 256 134 255
f 120 322 121
f 323 324 325
f 325 324 326
f 325 326 327
f 328 324 329
f 329 324 323
f 329 323 330
f 330 323 322
f 330 322 85
f 85 322 120
f 85 120 83
f 328 327 326
f 331 332 333
f 57 332 58
f 58 332 331
f 58 331 334
f 335 336 337
f 338 60 59
f 338 59 339
f 339 59 335
f 339 335 337
f 327 328 337
f 340 337 328
f 324 328 326
f 85 333 330
f 330 333 332
f 330 332 329
f 329 332 57
f 329 57 328
f 328 57 56
f 328 56 340
f 341 342 343
f 343 342 338
f 343 338 339
f 84 119 85
f 85 119 118
f 85 118 333
f 333 118 116
f 333 116 331
f 331 116 114
f 331 114 334
f 334 114 112
f 334 112 344
f 344 112 108
f 345 346 347
f 348 345 349
f 350 351 352
f 350 352 346
f 353 354 355
f 355 354 352
f 345 347 349
f 349 347 356
f 349 356 357
f 345 350 346
f 346 352 358
f 358 352 354
f 358 354 359
f 359 354 353
f 359 353 360
f 348 349 361
f 361 349 357
f 361 357 362
f 362 357 363
f 362 363 364
f 339 337 343
f 343 337 340
f 343 340 341
f 341 340 56
f 341 56 365
f 365 56 58
f 365 58 366
f 366 58 334
f 366 334 367
f 367 334 344
f 367 344 368
f 368 344 108
f 368 108 88
f 88 108 110
f 88 110 86
f 369 370 371
f 347 346 358
f 347 358 356
f 356 358 359
f 356 359 357
f 357 359 360
f 357 360 363
f 363 360 364
f 372 369 373
f 373 369 371
f 373 371 374
f 374 371 375
f 376 374 377
f 377 374 375
f 377 375 378
f 379 378 371
f 371 378 375
f 376 192 72
f 72 192 194
f 72 194 73
f 351 338 342
f 351 342 352
f 352 342 341
f 352 341 355
f 355 341 365
f 355 365 380
f 380 365 366
f 380 366 381
f 381 366 367
f 381 367 382
f 382 367 368
f 382 368 383
f 383 368 88
f 383 88 384
f 384 88 87
f 384 87 385
f 386 387 388
f 388 387 389
f 388 389 390
f 390 389 391
f 390 391 392
f 392 391 393
f 392 393 394
f 394 393 395
f 394 395 396
f 396 395 397
f 396 397 398
f 398 397 399
f 398 399 400
f 400 399 401
f 402 403 404
f 405 406 407
f 407 406 408
f 407 408 409
f 408 404 409
f 409 404 403
f 409 403 407
f 407 403 410
f 407 410 405
f 405 410 411
f 405 411 412
f 412 411 413
f 412 413 414
f 203 73 193
f 193 73 194
f 192 376 190
f 190 376 377
f 190 377 188
f 188 377 378
f 188 378 186
f 186 378 415
f 186 415 184
f 184 415 416
f 184 416 182
f 182 416 417
f 182 417 180
f 180 417 418
f 180 418 419
f 419 418 55
f 419 55 420
f 420 55 54
f 420 54 386
f 386 54 53
f 386 53 387
f 387 53 421
f 387 421 389
f 389 421 422
f 389 422 391
f 391 422 423
f 391 423 393
f 393 423 424
f 393 424 395
f 395 424 425
f 395 425 397
f 397 425 402
f 397 402 399
f 399 402 404
f 399 404 401
f 401 404 408
f 401 408 426
f 426 408 406
f 426 406 427
f 427 406 428
f 428 406 405
f 428 405 429
f 429 405 412
f 429 412 430
f 430 412 414
f 430 414 431
f 379 432 378
f 378 432 433
f 378 433 415
f 415 433 434
f 415 434 416
f 416 434 435
f 416 435 417
f 417 435 436
f 417 436 418
f 418 436 437
f 418 437 55
f 55 437 438
f 55 438 53
f 53 438 439
f 53 439 421
f 421 439 440
f 421 440 422
f 422 440 441
f 422 441 423
f 423 441 442
f 423 442 424
f 424 442 443
f 424 443 425
f 425 443 444
f 425 444 402
f 402 444 103
f 402 103 403
f 403 103 105
f 403 105 410
f 410 105 107
f 410 107 411
f 411 107 445
f 411 445 413
f 413 445 446
f 413 446 414
f 414 446 447
f 414 447 431
f 431 447 448
f 97 89 101
f 101 89 91
f 101 91 50
f 50 91 95
f 50 95 51
f 449 450 451
f 451 450 452
f 451 452 453
f 322 323 454
f 454 323 325
f 454 325 451
f 451 325 455
f 451 455 449
f 456 452 457
f 457 452 450
f 457 450 458
f 458 450 449
f 458 449 459
f 460 461 61
f 61 461 462
f 61 462 59
f 59 462 463
f 59 463 335
f 335 463 464
f 335 464 336
f 372 465 460
f 460 465 459
f 460 459 461
f 461 459 449
f 461 449 462
f 462 449 455
f 462 455 463
f 463 455 325
f 463 325 464
f 464 325 327
f 464 327 336
f 448 466 431
f 431 466 467
f 431 467 430
f 430 467 468
f 430 468 429
f 429 468 469
f 429 469 428
f 428 469 470
f 428 470 427
f 427 470 471
f 427 471 426
f 426 471 472
f 426 472 401
f 401 472 473
f 401 473 400
f 400 473 474
f 400 474 398
f 398 474 475
f 398 475 396
f 396 475 476
f 396 476 394
f 394 476 477
f 394 477 392
f 392 477 478
f 392 478 390
f 390 478 479
f 390 479 388
f 388 479 480
f 388 480 386
f 386 480 481
f 386 481 420
f 420 481 482
f 420 482 419
f 419 482 483
f 419 483 180
f 180 483 484
f 180 484 181
f 181 484 271
f 181 271 204
f 204 271 68
f 204 68 205
f 205 68 70
f 205 70 206
f 206 70 321
f 206 321 207
f 207 321 64
f 207 64 208
f 208 64 63
f 466 485 467
f 467 485 486
f 467 486 468
f 468 486 487
f 468 487 469
f 469 487 488
f 469 488 470
f 470 488 489
f 470 489 471
f 471 489 490
f 471 490 472
f 472 490 491
f 472 491 473
f 473 491 492
f 473 492 474
f 474 492 493
f 474 493 475
f 475 493 494
f 475 494 476
f 476 494 495
f 476 495 477
f 477 495 496
f 477 496 478
f 478 496 497
f 478 497 479
f 479 497 498
f 479 498 480
f 480 498 499
f 480 499 481
f 481 499 500
f 481 500 482
f 485 501 486
f 486 501 502
f 486 502 487
f 487 502 503
f 487 503 488
f 488 503 504
f 488 504 489
f 489 504 505
f 489 505 490
f 490 505 506
f 490 506 491
f 491 506 507
f 491 507 492
f 492 507 508
f 492 508 493
f 493 508 509
f 493 509 494
f 494 509 510
f 494 510 495
f 495 510 511
f 495 511 496
f 496 511 512
f 496 512 497
f 497 512 513
f 497 513 498
f 498 513 514
f 498 514 499
f 499 514 515
f 499 515 500
f 500 515 516
f 500 516 482
f 482 516 517
f 482 517 483
f 483 517 518
f 483 518 484
f 48 519 49
f 49 519 520
f 49 520 52
f 93 456 94
f 94 456 457
f 94 457 95
f 95 457 458
f 95 458 51
f 51 458 459
f 51 459 52
f 52 459 465
f 52 465 49
f 49 465 372
f 49 372 47
f 47 372 373
f 453 521 451
f 451 521 123
f 451 123 454
f 454 123 121
f 454 121 322
f 336 327 337
f 338 351 60
f 60 351 350
f 60 350 345
f 60 345 61
f 61 345 348
f 61 348 460
f 460 348 361
f 460 361 372
f 372 361 362
f 372 362 369
f 369 362 364
f 369 364 370
f 370 364 379
f 370 379 371
f 252 254 250
f 250 254 255
f 250 255 248
f 248 255 134
f 248 134 283
f 283 134 136
f 283 136 285
f 285 136 138
f 285 138 286
f 286 138 140
f 286 140 143
f 143 140 167
f 143 167 141
f 141 167 144
f 141 144 318
f 318 144 44
f 318 44 292
f 292 44 43
f 292 43 291
f 291 43 299
f 291 299 289
f 289 299 300
f 289 300 288
f 288 300 301
f 288 301 287
f 287 301 302
f 287 302 317
f 317 302 303
f 317 303 316
f 316 303 304
f 316 304 315
f 315 304 309
f 42 30 67
f 67 30 263
f 67 263 65
f 65 263 266
f 65 266 265
f 65 265 63
f 63 265 264
f 63 264 208
f 208 264 269
f 208 269 201
f 201 269 196
f 201 196 202
f 76 71 74
f 74 71 73
f 74 73 195
f 195 73 203
f 195 203 197
f 197 203 202
f 197 202 198
f 198 202 196
f 196 268 199
f 199 268 270
f 199 270 200
f 200 270 259
f 200 259 179
f 179 259 261
f 179 261 176
f 176 261 263
f 176 263 177
f 177 263 30
f 177 30 32
f 106 522 107
f 107 522 523
f 107 523 445
f 445 523 99
f 445 99 446
f 446 99 101
f 446 101 447
f 447 101 50
f 447 50 448
f 448 50 52
f 448 52 466
f 466 52 520
f 466 520 485
f 485 520 519
f 485 519 501
f 501 519 239
f 501 239 502
f 502 239 238
f 502 238 503
f 503 238 236
f 503 236 504
f 504 236 234
f 504 234 505
f 505 234 232
f 505 232 506
f 506 232 230
f 506 230 507
f 507 230 228
f 507 228 508
f 508 228 226
f 508 226 509
f 509 226 224
f 509 224 510
f 510 224 222
f 510 222 511
f 511 222 220
f 511 220 512
f 512 220 218
f 512 218 513
f 513 218 216
f 513 216 514
f 514 216 214
f 514 214 515
f 515 214 212
f 515 212 516
f 516 212 210
f 516 210 517
f 517 210 209
f 517 209 518
f 385 440 384
f 384 440 439
f 384 439 383
f 383 439 438
f 383 438 382
f 382 438 437
f 382 437 381
f 381 437 436
f 381 436 380
f 380 436 435
f 380 435 355
f 355 435 434
f 355 434 353
f 353 434 433
f 353 433 360
f 360 433 432
f 360 432 364
f 364 432 379
f 374 376 373
f 373 376 72
f 373 72 47
f 47 72 71
f 47 71 48
f 48 71 76
f 48 76 519
f 519 76 78
f 519 78 239
f 239 78 133
f 239 133 237
f 237 133 131
f 237 131 235
f 235 131 129
f 235 129 233
f 233 129 127
f 233 127 231
f 231 127 125
f 231 125 229
f 229 125 81
f 229 81 227
f 227 81 80
f 227 80 225
f 225 80 242
f 225 242 223
f 223 242 244
f 223 244 221
f 221 244 246
f 221 246 219
f 219 246 247
f 219 247 217
f 217 247 254
f 217 254 215
f 215 254 252
f 215 252 213
f 213 252 253
f 213 253 211
f 211 253 278
f 211 278 209
f 209 278 315
f 209 315 518
f 518 315 309
f 518 309 484
f 484 309 310
f 484 310 271
f 271 310 311
f 271 311 272
f 272 311 312
f 272 312 319
f 319 312 313
f 319 313 320
f 320 313 314
f 320 314 37
f 37 314 40
f 524 525 526
f 527 93 528
f 528 93 92
f 528 92 96
f 113 115 529
f 115 117 529
f 529 117 119
f 529 119 530
f 530 119 84
f 530 84 83
f 453 452 527
f 527 452 456
f 527 456 93
f 531 122 123
f 531 123 527
f 527 123 521
f 527 521 453
f 86 110 532
f 532 110 109
f 532 109 529
f 529 109 111
f 529 111 113
f 86 532 87
f 87 532 533
f 87 533 385
f 523 522 534
f 534 522 106
f 534 106 104
f 104 103 534
f 534 103 444
f 534 444 443
f 443 442 535
f 535 442 441
f 535 441 533
f 533 441 440
f 533 440 385
f 524 526 536
f 537 538 539
f 539 538 540
f 539 540 541
f 541 540 542
f 537 543 538
f 538 543 544
f 538 544 545
f 546 547 548
f 546 548 526
f 526 548 549
f 526 549 550
f 550 551 526
f 526 551 552
f 526 552 536
f 542 540 553
f 553 540 554
f 553 554 555
f 556 557 558
f 558 557 559
f 558 559 560
f 560 561 558
f 558 561 562
f 558 562 563
f 563 564 565
f 565 564 566
f 566 567 565
f 565 567 568
f 565 568 554
f 554 568 569
f 554 569 555
f 563 565 558
f 558 565 570
f 558 570 571
f 571 570 572
f 571 572 573
f 573 572 574
f 573 574 575
f 575 574 530
f 575 530 531
f 531 530 83
f 531 83 122
f 443 535 534
f 534 535 576
f 534 576 577
f 577 576 578
f 577 578 579
f 579 578 580
f 579 580 581
f 581 580 538
f 581 538 546
f 546 538 545
f 546 545 547
f 582 535 583
f 583 535 533
f 583 533 584
f 584 533 532
f 584 532 585
f 585 532 529
f 585 529 586
f 529 530 586
f 586 530 574
f 586 574 587
f 587 574 572
f 587 572 588
f 588 572 570
f 588 570 589
f 589 570 565
f 589 565 590
f 565 554 590
f 590 554 540
f 590 540 591
f 591 540 538
f 591 538 592
f 592 538 580
f 592 580 593
f 593 580 578
f 593 578 582
f 582 578 576
f 582 576 535
f 594 575 595
f 595 575 531
f 595 531 596
f 596 531 527
f 596 527 597
f 597 527 528
f 597 528 96
f 98 598 89
f 89 598 597
f 89 597 90
f 90 597 96
f 599 558 600
f 600 558 571
f 600 571 594
f 594 571 573
f 594 573 575
f 98 97 598
f 598 97 102
f 598 102 100
f 100 99 598
f 598 99 523
f 598 523 601
f 601 523 534
f 601 534 602
f 534 577 602
f 602 577 579
f 602 579 603
f 603 579 581
f 603 581 604
f 604 581 546
f 604 546 605
f 605 546 526
f 605 526 525
f 606 599 607
f 607 599 608
f 607 608 609
f 525 610 605
f 605 610 611
f 605 611 608
f 608 611 612
f 608 612 609
f 606 613 599
f 599 613 614
f 599 614 558
f 558 614 615
f 558 615 556
f 616 617 618
f 619 620 621
f 621 620 622
f 621 622 623
f 623 622 624
f 623 624 625
f 625 624 626
f 625 626 627
f 627 626 628
f 627 628 629
f 629 628 630
f 630 628 631
f 630 631 618
f 618 631 632
f 618 632 616
f 633 619 621
f 634 635 636
f 636 635 616
f 636 616 637
f 637 616 632
f 638 639 640
f 641 642 643
f 644 645 646
f 647 648 649
f 650 651 652
f 653 654 655
f 656 657 658
f 659 660 661
f 662 663 664
f 665 666 667
f 668 669 667
f 670 630 618
f 671 672 673
f 545 544 674
f 567 675 676
f 615 614 677
f 677 614 678
f 561 560 679
f 679 560 559
f 679 559 680
f 680 559 557
f 680 557 677
f 677 557 556
f 677 556 615
f 675 567 681
f 681 567 566
f 681 566 682
f 682 566 564
f 682 564 683
f 683 564 563
f 683 563 684
f 685 553 555
f 542 686 541
f 541 686 687
f 541 687 539
f 539 687 688
f 539 688 537
f 537 688 689
f 537 689 543
f 543 689 690
f 545 691 692
f 545 692 547
f 547 692 548
f 536 552 693
f 611 610 642
f 642 610 525
f 642 525 524
f 641 613 606
f 606 607 641
f 641 607 609
f 641 609 642
f 642 609 612
f 642 612 611
f 673 672 694
f 694 672 695
f 694 695 696
f 696 695 697
f 696 697 698
f 698 697 699
f 698 699 700
f 700 699 701
f 700 701 702
f 702 701 703
f 702 703 669
f 704 705 706
f 706 705 707
f 706 707 708
f 708 707 709
f 708 709 710
f 711 712 713
f 635 714 616
f 616 714 715
f 616 715 617
f 617 715 716
f 617 716 618
f 717 718 670
f 710 709 719
f 719 709 720
f 719 720 721
f 721 720 722
f 721 722 723
f 723 722 724
f 723 724 725
f 725 724 726
f 725 726 727
f 727 726 728
f 727 728 729
f 729 728 730
f 729 730 668
f 667 666 668
f 668 666 731
f 668 731 729
f 729 731 732
f 729 732 727
f 727 732 733
f 727 733 725
f 725 733 734
f 725 734 723
f 723 734 735
f 723 735 721
f 721 735 736
f 721 736 719
f 719 736 737
f 719 737 710
f 738 718 739
f 739 718 717
f 739 717 740
f 716 741 618
f 618 741 742
f 618 742 670
f 670 742 743
f 670 743 717
f 717 743 744
f 717 744 740
f 744 745 740
f 740 745 746
f 740 746 739
f 739 746 747
f 739 747 738
f 748 749 746
f 630 670 629
f 629 670 718
f 629 718 627
f 627 718 738
f 627 738 625
f 625 738 747
f 625 747 623
f 750 751 752
f 752 751 753
f 752 753 754
f 754 753 755
f 754 755 756
f 756 755 757
f 756 757 758
f 758 757 759
f 758 759 760
f 760 759 761
f 760 761 762
f 762 761 763
f 762 763 664
f 714 737 715
f 715 737 736
f 715 736 716
f 716 736 735
f 716 735 741
f 741 735 734
f 741 734 742
f 742 734 733
f 742 733 743
f 743 733 732
f 743 732 744
f 744 732 731
f 744 731 745
f 745 731 666
f 745 666 746
f 746 666 665
f 746 665 748
f 748 665 764
f 748 764 765
f 765 764 766
f 766 764 767
f 766 767 768
f 766 769 765
f 765 769 770
f 765 770 748
f 748 770 771
f 748 771 749
f 757 772 759
f 759 772 768
f 759 768 761
f 761 768 773
f 761 773 763
f 763 773 664
f 770 774 771
f 771 774 775
f 771 775 776
f 751 777 753
f 753 777 778
f 753 778 755
f 755 778 779
f 755 779 757
f 757 779 780
f 757 780 772
f 772 780 781
f 782 783 784
f 784 783 785
f 784 785 786
f 786 785 787
f 786 787 788
f 788 787 789
f 788 789 790
f 790 789 791
f 790 791 792
f 792 791 793
f 792 793 794
f 794 793 795
f 794 795 796
f 796 795 797
f 796 797 798
f 798 797 799
f 798 799 800
f 800 799 801
f 800 801 802
f 802 801 803
f 802 803 804
f 804 803 805
f 804 805 806
f 806 805 807
f 806 807 808
f 808 807 809
f 808 809 810
f 810 809 811
f 810 811 812
f 673 813 671
f 671 813 814
f 671 814 815
f 815 814 816
f 815 816 817
f 817 816 818
f 817 818 819
f 819 818 820
f 821 822 823
f 823 822 824
f 823 824 825
f 825 824 826
f 827 820 828
f 828 820 818
f 828 818 829
f 829 818 816
f 829 816 830
f 830 816 814
f 830 814 831
f 831 814 813
f 832 833 834
f 834 833 835
f 775 835 776
f 776 835 833
f 776 833 836
f 836 833 832
f 836 832 837
f 838 839 840
f 840 839 841
f 840 834 838
f 774 769 842
f 774 842 775
f 775 842 838
f 775 838 835
f 835 838 834
f 834 840 832
f 832 840 841
f 832 841 837
f 843 844 659
f 656 845 846
f 654 653 845
f 845 653 847
f 845 847 846
f 633 658 619
f 619 658 657
f 656 846 657
f 657 846 847
f 657 847 619
f 619 847 653
f 619 653 620
f 620 653 655
f 620 655 622
f 848 849 850
f 851 826 852
f 852 826 824
f 852 824 853
f 853 824 822
f 853 822 854
f 854 822 821
f 854 821 855
f 855 821 856
f 855 856 857
f 857 856 858
f 857 858 712
f 712 858 859
f 712 859 713
f 860 848 861
f 861 848 850
f 861 850 862
f 862 850 863
f 862 863 864
f 864 863 865
f 636 637 866
f 866 637 867
f 866 867 868
f 868 867 869
f 868 869 870
f 870 869 871
f 634 636 872
f 872 636 866
f 872 866 873
f 873 866 868
f 873 868 874
f 874 868 870
f 874 870 875
f 875 870 871
f 875 871 876
f 877 876 878
f 878 876 871
f 878 871 879
f 879 871 869
f 879 869 880
f 880 869 867
f 880 867 881
f 881 867 637
f 881 637 632
f 882 877 883
f 883 877 878
f 883 878 884
f 884 878 879
f 884 879 885
f 885 879 880
f 885 880 886
f 886 880 881
f 886 881 887
f 887 881 632
f 887 632 631
f 888 851 889
f 889 851 852
f 889 852 890
f 890 852 853
f 890 853 860
f 860 853 854
f 860 854 848
f 848 854 855
f 848 855 849
f 849 855 857
f 849 857 850
f 850 857 712
f 850 712 863
f 863 712 711
f 863 711 865
f 865 711 891
f 659 844 660
f 660 844 892
f 660 892 893
f 655 894 622
f 622 894 661
f 622 661 624
f 624 661 660
f 624 660 626
f 626 660 893
f 626 893 628
f 669 668 702
f 702 668 730
f 702 730 700
f 700 730 728
f 700 728 698
f 698 728 726
f 698 726 696
f 696 726 724
f 696 724 694
f 694 724 722
f 694 722 673
f 673 722 720
f 673 720 813
f 813 720 709
f 813 709 831
f 831 709 707
f 831 707 830
f 830 707 705
f 830 705 829
f 829 705 704
f 829 704 828
f 691 895 692
f 896 897 898
f 898 897 899
f 898 899 900
f 901 897 902
f 903 902 895
f 903 895 674
f 674 895 691
f 674 691 545
f 901 902 903
f 904 900 899
f 905 906 907
f 648 906 649
f 649 906 905
f 649 905 908
f 909 651 650
f 909 650 910
f 910 650 911
f 910 911 912
f 912 911 913
f 900 904 912
f 914 912 904
f 901 904 899
f 901 899 897
f 544 690 674
f 674 690 907
f 674 907 903
f 903 907 906
f 903 906 901
f 901 906 648
f 901 648 904
f 904 648 647
f 904 647 914
f 915 916 917
f 917 916 918
f 544 543 690
f 907 690 689
f 907 689 905
f 905 689 688
f 905 688 908
f 908 688 687
f 908 687 919
f 919 687 686
f 920 921 922
f 923 924 925
f 920 916 921
f 921 916 926
f 921 926 927
f 928 929 930
f 930 929 926
f 924 931 925
f 925 931 932
f 925 932 933
f 933 932 934
f 933 934 935
f 924 927 931
f 924 922 921
f 924 921 927
f 931 927 936
f 931 936 932
f 932 936 937
f 932 937 934
f 935 934 938
f 935 938 939
f 927 926 936
f 936 926 929
f 936 929 937
f 937 929 928
f 937 928 938
f 923 925 940
f 940 925 933
f 940 933 941
f 941 933 935
f 941 935 942
f 942 935 939
f 942 939 943
f 917 912 914
f 917 914 915
f 915 914 647
f 915 647 944
f 944 647 649
f 944 649 945
f 945 649 908
f 945 908 946
f 946 908 919
f 946 919 947
f 947 919 686
f 947 686 685
f 685 686 542
f 685 542 553
f 948 943 949
f 934 937 938
f 939 950 943
f 943 950 951
f 952 948 953
f 953 948 949
f 953 949 954
f 954 949 955
f 956 957 958
f 950 958 951
f 951 958 957
f 957 956 954
f 954 956 959
f 959 960 663
f 663 960 762
f 663 762 664
f 920 918 916
f 926 916 915
f 926 915 930
f 930 915 944
f 930 944 961
f 961 944 945
f 961 945 962
f 962 945 946
f 962 946 963
f 963 946 947
f 963 947 964
f 964 947 685
f 964 685 965
f 965 685 555
f 965 555 569
f 950 966 958
f 958 966 967
f 958 967 968
f 968 967 969
f 968 969 970
f 970 969 971
f 970 971 972
f 972 971 973
f 972 973 974
f 974 973 975
f 974 975 646
f 646 975 976
f 646 976 644
f 644 976 977
f 644 977 676
f 676 977 568
f 676 568 567
f 978 979 980
f 980 979 981
f 980 981 982
f 982 981 983
f 982 983 984
f 984 983 985
f 984 985 986
f 986 985 987
f 986 987 988
f 988 987 989
f 988 989 990
f 990 989 991
f 990 991 992
f 992 991 993
f 684 994 995
f 996 997 998
f 998 997 999
f 998 999 1000
f 999 995 1000
f 1000 995 994
f 1000 994 998
f 998 994 1001
f 998 1001 996
f 996 1001 1002
f 996 1002 1003
f 1003 1002 1004
f 1003 1004 1005
f 762 960 760
f 760 960 959
f 760 959 956
f 760 956 758
f 758 956 958
f 758 958 756
f 756 958 968
f 756 968 754
f 754 968 970
f 754 970 752
f 752 970 972
f 752 972 750
f 750 972 974
f 750 974 1006
f 1006 974 646
f 1006 646 1007
f 1007 646 645
f 1007 645 978
f 978 645 644
f 978 644 979
f 979 644 676
f 979 676 981
f 981 676 675
f 981 675 983
f 983 675 681
f 983 681 985
f 985 681 682
f 985 682 987
f 987 682 683
f 987 683 989
f 989 683 684
f 989 684 991
f 991 684 995
f 991 995 993
f 993 995 999
f 993 999 1008
f 1008 999 997
f 1008 997 1009
f 1009 997 1010
f 1010 997 996
f 1010 996 1011
f 1011 996 1003
f 1011 1003 1012
f 1012 1003 1005
f 1012 1005 1013
f 563 562 684
f 684 562 561
f 684 561 994
f 994 561 679
f 994 679 1001
f 1001 679 680
f 1001 680 1002
f 1002 680 677
f 1002 677 1004
f 1004 677 678
f 1004 678 1005
f 1005 678 1014
f 1005 1014 1013
f 1013 1014 1015
f 524 1016 642
f 642 1016 1017
f 642 1017 643
f 643 1017 1018
f 643 1018 1019
f 1020 1021 1022
f 895 896 1023
f 1023 896 898
f 1023 898 1022
f 1022 898 1024
f 1022 1024 1020
f 693 1021 1025
f 1025 1021 1020
f 1025 1020 1026
f 1027 1028 652
f 652 1028 1029
f 652 1029 650
f 650 1029 1030
f 650 1030 911
f 911 1030 1031
f 911 1031 913
f 952 1032 1027
f 1027 1032 1026
f 1027 1026 1028
f 1028 1026 1020
f 1028 1020 1029
f 1029 1020 1024
f 1029 1024 1030
f 1030 1024 898
f 1030 898 1031
f 1031 898 900
f 1031 900 913
f 1015 1033 1013
f 1013 1033 1034
f 1013 1034 1012
f 1012 1034 1035
f 1012 1035 1011
f 1011 1035 1036
f 1011 1036 1010
f 1010 1036 1037
f 1010 1037 1009
f 1009 1037 1038
f 1009 1038 1008
f 1008 1038 1039
f 1008 1039 993
f 993 1039 1040
f 993 1040 992
f 992 1040 1041
f 992 1041 990
f 990 1041 1042
f 990 1042 988
f 988 1042 1043
f 988 1043 986
f 986 1043 1044
f 986 1044 984
f 984 1044 1045
f 984 1045 982
f 982 1045 1046
f 982 1046 980
f 980 1046 1047
f 980 1047 978
f 978 1047 1048
f 978 1048 1007
f 1007 1048 1049
f 1007 1049 1006
f 1006 1049 1050
f 1006 1050 750
f 750 1050 1051
f 750 1051 751
f 751 1051 843
f 751 843 777
f 777 843 659
f 777 659 778
f 778 659 661
f 778 661 779
f 779 661 894
f 779 894 780
f 780 894 655
f 780 655 781
f 781 655 654
f 1033 1052 1034
f 1034 1052 1053
f 1034 1053 1035
f 1035 1053 1054
f 1035 1054 1036
f 1036 1054 1055
f 1036 1055 1037
f 1037 1055 1056
f 1037 1056 1038
f 1038 1056 1057
f 1038 1057 1039
f 1039 1057 1058
f 1039 1058 1040
f 1040 1058 1059
f 1040 1059 1041
f 1041 1059 1060
f 1041 1060 1042
f 1042 1060 1061
f 1042 1061 1043
f 1043 1061 1062
f 1043 1062 1044
f 1044 1062 1063
f 1044 1063 1045
f 1045 1063 1064
f 1045 1064 1046
f 1046 1064 1065
f 1046 1065 1047
f 1047 1065 1066
f 1047 1066 1048
f 1048 1066 1067
f 1048 1067 1049
f 1052 1068 1053
f 1053 1068 1069
f 1053 1069 1054
f 1054 1069 1070
f 1054 1070 1055
f 1055 1070 1071
f 1055 1071 1056
f 1056 1071 1072
f 1056 1072 1057
f 1057 1072 1073
f 1057 1073 1058
f 1058 1073 1074
f 1058 1074 1059
f 1059 1074 1075
f 1059 1075 1060
f 1060 1075 1076
f 1060 1076 1061
f 1061 1076 1077
f 1061 1077 1062
f 1062 1077 1078
f 1062 1078 1063
f 1063 1078 1079
f 1063 1079 1064
f 1064 1079 1080
f 1064 1080 1065
f 1065 1080 1081
f 1065 1081 1066
f 1066 1081 1082
f 1066 1082 1067
f 1067 1082 1083
f 1067 1083 1049
f 1049 1083 1084
f 1049 1084 1050
f 1050 1084 1085
f 1050 1085 1051
f 639 1086 640
f 640 1086 1087
f 640 1087 1019
f 524 536 1016
f 1016 536 693
f 1016 693 1017
f 1017 693 1025
f 1017 1025 1018
f 1018 1025 1026
f 1018 1026 1019
f 1019 1026 1032
f 1019 1032 640
f 640 1032 952
f 640 952 638
f 638 952 953
f 552 551 693
f 693 551 550
f 693 550 1021
f 1021 550 549
f 1021 549 1022
f 1022 549 548
f 1022 548 1023
f 1023 548 692
f 1023 692 895
f 896 895 902
f 896 902 897
f 913 900 912
f 912 917 910
f 910 917 918
f 910 918 909
f 909 918 920
f 909 920 651
f 651 920 922
f 651 922 924
f 651 924 652
f 652 924 923
f 652 923 1027
f 1027 923 940
f 1027 940 952
f 952 940 941
f 952 941 948
f 948 941 942
f 948 942 943
f 949 943 951
f 949 951 955
f 825 827 823
f 823 827 828
f 823 828 821
f 821 828 704
f 821 704 856
f 856 704 706
f 856 706 858
f 858 706 708
f 858 708 859
f 859 708 710
f 859 710 713
f 713 710 737
f 713 737 711
f 711 737 714
f 711 714 891
f 891 714 635
f 891 635 865
f 865 635 634
f 865 634 864
f 864 634 872
f 864 872 862
f 862 872 873
f 862 873 861
f 861 873 874
f 861 874 860
f 860 874 875
f 860 875 890
f 890 875 876
f 890 876 889
f 889 876 877
f 889 877 888
f 888 877 882
f 633 621 658
f 658 621 837
f 658 837 656
f 656 837 841
f 656 841 845
f 845 841 839
f 845 839 654
f 654 839 838
f 654 838 781
f 781 838 842
f 781 842 772
f 772 842 769
f 772 769 768
f 667 662 665
f 665 662 664
f 665 664 764
f 764 664 773
f 764 773 767
f 767 773 768
f 766 768 769
f 769 774 770
f 771 776 749
f 749 776 836
f 749 836 746
f 746 836 837
f 746 837 747
f 747 837 621
f 747 621 623
f 614 613 678
f 678 613 641
f 678 641 1014
f 1014 641 643
f 1014 643 1015
f 1015 643 1019
f 1015 1019 1033
f 1033 1019 1087
f 1033 1087 1052
f 1052 1087 1086
f 1052 1086 1068
f 1068 1086 812
f 1068 812 1069
f 1069 812 811
f 1069 811 1070
f 1070 811 809
f 1070 809 1071
f 1071 809 807
f 1071 807 1072
f 1072 807 805
f 1072 805 1073
f 1073 805 803
f 1073 803 1074
f 1074 803 801
f 1074 801 1075
f 1075 801 799
f 1075 799 1076
f 1076 799 797
f 1076 797 1077
f 1077 797 795
f 1077 795 1078
f 1078 795 793
f 1078 793 1079
f 1079 793 791
f 1079 791 1080
f 1080 791 789
f 1080 789 1081
f 1081 789 787
f 1081 787 1082
f 1082 787 785
f 1082 785 1083
f 1083 785 783
f 1083 783 1084
f 1084 783 782
f 1084 782 1085
f 569 568 965
f 965 568 977
f 965 977 964
f 964 977 976
f 964 976 963
f 963 976 975
f 963 975 962
f 962 975 973
f 962 973 961
f 961 973 971
f 961 971 930
f 930 971 969
f 930 969 928
f 928 969 967
f 928 967 938
f 938 967 966
f 938 966 939
f 939 966 950
f 951 957 955
f 955 957 954
f 954 959 953
f 953 959 663
f 953 663 638
f 638 663 662
f 638 662 639
f 639 662 667
f 639 667 1086
f 1086 667 669
f 1086 669 812
f 812 669 703
f 812 703 810
f 810 703 701
f 810 701 808
f 808 701 699
f 808 699 806
f 806 699 697
f 806 697 804
f 804 697 695
f 804 695 802
f 802 695 672
f 802 672 800
f 800 672 671
f 800 671 798
f 798 671 815
f 798 815 796
f 796 815 817
f 796 817 794
f 794 817 819
f 794 819 792
f 792 819 820
f 792 820 790
f 790 820 827
f 790 827 788
f 788 827 825
f 788 825 786
f 786 825 826
f 786 826 784
f 784 826 851
f 784 851 782
f 782 851 888
f 782 888 1085
f 1085 888 882
f 1085 882 1051
f 1051 882 883
f 1051 883 843
f 843 883 884
f 843 884 844
f 844 884 885
f 844 885 892
f 892 885 886
f 892 886 893
f 893 886 887
f 893 887 628
f 628 887 631
f 1088 1089 14
f 14 1089 1090
f 14 1090 16
f 16 1090 1091
f 16 1091 18
f 18 1091 1092
f 18 1092 20
f 20 1092 1093
f 20 1093 22
f 22 1093 1094
f 22 1094 24
f 24 1094 1095
f 24 1095 2
f 2 1095 1096
f 2 1096 4
f 4 1096 1097
f 4 1097 6
f 6 1097 1098
f 6 1098 8
f 8 1098 1099
f 8 1099 10
f 10 1099 1100
f 10 1100 12
f 12 1100 1088
f 12 1088 14
f 1096 597 1097
f 1097 597 598
f 1097 598 1098
f 1098 598 601
f 1098 601 1099
f 1099 601 602
f 1099 602 1100
f 1100 602 603
f 1100 603 1088
f 1088 603 604
f 1088 604 1089
f 1089 604 605
f 1089 605 1090
f 1090 605 608
f 1090 608 1091
f 1091 608 599
f 1091 599 1092
f 1092 599 600
f 1092 600 1093
f 1093 600 594
f 1093 594 1094
f 1094 594 595
f 1094 595 1095
f 1095 595 596
f 1095 596 1096
f 1096 596 597
f 23 1101 21
f 21 1101 1102
f 21 1102 19
f 19 1102 1103
f 19 1103 17
f 17 1103 1104
f 17 1104 15
f 15 1104 1105
f 15 1105 13
f 13 1105 1106
f 13 1106 11
f 11 1106 1107
f 11 1107 9
f 9 1107 1108
f 9 1108 7
f 7 1108 1109
f 7 1109 5
f 5 1109 1110
f 5 1110 3
f 3 1110 1111
f 3 1111 1
f 1 1111 1112
f 1 1112 23
f 23 1112 1101
f 1106 590 1107
f 1107 590 591
f 1107 591 1108
f 1108 591 592
f 1108 592 1109
f 1109 592 593
f 1109 593 1110
f 1110 593 582
f 1110 582 1111
f 1111 582 583
f 1111 583 1112
f 1112 583 584
f 1112 584 1101
f 1101 584 585
f 1101 585 1102
f 1102 585 586
f 1102 586 1103
f 1103 586 587
f 1103 587 1104
f 1104 587 588
f 1104 588 1105
f 1105 588 589
f 1105 589 1106
f 1106 589 590

