# https://github.com/mikedh/trimesh

o m4_link-mesh
v -0.00006212 -0.00094596 0.00022120
v -0.00006212 -0.00094596 0.00000000
v -0.00052678 -0.00078817 0.00022120
v -0.00052678 -0.00078817 0.00000000
v -0.00085029 -0.00041918 0.00022120
v -0.00085029 -0.00041918 0.00000000
v -0.00094596 0.00006212 0.00022120
v -0.00094596 0.00006212 0.00000000
v -0.00078817 0.00052678 0.00022120
v -0.00078817 0.00052678 0.00000000
v -0.00041918 0.00085029 0.00022120
v -0.00041918 0.00085029 0.00000000
v 0.00006212 0.00094596 0.00022120
v 0.00006212 0.00094596 0.00000000
v 0.00052678 0.00078817 0.00022120
v 0.00052678 0.00078817 0.00000000
v 0.00085029 0.00041918 0.00022120
v 0.00085029 0.00041918 0.00000000
v 0.00094596 -0.00006212 0.00022120
v 0.00094596 -0.00006212 0.00000000
v 0.00078817 -0.00052678 0.00022120
v 0.00078817 -0.00052678 0.00000000
v 0.00041918 -0.00085029 0.00022120
v 0.00041918 -0.00085029 0.00000000
v -0.00598806 -0.01911425 0.00037060
v -0.00585818 -0.01912277 0.00032825
v -0.00582188 -0.01912516 0.00036662
v -0.00551289 -0.01914548 0.00035043
v -0.00565904 -0.01913589 0.00027759
v -0.00541615 -0.01915180 0.00024507
v -0.00521570 -0.01916497 0.00033150
v -0.00525647 -0.01916229 0.00025720
v -0.00522560 -0.01916432 0.00026498
v -0.00598544 -0.01911443 0.00037856
v -0.00600177 -0.01911336 0.00037904
v -0.00600451 -0.01911318 0.00037869
v -0.00517702 -0.01916754 0.00028804
v -0.00516838 -0.01916807 0.00029948
v -0.00516760 -0.01916813 0.00030502
v -0.00516981 -0.01916801 0.00031072
v -0.00517273 -0.01916778 0.00031435
v -0.00518429 -0.01916706 0.00028249
v -0.00518119 -0.01916724 0.00032065
v -0.00518638 -0.01916688 0.00032308
v 0.00049513 -0.00674051 -0.00068308
v 0.00044238 -0.00731283 -0.00068932
v 0.00044044 -0.00731265 -0.00069491
v 0.00056420 -0.00559860 -0.00060325
v 0.00056447 -0.00559860 -0.00060050
v 0.00053403 -0.00616890 -0.00064333
v 0.00061551 -0.00446206 -0.00050172
v 0.00062466 -0.00389630 -0.00042552
v 0.00062828 -0.00389653 -0.00042172
v 0.00052693 -0.00276750 -0.00010862
v 0.00025234 -0.00274950 -0.00000298
v 0.00005717 -0.00385904 -0.00008820
v 0.00063777 -0.00333476 -0.00028457
v 0.00065099 -0.00333559 -0.00030250
v 0.00070823 -0.00277942 -0.00023153
v 0.00064047 -0.00361556 -0.00037321
v 0.00063825 -0.00361544 -0.00037735
v 0.00065204 -0.00333571 -0.00033881
v 0.00067870 -0.00305754 -0.00029447
v 0.00070576 -0.00277924 -0.00025632
v 0.00070925 -0.00277948 -0.00024869
v 0.00003132 -0.00613588 -0.00061238
v -0.00042157 -0.00610614 -0.00046819
v -0.00011237 -0.00384790 -0.00029533
v -0.00431710 -0.01821905 0.00014601
v -0.00442612 -0.01821190 0.00012358
v -0.00358450 -0.01725959 0.00000667
v -0.00391495 -0.01723790 0.00000396
v -0.00335503 -0.01618576 -0.00006691
v -0.00575745 -0.01657980 0.00046225
v -0.00582278 -0.01711261 0.00044366
v -0.00582313 -0.01711261 0.00044662
v -0.00344312 -0.01052296 0.00026504
v -0.00236607 -0.01059365 -0.00010252
v -0.00302225 -0.01284265 -0.00004162
v -0.00479490 -0.01158374 0.00063866
v -0.00506657 -0.01270842 0.00059671
v -0.00506836 -0.01270830 0.00059876
v -0.00372511 -0.01776069 0.00020744
v -0.00374043 -0.01775968 0.00021573
v -0.00422335 -0.01822519 0.00025956
v -0.00191689 -0.01517182 -0.00010388
v -0.00190717 -0.01517248 -0.00009351
v -0.00253826 -0.01623940 0.00000663
v -0.00093560 -0.01183718 -0.00020014
v -0.00059911 -0.01070970 -0.00028547
v -0.00115186 -0.01067340 -0.00014666
v 0.00077708 -0.00190133 -0.00002807
v 0.00065803 -0.00277609 -0.00017685
v 0.00068680 -0.00277799 -0.00019950
v 0.00036337 -0.00219196 0.00006892
v -0.00013476 -0.00204957 0.00024919
v -0.00031364 -0.00202990 0.00030233
v -0.00015710 -0.00215781 0.00023460
v -0.00095839 -0.00181669 0.00039949
v -0.00071090 -0.00192702 0.00024480
v -0.00078762 -0.00211638 0.00028216
v 0.00070605 -0.00183564 -0.00012640
v 0.00075299 -0.00191098 -0.00012640
v 0.00059919 -0.00220746 -0.00020513
v 0.00031763 -0.00184005 -0.00012640
v 0.00040925 -0.00176865 -0.00012640
v 0.00036868 -0.00275713 -0.00027299
v 0.00063047 -0.00177222 -0.00012640
v 0.00054296 -0.00174218 -0.00012640
v 0.00047385 -0.00174463 -0.00012640
v -0.00110882 -0.00172895 0.00051198
v -0.00109196 -0.00173968 0.00049746
v -0.00119519 -0.00208962 0.00054840
v -0.00112730 -0.00209409 0.00050244
v -0.00133294 -0.00264537 0.00056736
v -0.00111341 -0.00172603 0.00051965
v -0.00120723 -0.00208884 0.00056010
v -0.00113153 -0.00180817 0.00052783
v -0.00120610 -0.00208890 0.00056204
v -0.00113016 -0.00180829 0.00053005
v -0.00111228 -0.00172675 0.00052127
v -0.00120300 -0.00208908 0.00056221
v -0.00119227 -0.00208980 0.00056031
v -0.00112718 -0.00180846 0.00053054
v -0.00110137 -0.00173372 0.00052204
v -0.00111020 -0.00172806 0.00052199
v -0.00092591 -0.00183344 0.00048064
v -0.00095657 -0.00181764 0.00048820
v -0.00106674 -0.00175524 0.00051522
v 0.00008123 -0.00205237 0.00018673
v 0.00025504 -0.00203806 0.00013916
v 0.00046655 -0.00200027 0.00008375
v 0.00068078 -0.00193787 0.00001842
v 0.00071166 -0.00192672 0.00000640
v 0.00079599 -0.00189346 -0.00004462
v 0.00076740 -0.00221848 -0.00012389
v 0.00080457 -0.00188982 -0.00005785
v 0.00079711 -0.00189298 -0.00009575
v 0.00080418 -0.00189000 -0.00008638
v 0.00076986 -0.00221866 -0.00015519
v 0.00072808 -0.00221592 -0.00018589
v 0.00076447 -0.00190639 -0.00012050
v 0.00079340 -0.00189453 -0.00009959
v -0.00032609 -0.01072764 -0.00036686
v -0.00066432 -0.01185500 -0.00027275
v -0.00019411 -0.01073628 -0.00041840
v -0.00086978 -0.01298403 -0.00027606
v -0.00109667 -0.01353836 -0.00022852
v -0.00086894 -0.01298409 -0.00028215
v -0.00109631 -0.01353842 -0.00023152
v -0.00134325 -0.01408839 -0.00017566
v -0.00134259 -0.01408845 -0.00017860
v -0.00134247 -0.01408845 -0.00018153
v -0.00137955 -0.01408600 -0.00014265
v -0.00192845 -0.01517111 -0.00005073
v -0.00161600 -0.01463299 -0.00011796
v -0.00190639 -0.01517254 -0.00007150
v -0.00161266 -0.01463317 -0.00012368
v -0.00190395 -0.01517266 -0.00007704
v -0.00161117 -0.01463329 -0.00012942
v -0.00190323 -0.01517271 -0.00008259
v -0.00133818 -0.01295328 -0.00011483
v -0.00148415 -0.01180112 -0.00007907
v -0.00186837 -0.01291847 -0.00001144
v -0.00225979 -0.01060062 0.00012159
v -0.00293070 -0.01284867 0.00018582
v -0.00253606 -0.01623952 0.00001678
v -0.00253707 -0.01623946 0.00002188
v -0.00253940 -0.01623934 0.00002692
v -0.00254726 -0.01623880 0.00003667
v -0.00255805 -0.01623809 0.00004564
v -0.00267631 -0.01623034 0.00009181
v -0.00258183 -0.01623654 0.00005981
v -0.00195634 -0.01516926 -0.00003499
v -0.00286591 -0.01676970 0.00006203
v -0.00286597 -0.01676970 0.00006687
v -0.00286710 -0.01676958 0.00007169
v -0.00286937 -0.01676946 0.00007644
v -0.00287253 -0.01676923 0.00008110
v -0.00369775 -0.01776248 0.00017361
v -0.00324273 -0.01728206 0.00012515
v -0.00324803 -0.01728171 0.00013377
v -0.00288099 -0.01676869 0.00008992
v -0.00325567 -0.01728123 0.00014181
v -0.00326455 -0.01728063 0.00014897
v -0.00094870 -0.01297885 -0.00022159
v -0.00140989 -0.01408398 -0.00012745
v -0.00152945 -0.01407617 -0.00008796
v -0.00206470 -0.01516211 0.00000145
v -0.00229067 -0.01514726 0.00004912
v -0.00287372 -0.01621735 0.00013083
v -0.00274700 -0.01511734 0.00011850
v -0.00327271 -0.01619118 0.00018328
v -0.00419742 -0.01822692 0.00021529
v -0.00369817 -0.01776242 0.00016575
v -0.00324124 -0.01728218 0.00012071
v -0.00324237 -0.01728206 0.00010728
v -0.00324106 -0.01728218 0.00011174
v -0.00324070 -0.01728218 0.00011623
v -0.00420481 -0.01822644 0.00020297
v -0.00324720 -0.01728177 0.00009850
v -0.00371063 -0.01776164 0.00019590
v -0.00420141 -0.01822668 0.00024060
v -0.00370449 -0.01776200 0.00018891
v -0.00419593 -0.01822704 0.00022813
v -0.00369996 -0.01776230 0.00018140
v -0.00419581 -0.01822704 0.00022170
v -0.00424868 -0.01822352 0.00027054
v -0.00421154 -0.01822596 0.00025145
v -0.00330180 -0.01727819 0.00016784
v -0.00334096 -0.01727563 0.00018074
v -0.00350320 -0.01726496 0.00021274
v -0.00435740 -0.01821643 0.00029424
v -0.00383186 -0.01724338 0.00024886
v -0.00457913 -0.01820182 0.00031436
v -0.00486964 -0.01608628 0.00037626
v -0.00457376 -0.01499736 0.00037881
v -0.00503689 -0.01496696 0.00045054
v -0.00399053 -0.01277911 0.00038745
v -0.00452840 -0.01274377 0.00049451
v -0.00336492 -0.01052808 0.00039409
v -0.00392562 -0.01049125 0.00053718
v -0.00366133 -0.01505726 0.00024646
v -0.00407201 -0.01613867 0.00027758
v -0.00548118 -0.01713508 0.00041039
v -0.00546724 -0.01814353 0.00037372
v -0.00514764 -0.01715695 0.00037338
v -0.00502360 -0.01817268 0.00034219
v -0.00449038 -0.01720011 0.00030893
v -0.00506592 -0.01270848 0.00059968
v -0.00448728 -0.01045435 0.00067550
v -0.00505161 -0.01270937 0.00058957
v -0.00447196 -0.01045536 0.00066735
v -0.00498807 -0.01271355 0.00056642
v -0.00519079 -0.01326948 0.00057743
v -0.00519210 -0.01326942 0.00057933
v -0.00513059 -0.01298916 0.00058959
v -0.00518924 -0.01326960 0.00058017
v -0.00550640 -0.01493608 0.00052246
v -0.00530302 -0.01382833 0.00056080
v -0.00530547 -0.01382815 0.00056062
v -0.00541312 -0.01438361 0.00054116
v -0.00530529 -0.01382815 0.00055748
v -0.00541312 -0.01438361 0.00053887
v -0.00551111 -0.01493579 0.00052204
v -0.00550997 -0.01493585 0.00051873
v -0.00568432 -0.01603281 0.00048348
v -0.00550431 -0.01493626 0.00051590
v -0.00530291 -0.01382833 0.00055610
v -0.00575835 -0.01657974 0.00046467
v -0.00581950 -0.01711285 0.00044729
v -0.00568271 -0.01603287 0.00048089
v -0.00581896 -0.01711291 0.00044141
v -0.00587839 -0.01761925 0.00042945
v -0.00585186 -0.01736879 0.00043794
v -0.00583917 -0.01724147 0.00044111
v -0.00585246 -0.01736873 0.00043525
v -0.00586653 -0.01749449 0.00043322
v -0.00587958 -0.01761919 0.00042698
v -0.00590402 -0.01786655 0.00042064
v -0.00592721 -0.01811331 0.00041063
v -0.00578493 -0.01711511 0.00042854
v -0.00592554 -0.01811343 0.00040909
v -0.00568265 -0.01712185 0.00039604
v -0.00545585 -0.01493942 0.00049870
v -0.00529545 -0.01382881 0.00055272
v -0.00286913 -0.01676946 0.00005242
v -0.00326324 -0.01728069 0.00008232
v -0.00255549 -0.01623827 -0.00001244
v -0.00265259 -0.01623189 -0.00004986
v -0.00204468 -0.01516342 -0.00014622
v -0.00216025 -0.01515585 -0.00015907
v -0.00162148 -0.01407009 -0.00025086
v -0.00187540 -0.01405340 -0.00024840
v -0.00143015 -0.01294720 -0.00033294
v -0.00196648 -0.01291203 -0.00026938
v -0.00159085 -0.01179414 -0.00033616
v -0.00440639 -0.01045966 0.00063987
v -0.00482243 -0.01272445 0.00051040
v -0.00531268 -0.01494884 0.00045415
v -0.00510198 -0.01496267 0.00038532
v -0.00553197 -0.01713174 0.00034506
v -0.00493026 -0.01608228 0.00024788
v -0.00521117 -0.01715278 0.00024873
v -0.00414985 -0.01613354 0.00005695
v -0.00456959 -0.01719492 0.00009351
v -0.00464815 -0.01819729 0.00011029
v -0.00508982 -0.01816833 0.00016302
v -0.00238126 -0.01402020 -0.00020153
v -0.00239086 -0.01514071 -0.00016431
v -0.00275248 -0.01622533 -0.00006670
v -0.00333983 -0.01727569 0.00004709
v -0.00421560 -0.01822572 0.00019192
v -0.00254524 -0.01623892 -0.00000321
v -0.00193042 -0.01517093 -0.00011334
v -0.00136596 -0.01408690 -0.00020854
v -0.00149369 -0.01407849 -0.00024138
v -0.00102443 -0.01297384 -0.00033742
v -0.00116050 -0.01296496 -0.00034336
v -0.00075515 -0.01184904 -0.00043661
v -0.00103509 -0.01183062 -0.00041743
v -0.00070526 -0.01070272 -0.00050043
v -0.00126630 -0.01066589 -0.00040127
v -0.00253647 -0.01623952 0.00001169
v -0.00190431 -0.01517266 -0.00008809
v -0.00161171 -0.01463323 -0.00013511
v -0.00161117 -0.01463329 -0.00013227
v -0.00130498 -0.00236589 0.00059702
v -0.00130570 -0.00236583 0.00059508
v -0.00142592 -0.00263923 0.00063118
v -0.00142252 -0.00263947 0.00062793
v -0.00170332 -0.00318098 0.00070969
v -0.00156265 -0.00291037 0.00067318
v -0.00170493 -0.00318092 0.00070820
v -0.00156349 -0.00291032 0.00067132
v -0.00170159 -0.00318110 0.00070403
v -0.00142688 -0.00263917 0.00063468
v -0.00096172 -0.00266975 0.00032408
v -0.00121194 -0.00265330 0.00048457
v -0.00101757 -0.00210124 0.00042646
v -0.00102007 -0.00178277 0.00044546
v -0.00221521 -0.00427616 0.00081044
v -0.00196201 -0.00372642 0.00076708
v -0.00196749 -0.00372606 0.00076847
v -0.00141346 -0.00264007 0.00063225
v -0.00141972 -0.00263965 0.00063398
v -0.00209439 -0.00400048 0.00079135
v -0.00221509 -0.00427616 0.00080543
v -0.00221789 -0.00427598 0.00081028
v -0.00209582 -0.00400042 0.00078966
v -0.00197071 -0.00372589 0.00076860
v -0.00196964 -0.00372595 0.00076474
v -0.00246096 -0.00482905 0.00083695
v -0.00246167 -0.00482899 0.00083901
v -0.00240099 -0.00469053 0.00083330
v -0.00245941 -0.00482917 0.00083944
v -0.00233912 -0.00455225 0.00082685
v -0.00220990 -0.00427651 0.00080919
v -0.00233960 -0.00455225 0.00082462
v -0.00245738 -0.00482929 0.00083337
v -0.00242084 -0.00483167 0.00080720
v -0.00184083 -0.00345260 0.00074173
v -0.00184166 -0.00345254 0.00073975
v -0.00196564 -0.00372618 0.00076090
v -0.00142425 -0.00263935 0.00063483
v -0.00195962 -0.00372660 0.00075595
v -0.00269878 -0.00538433 0.00084889
v -0.00281519 -0.00566262 0.00084486
v -0.00269407 -0.00538462 0.00084810
v -0.00292790 -0.00594157 0.00083701
v -0.00269872 -0.00538433 0.00084554
v -0.00281554 -0.00566256 0.00084255
v -0.00292999 -0.00594145 0.00083558
v -0.00335604 -0.00706339 0.00078730
v -0.00292718 -0.00594163 0.00083251
v -0.00292134 -0.00594199 0.00082792
v -0.00170183 -0.00374353 0.00057650
v -0.00139516 -0.00376367 0.00037537
v -0.00111240 -0.00172663 0.00051646
v -0.00120431 -0.00208902 0.00055618
v -0.00141096 -0.00264025 0.00061900
v -0.00184608 -0.00373405 0.00067779
v -0.00213486 -0.00485045 0.00061896
v -0.00213176 -0.00599384 0.00035718
v -0.00247574 -0.00597125 0.00065069
v -0.00292551 -0.00594175 0.00083665
v -0.00315076 -0.00650108 0.00081734
v -0.00377077 -0.00819033 0.00075782
v -0.00357324 -0.00762582 0.00077773
v -0.00377279 -0.00819016 0.00075781
v -0.00357389 -0.00762582 0.00077556
v -0.00448626 -0.01045441 0.00067841
v -0.00414711 -0.00932169 0.00071798
v -0.00448895 -0.01045423 0.00067766
v -0.00377273 -0.00819016 0.00075531
v -0.00375944 -0.00819105 0.00074663
v -0.00524944 -0.01354920 0.00057022
v -0.00376034 -0.01505076 0.00002515
v -0.00465363 -0.01499211 0.00025186
v -0.00405920 -0.01277458 0.00025541
v -0.00458014 -0.01274037 0.00042504
v -0.00398350 -0.01048743 0.00047038
v -0.00423467 -0.01047092 0.00057246
v -0.00354105 -0.00820541 0.00063907
v -0.00369978 -0.00819498 0.00071592
v -0.00287473 -0.00594509 0.00079792
v -0.00426424 -0.01822251 0.00016411
v -0.00342065 -0.01727038 0.00002752
v -0.00295305 -0.01621216 -0.00008029
v -0.00285131 -0.01511049 -0.00013380
v -0.00330913 -0.00822061 0.00052321
v -0.00274223 -0.00595373 0.00071876
v -0.00269413 -0.00538462 0.00084149
v 0.00017439 -0.00204653 -0.00012640
v 0.00008284 -0.00273836 -0.00019915
v 0.00023277 -0.00387055 -0.00040361
v 0.00066391 -0.00277650 -0.00028226
v 0.00051586 -0.00276679 -0.00029152
v 0.00059128 -0.00389409 -0.00044181
v 0.00040992 -0.00388223 -0.00043892
v -0.00129241 -0.00604898 -0.00008678
v -0.00076964 -0.00380474 0.00001004
v -0.00045413 -0.00270307 0.00003512
v -0.00030449 -0.00214809 0.00003163
v -0.00010292 -0.00205141 -0.00004148
v -0.00036863 -0.00202060 0.00006918
v -0.00155145 -0.00718188 -0.00013177
v -0.00059437 -0.00724471 -0.00051250
v -0.00009954 -0.00727719 -0.00065517
v 0.00015274 -0.00729376 -0.00070598
v 0.00001317 -0.00843882 -0.00067668
v 0.00014995 -0.00844777 -0.00068827
v -0.00002745 -0.00959224 -0.00061900
v 0.00011847 -0.00960183 -0.00059947
v -0.00013132 -0.01074039 -0.00050680
v -0.00011719 -0.01074135 -0.00049657
v -0.00045592 -0.01186865 -0.00039549
v -0.00045186 -0.01186895 -0.00038973
v -0.00087056 -0.01298397 -0.00028809
v -0.00109649 -0.01353836 -0.00023449
v -0.00134283 -0.01408839 -0.00018444
v -0.00134712 -0.01408815 -0.00019295
v -0.00135213 -0.01408779 -0.00019840
v -0.00087438 -0.01298373 -0.00029382
v -0.00088724 -0.01298290 -0.00030449
v -0.00046959 -0.01186776 -0.00040603
v -0.00061348 -0.01185834 -0.00043499
v -0.00027820 -0.01073080 -0.00053144
v -0.00042193 -0.01072132 -0.00052857
v -0.00016942 -0.00958294 -0.00061161
v -0.00044859 -0.00956458 -0.00057468
v -0.00025506 -0.00842118 -0.00063183
v -0.00078311 -0.00838649 -0.00050016
v 0.00034303 -0.00501323 -0.00056790
v 0.00055729 -0.00502729 -0.00057887
v 0.00026307 -0.00615114 -0.00066445
v 0.00070997 -0.00277954 -0.00024459
v 0.00077146 -0.00221878 -0.00015165
v 0.00080553 -0.00188941 -0.00008394
v 0.00068050 -0.00305766 -0.00027720
v 0.00071001 -0.00277954 -0.00024034
v 0.00077247 -0.00221884 -0.00014796
v 0.00080798 -0.00188839 -0.00007617
v 0.00080783 -0.00188845 -0.00006798
v 0.00077273 -0.00221884 -0.00014016
v 0.00069989 -0.00277889 -0.00026315
v 0.00064176 -0.00361562 -0.00036878
v 0.00065660 -0.00333601 -0.00033088
v 0.00063141 -0.00389677 -0.00039807
v 0.00064210 -0.00361568 -0.00036410
v 0.00064148 -0.00361562 -0.00035918
v 0.00065764 -0.00333607 -0.00032654
v 0.00065777 -0.00333607 -0.00032196
v 0.00068114 -0.00305772 -0.00028621
v 0.00069220 -0.00277835 -0.00026916
v 0.00058913 -0.00502938 -0.00056323
v 0.00058433 -0.00502902 -0.00056718
v 0.00061526 -0.00389570 -0.00043218
v 0.00068326 -0.00277776 -0.00027436
v 0.00063321 -0.00389689 -0.00040832
v 0.00063262 -0.00389683 -0.00041310
v 0.00063098 -0.00389671 -0.00041758
v 0.00061850 -0.00446224 -0.00049738
v 0.00059271 -0.00502962 -0.00055883
v 0.00056241 -0.00559849 -0.00060841
v 0.00056088 -0.00559837 -0.00061081
v 0.00053036 -0.00616866 -0.00065973
v 0.00055672 -0.00559807 -0.00061522
v 0.00052569 -0.00616837 -0.00066420
v 0.00061981 -0.00446236 -0.00048209
v 0.00062066 -0.00446242 -0.00048753
v 0.00062026 -0.00446236 -0.00049265
v 0.00059489 -0.00502974 -0.00055398
v 0.00053178 -0.00616878 -0.00063704
v 0.00056384 -0.00559855 -0.00059470
v 0.00055844 -0.00559819 -0.00058229
v 0.00065560 -0.00333589 -0.00031231
v 0.00062632 -0.00389642 -0.00038736
v 0.00061508 -0.00446206 -0.00047068
v 0.00059278 -0.00502962 -0.00053711
v 0.00059485 -0.00502974 -0.00054305
v 0.00059561 -0.00502980 -0.00054871
v 0.00061921 -0.00389594 -0.00037695
v 0.00058556 -0.00389373 -0.00034498
v 0.00056581 -0.00502783 -0.00050244
v 0.00038760 -0.00615931 -0.00052804
v 0.00048784 -0.00616586 -0.00058992
v 0.00058566 -0.00502914 -0.00052489
v 0.00051209 -0.00616747 -0.00061118
v 0.00052350 -0.00616825 -0.00062398
v 0.00069930 -0.00277883 -0.00021421
v 0.00062280 -0.00333375 -0.00027033
v 0.00054865 -0.00389129 -0.00031933
v 0.00017299 -0.00614518 -0.00042559
v -0.00084397 -0.00267750 0.00040486
v -0.00067602 -0.00212371 0.00039403
v -0.00056255 -0.00197542 0.00037689
v -0.00128078 -0.00377118 0.00047106
v -0.00061308 -0.00381500 0.00019020
v -0.00029696 -0.00271338 0.00019647
v -0.00258207 -0.00510633 0.00084658
v -0.00258005 -0.00510651 0.00084718
v -0.00245428 -0.00482953 0.00083834
v -0.00205260 -0.00485587 0.00066196
v -0.00161761 -0.00374907 0.00061733
v -0.00194257 -0.00372773 0.00074334
v -0.00230521 -0.00483930 0.00073251
v -0.00254857 -0.00596648 0.00059937
v -0.00280952 -0.00825346 0.00028823
v -0.00180995 -0.00831908 -0.00013915
v -0.00134379 -0.01408833 -0.00018731
v 0.00038910 -0.00388086 -0.00023360
v -0.00026659 -0.00611633 -0.00024429
v -0.00114977 -0.00605833 0.00010860
v 0.00043078 -0.00731206 -0.00070454
v 0.00050471 -0.00616699 -0.00067470
v 0.00051969 -0.00616795 -0.00066817
v 0.00052972 -0.00559634 -0.00062832
v 0.00054482 -0.00559729 -0.00062266
v 0.00043648 -0.00731242 -0.00069999
v 0.00049283 -0.00674033 -0.00068846
v 0.00053342 -0.00616890 -0.00065476
v 0.00053428 -0.00616890 -0.00065208
v 0.00056352 -0.00559855 -0.00060589
v 0.00053457 -0.00616896 -0.00064635
v 0.00049365 -0.00674039 -0.00067088
v 0.00049025 -0.00674015 -0.00066428
v 0.00043586 -0.00731236 -0.00067002
v 0.00041026 -0.00731069 -0.00064361
v 0.00044215 -0.00731277 -0.00068324
v 0.00049539 -0.00674051 -0.00067720
v 0.00053466 -0.00616896 -0.00064928
v 0.00031100 -0.00845837 -0.00066003
v 0.00030286 -0.00845784 -0.00062824
v 0.00031234 -0.00845843 -0.00064185
v 0.00038093 -0.00788551 -0.00066952
v 0.00038297 -0.00730890 -0.00062329
v 0.00027106 -0.00730157 -0.00056178
v 0.00003452 -0.00728601 -0.00045976
v -0.00044797 -0.00725436 -0.00027926
v -0.00064959 -0.00839525 -0.00025734
v -0.00013255 -0.00842923 -0.00042767
v 0.00012175 -0.00844592 -0.00052461
v 0.00024336 -0.00845390 -0.00058364
v -0.00135082 -0.01408785 -0.00016393
v -0.00134617 -0.01408821 -0.00016977
v -0.00110930 -0.01353752 -0.00021052
v -0.00109899 -0.01353824 -0.00022249
v -0.00088455 -0.01298308 -0.00025766
v -0.00087292 -0.01298379 -0.00026988
v -0.00045447 -0.01186877 -0.00037104
v -0.00045111 -0.01186901 -0.00037744
v -0.00011213 -0.01074171 -0.00047850
v -0.00011121 -0.01074177 -0.00048484
v 0.00013983 -0.00960326 -0.00057849
v 0.00013760 -0.00960308 -0.00058439
v 0.00030606 -0.00845802 -0.00066516
v 0.00041542 -0.00731105 -0.00071215
v 0.00038179 -0.00615889 -0.00068040
v -0.00045017 -0.01186907 -0.00038370
v -0.00011299 -0.01074165 -0.00049088
v 0.00013305 -0.00960279 -0.00058986
v 0.00029126 -0.00845706 -0.00067395
v 0.00028175 -0.00730228 -0.00072091
v 0.00038066 -0.00788551 -0.00068164
v 0.00038192 -0.00788558 -0.00067580
v 0.00031382 -0.00845855 -0.00065442
v 0.00031424 -0.00845855 -0.00064833
v 0.00013944 -0.00960320 -0.00057220
v 0.00013662 -0.00960302 -0.00056560
v -0.00011551 -0.01074147 -0.00047194
v -0.00012782 -0.01074063 -0.00045868
v -0.00046670 -0.01186794 -0.00035825
v -0.00053294 -0.01186358 -0.00032003
v -0.00107580 -0.01297050 -0.00017863
v -0.00177741 -0.01405984 -0.00003232
v -0.00227827 -0.01402699 0.00005390
v -0.00087610 -0.00953650 -0.00020856
v -0.00033434 -0.00957209 -0.00036421
v -0.00006723 -0.00958967 -0.00045392
v 0.00006135 -0.00959808 -0.00050950
v 0.00012534 -0.00960231 -0.00055205
v -0.00168681 -0.00832719 0.00007399
v -0.00272101 -0.00825924 0.00040936
v -0.00203001 -0.00600052 0.00046523
v -0.00324535 -0.00822479 0.00058426
v -0.00336581 -0.00706273 0.00079756
v -0.00336355 -0.00706285 0.00079737
v -0.00165832 -0.00488180 0.00048829
v -0.00336695 -0.00706261 0.00079561
v -0.00592554 -0.01811343 0.00041266
v -0.00592226 -0.01811367 0.00041316
v -0.00012384 0.00205022 0.00017484
v -0.00029421 0.00203282 0.00012876
v -0.00029448 0.00203276 0.00093220
v 0.00143307 -0.00147146 -0.00012640
v 0.00143307 -0.00147146 0.00093220
v 0.00071068 -0.00192708 0.00093220
v -0.00013460 -0.00204957 0.00093220
v -0.00095660 -0.00181764 0.00093220
v -0.00161320 -0.00127137 -0.00012640
v -0.00095660 -0.00181764 -0.00012640
v -0.00161320 -0.00127137 0.00093220
v -0.00013460 -0.00204957 -0.00012640
v -0.00077621 0.00190169 -0.00002748
v -0.00079668 0.00189316 -0.00004547
v -0.00109577 0.00173724 0.00093220
v -0.00066851 0.00194216 0.00002288
v -0.00047118 0.00199920 0.00008250
v -0.00080560 0.00188941 -0.00006020
v -0.00080812 0.00188833 -0.00007022
v -0.00109577 0.00173724 -0.00012640
v -0.00080734 0.00188863 -0.00007926
v -0.00080362 0.00189024 -0.00008729
v -0.00079606 0.00189346 -0.00009689
v -0.00079343 0.00189453 -0.00009956
v -0.00075299 0.00191098 -0.00012640
v 0.00111294 0.00172633 0.00051747
v 0.00111294 0.00172627 0.00052069
v 0.00131357 0.00157899 -0.00012640
v 0.00103384 0.00177479 0.00045557
v 0.00109607 0.00173706 0.00050072
v 0.00111049 0.00172788 0.00051389
v 0.00131357 0.00157899 0.00093220
v 0.00055779 0.00197679 0.00093220
v 0.00111145 0.00172728 0.00052165
v 0.00110900 0.00172883 0.00052216
v 0.00110418 0.00173193 0.00052225
v 0.00106561 0.00175589 0.00051494
v 0.00090802 0.00184238 0.00047603
v 0.00057589 0.00197160 0.00038087
v 0.00027450 0.00203556 0.00029065
v -0.00017439 0.00204653 -0.00012640
v 0.00008330 0.00205231 -0.00004869
v 0.00055779 0.00197679 -0.00012640
v 0.00032669 0.00202781 0.00005024
v 0.00047927 0.00199729 0.00012184
v 0.00055857 0.00197655 0.00016202
v 0.00076983 0.00190425 0.00027898
v 0.00184226 0.00090823 0.00093220
v 0.00184226 0.00090823 -0.00012640
v 0.00205243 0.00008038 0.00093220
v 0.00205243 0.00008038 -0.00012640
v 0.00190765 -0.00076137 0.00093220
v 0.00190765 -0.00076137 -0.00012640
v -0.00199085 -0.00050535 0.00093220
v -0.00199085 -0.00050535 -0.00012640
v -0.00202423 0.00034810 0.00093220
v -0.00202423 0.00034810 -0.00012640
v -0.00170767 0.00114131 0.00093220
v -0.00170767 0.00114131 -0.00012640
v 0.00105083 -0.00070237 0.00093220
v 0.00126123 -0.00008283 0.00093220
v 0.00113368 0.00055891 0.00093220
v 0.00070237 0.00105083 0.00093220
v 0.00008283 0.00126123 0.00093220
v -0.00113368 -0.00055891 0.00093220
v -0.00070237 -0.00105083 0.00093220
v -0.00008283 -0.00126123 0.00093220
v 0.00055891 -0.00113368 0.00093220
v -0.00055891 0.00113368 0.00093220
v -0.00105083 0.00070237 0.00093220
v -0.00126123 0.00008283 0.00093220
v 0.00064101 -0.00144410 -0.00012640
v 0.00155258 -0.00029282 -0.00012640
v 0.00123870 -0.00098082 -0.00012640
v -0.00035962 0.00180167 -0.00012640
v -0.00070857 0.00183868 -0.00012640
v -0.00064358 0.00178009 -0.00012640
v -0.00096798 0.00124872 -0.00012640
v -0.00010354 -0.00157660 -0.00012640
v -0.00057833 0.00174999 -0.00012640
v -0.00050794 0.00174046 -0.00012640
v -0.00027678 0.00155556 -0.00012640
v -0.00043858 0.00175512 -0.00012640
v 0.00047783 0.00150597 -0.00012640
v 0.00112295 0.00111145 -0.00012640
v 0.00151086 0.00046226 -0.00012640
v -0.00082436 -0.00134784 -0.00012640
v -0.00135630 -0.00081040 -0.00012640
v -0.00157756 -0.00008726 -0.00012640
v -0.00143743 0.00065588 -0.00012640
v 0.00598806 0.01911425 0.00037060
v 0.00585818 0.01912277 0.00032825
v 0.00582188 0.01912516 0.00036662
v 0.00551289 0.01914548 0.00035043
v 0.00565904 0.01913589 0.00027759
v 0.00541615 0.01915180 0.00024507
v 0.00521570 0.01916497 0.00033150
v 0.00525647 0.01916229 0.00025720
v 0.00522560 0.01916432 0.00026498
v 0.00598544 0.01911443 0.00037856
v 0.00600177 0.01911336 0.00037904
v 0.00600535 0.01911312 0.00037827
v 0.00517702 0.01916754 0.00028804
v 0.00516838 0.01916807 0.00029948
v 0.00516760 0.01916813 0.00030502
v 0.00516981 0.01916801 0.00031072
v 0.00517273 0.01916778 0.00031435
v 0.00518429 0.01916706 0.00028249
v 0.00518119 0.01916724 0.00032065
v 0.00518638 0.01916688 0.00032308
v -0.00049514 0.00674027 -0.00068307
v -0.00044240 0.00731259 -0.00068932
v -0.00044046 0.00731248 -0.00069491
v -0.00056421 0.00559837 -0.00060324
v -0.00056448 0.00559837 -0.00060048
v -0.00053404 0.00616872 -0.00064332
v -0.00061552 0.00446182 -0.00050169
v -0.00062467 0.00389606 -0.00042548
v -0.00062828 0.00389630 -0.00042168
v -0.00052698 0.00276726 -0.00010859
v -0.00025239 0.00274920 -0.00000296
v -0.00005720 0.00385880 -0.00008818
v -0.00063780 0.00333452 -0.00028454
v -0.00065101 0.00333536 -0.00030246
v -0.00070826 0.00277919 -0.00023149
v -0.00064048 0.00361532 -0.00037318
v -0.00063826 0.00361520 -0.00037732
v -0.00065206 0.00333542 -0.00033878
v -0.00067872 0.00305730 -0.00029444
v -0.00070579 0.00277901 -0.00025629
v -0.00070928 0.00277924 -0.00024866
v -0.00003134 0.00613570 -0.00061237
v 0.00042154 0.00610596 -0.00046818
v 0.00011234 0.00384766 -0.00029531
v 0.00119507 0.00208932 0.00054837
v 0.00112724 0.00209379 0.00050241
v 0.00133282 0.00264513 0.00056733
v 0.00431710 0.01821905 0.00014601
v 0.00442606 0.01821190 0.00012357
v 0.00358450 0.01725959 0.00000667
v 0.00391489 0.01723790 0.00000395
v 0.00335503 0.01618570 -0.00006691
v 0.00344312 0.01052278 0.00026504
v 0.00236601 0.01059353 -0.00010252
v 0.00302225 0.01284259 -0.00004162
v 0.00479567 0.01158356 0.00063810
v 0.00448895 0.01045411 0.00067767
v 0.00448722 0.01045423 0.00067550
v 0.00372505 0.01776063 0.00020743
v 0.00374037 0.01775962 0.00021573
v 0.00422335 0.01822519 0.00025956
v 0.00191689 0.01517176 -0.00010389
v 0.00190711 0.01517242 -0.00009351
v 0.00253826 0.01623934 0.00000663
v 0.00093555 0.01183706 -0.00020015
v 0.00059908 0.01070958 -0.00028548
v 0.00115180 0.01067328 -0.00014667
v -0.00072811 0.00221562 -0.00018584
v -0.00065807 0.00277585 -0.00017682
v -0.00068683 0.00277776 -0.00019947
v 0.00015704 0.00215751 0.00023464
v 0.00112706 0.00180817 0.00053051
v 0.00120294 0.00208884 0.00056218
v 0.00119221 0.00208956 0.00056028
v 0.00113100 0.00180793 0.00052949
v 0.00030443 0.00214785 0.00003162
v 0.00078755 0.00211608 0.00028214
v 0.00120425 0.00208873 0.00055615
v 0.00120664 0.00208855 0.00055904
v 0.00120723 0.00208855 0.00056095
v -0.00036342 0.00219172 0.00006896
v -0.00076743 0.00221825 -0.00012384
v -0.00077149 0.00221848 -0.00015160
v -0.00077250 0.00221854 -0.00014791
v -0.00071004 0.00277930 -0.00024030
v -0.00008289 0.00273812 -0.00019913
v -0.00036873 0.00275683 -0.00027296
v -0.00059923 0.00220716 -0.00020509
v 0.00032606 0.01072752 -0.00036687
v 0.00066428 0.01185488 -0.00027276
v 0.00019408 0.01073616 -0.00041841
v 0.00086974 0.01298391 -0.00027606
v 0.00109661 0.01353830 -0.00022853
v 0.00086890 0.01298397 -0.00028216
v 0.00109625 0.01353830 -0.00023153
v 0.00134319 0.01408827 -0.00017567
v 0.00134254 0.01408833 -0.00017861
v 0.00134241 0.01408833 -0.00018154
v 0.00137949 0.01408588 -0.00014265
v 0.00192839 0.01517099 -0.00005074
v 0.00161594 0.01463288 -0.00011797
v 0.00190639 0.01517248 -0.00007151
v 0.00161260 0.01463311 -0.00012369
v 0.00190395 0.01517260 -0.00007704
v 0.00161111 0.01463323 -0.00012942
v 0.00190318 0.01517266 -0.00008259
v 0.00133818 0.01295316 -0.00011483
v 0.00148410 0.01180100 -0.00007908
v 0.00186837 0.01291835 -0.00001145
v 0.00225973 0.01060050 0.00012158
v 0.00293064 0.01284861 0.00018581
v 0.00253600 0.01623946 0.00001678
v 0.00253701 0.01623940 0.00002187
v 0.00253934 0.01623928 0.00002691
v 0.00254726 0.01623874 0.00003666
v 0.00255805 0.01623803 0.00004563
v 0.00267625 0.01623028 0.00009181
v 0.00258177 0.01623648 0.00005980
v 0.00195634 0.01516920 -0.00003499
v 0.00286585 0.01676964 0.00006203
v 0.00286591 0.01676964 0.00006687
v 0.00286710 0.01676958 0.00007168
v 0.00286931 0.01676940 0.00007644
v 0.00287253 0.01676923 0.00008109
v 0.00369775 0.01776242 0.00017361
v 0.00324273 0.01728206 0.00012515
v 0.00324798 0.01728171 0.00013377
v 0.00288099 0.01676863 0.00008992
v 0.00325560 0.01728117 0.00014181
v 0.00326455 0.01728063 0.00014897
v 0.00094866 0.01297873 -0.00022160
v 0.00140983 0.01408392 -0.00012746
v 0.00152939 0.01407605 -0.00008797
v 0.00206470 0.01516205 0.00000145
v 0.00229061 0.01514720 0.00004912
v 0.00287372 0.01621729 0.00013083
v 0.00274700 0.01511728 0.00011850
v 0.00327265 0.01619112 0.00018328
v 0.00419742 0.01822692 0.00021529
v 0.00369817 0.01776242 0.00016575
v 0.00324124 0.01728212 0.00012071
v 0.00324237 0.01728206 0.00010727
v 0.00324106 0.01728212 0.00011174
v 0.00324064 0.01728218 0.00011623
v 0.00420481 0.01822644 0.00020297
v 0.00324720 0.01728177 0.00009850
v 0.00371057 0.01776158 0.00019590
v 0.00420141 0.01822662 0.00024059
v 0.00370443 0.01776200 0.00018891
v 0.00419587 0.01822698 0.00022813
v 0.00369990 0.01776230 0.00018140
v 0.00419575 0.01822698 0.00022169
v 0.00424862 0.01822352 0.00027054
v 0.00421148 0.01822596 0.00025145
v 0.00330180 0.01727813 0.00016784
v 0.00334090 0.01727557 0.00018073
v 0.00350320 0.01726496 0.00021273
v 0.00435734 0.01821637 0.00029424
v 0.00383186 0.01724332 0.00024886
v 0.00457907 0.01820182 0.00031436
v 0.00486958 0.01608622 0.00037626
v 0.00457370 0.01499730 0.00037881
v 0.00503689 0.01496690 0.00045054
v 0.00399047 0.01277899 0.00038745
v 0.00452840 0.01274365 0.00049451
v 0.00336492 0.01052790 0.00039409
v 0.00392556 0.01049113 0.00053718
v 0.00366133 0.01505720 0.00024646
v 0.00407201 0.01613861 0.00027758
v 0.00548118 0.01713502 0.00041039
v 0.00546724 0.01814353 0.00037372
v 0.00514764 0.01715695 0.00037338
v 0.00502354 0.01817262 0.00034219
v 0.00449038 0.01720011 0.00030893
v 0.00506836 0.01270818 0.00059877
v 0.00506657 0.01270830 0.00059671
v 0.00505155 0.01270931 0.00058958
v 0.00447196 0.01045525 0.00066735
v 0.00498801 0.01271349 0.00056642
v 0.00519079 0.01326942 0.00057744
v 0.00519204 0.01326930 0.00057933
v 0.00513130 0.01298898 0.00058901
v 0.00550640 0.01493602 0.00052246
v 0.00530302 0.01382827 0.00056080
v 0.00530690 0.01382797 0.00056020
v 0.00530529 0.01382809 0.00055748
v 0.00541305 0.01438355 0.00054117
v 0.00541312 0.01438355 0.00053887
v 0.00551236 0.01493567 0.00052081
v 0.00550425 0.01493620 0.00051590
v 0.00550997 0.01493579 0.00051874
v 0.00530285 0.01382827 0.00055611
v 0.00568432 0.01603275 0.00048348
v 0.00575835 0.01657968 0.00046467
v 0.00581950 0.01711285 0.00044729
v 0.00582427 0.01711249 0.00044542
v 0.00575745 0.01657974 0.00046226
v 0.00568265 0.01603287 0.00048090
v 0.00582278 0.01711261 0.00044366
v 0.00581890 0.01711285 0.00044141
v 0.00588012 0.01761913 0.00042845
v 0.00585294 0.01736867 0.00043746
v 0.00583917 0.01724141 0.00044111
v 0.00586700 0.01749444 0.00043263
v 0.00585246 0.01736867 0.00043525
v 0.00590461 0.01786649 0.00042013
v 0.00592715 0.01811331 0.00041195
v 0.00578487 0.01711511 0.00042854
v 0.00592554 0.01811343 0.00040909
v 0.00568265 0.01712179 0.00039604
v 0.00545579 0.01493936 0.00049870
v 0.00529539 0.01382875 0.00055273
v 0.00286907 0.01676946 0.00005242
v 0.00326324 0.01728069 0.00008232
v 0.00255549 0.01623821 -0.00001244
v 0.00265259 0.01623183 -0.00004986
v 0.00204462 0.01516336 -0.00014623
v 0.00216025 0.01515579 -0.00015907
v 0.00162148 0.01407003 -0.00025087
v 0.00187534 0.01405334 -0.00024841
v 0.00143015 0.01294714 -0.00033295
v 0.00196642 0.01291191 -0.00026938
v 0.00159079 0.01179403 -0.00033617
v 0.00440633 0.01045954 0.00063987
v 0.00482243 0.01272433 0.00051040
v 0.00531268 0.01494878 0.00045415
v 0.00510198 0.01496261 0.00038532
v 0.00553197 0.01713168 0.00034506
v 0.00493026 0.01608228 0.00024788
v 0.00521111 0.01715278 0.00024873
v 0.00414979 0.01613348 0.00005695
v 0.00456959 0.01719492 0.00009351
v 0.00464815 0.01819729 0.00011029
v 0.00508982 0.01816827 0.00016302
v 0.00238126 0.01402014 -0.00020153
v 0.00239080 0.01514065 -0.00016432
v 0.00275242 0.01622527 -0.00006670
v 0.00333983 0.01727569 0.00004708
v 0.00421560 0.01822572 0.00019192
v 0.00254518 0.01623886 -0.00000321
v 0.00193042 0.01517087 -0.00011334
v 0.00136596 0.01408678 -0.00020854
v 0.00149369 0.01407843 -0.00024139
v 0.00102443 0.01297378 -0.00033743
v 0.00116050 0.01296484 -0.00034336
v 0.00075511 0.01184892 -0.00043662
v 0.00103509 0.01183050 -0.00041744
v 0.00070522 0.01070261 -0.00050044
v 0.00126630 0.01066577 -0.00040127
v 0.00253642 0.01623946 0.00001168
v 0.00190431 0.01517260 -0.00008810
v 0.00161171 0.01463317 -0.00013511
v 0.00161111 0.01463323 -0.00013228
v 0.00130588 0.00236553 0.00059594
v 0.00142682 0.00263894 0.00063242
v 0.00142241 0.00263923 0.00062790
v 0.00170487 0.00318068 0.00070898
v 0.00156337 0.00291008 0.00067282
v 0.00170428 0.00318068 0.00070707
v 0.00170147 0.00318086 0.00070400
v 0.00142676 0.00263894 0.00063465
v 0.00101751 0.00210100 0.00042643
v 0.00121182 0.00265306 0.00048454
v 0.00170177 0.00374329 0.00057649
v 0.00141084 0.00264001 0.00061897
v 0.00184601 0.00373381 0.00067777
v 0.00213474 0.00485027 0.00061896
v 0.00196737 0.00372583 0.00076845
v 0.00197065 0.00372565 0.00076858
v 0.00209540 0.00400019 0.00079114
v 0.00221509 0.00427592 0.00081043
v 0.00196189 0.00372618 0.00076706
v 0.00141334 0.00263983 0.00063222
v 0.00141960 0.00263941 0.00063395
v 0.00221783 0.00427574 0.00081026
v 0.00233996 0.00455201 0.00082650
v 0.00221497 0.00427598 0.00080541
v 0.00197071 0.00372565 0.00076618
v 0.00246084 0.00482887 0.00083694
v 0.00246161 0.00482881 0.00083900
v 0.00240088 0.00469035 0.00083329
v 0.00245929 0.00482893 0.00083943
v 0.00220978 0.00427628 0.00080918
v 0.00245726 0.00482905 0.00083336
v 0.00242072 0.00483149 0.00080719
v 0.00184184 0.00345230 0.00074071
v 0.00196552 0.00372595 0.00076088
v 0.00142413 0.00263911 0.00063480
v 0.00195950 0.00372636 0.00075593
v 0.00269985 0.00538403 0.00084869
v 0.00281614 0.00566232 0.00084375
v 0.00269395 0.00538439 0.00084810
v 0.00292939 0.00594127 0.00083697
v 0.00292891 0.00594127 0.00083426
v 0.00335598 0.00706315 0.00078731
v 0.00292712 0.00594139 0.00083252
v 0.00292128 0.00594181 0.00082793
v 0.00269860 0.00538409 0.00084555
v 0.00096163 0.00266951 0.00032407
v 0.00139505 0.00376344 0.00037536
v 0.00213170 0.00599366 0.00035719
v 0.00247568 0.00597107 0.00065070
v 0.00292546 0.00594151 0.00083666
v 0.00315201 0.00650078 0.00081715
v 0.00377071 0.00819016 0.00075782
v 0.00357437 0.00762558 0.00077744
v 0.00377375 0.00818992 0.00075740
v 0.00448620 0.01045429 0.00067841
v 0.00414795 0.00932151 0.00071750
v 0.00377268 0.00818998 0.00075532
v 0.00375938 0.00819087 0.00074663
v 0.00506592 0.01270836 0.00059969
v 0.00525057 0.01354902 0.00056974
v 0.00518924 0.01326948 0.00058017
v 0.00376028 0.01505070 0.00002515
v 0.00465363 0.01499205 0.00025186
v 0.00405913 0.01277446 0.00025541
v 0.00458014 0.01274025 0.00042504
v 0.00398344 0.01048731 0.00047038
v 0.00423461 0.01047080 0.00057246
v 0.00354099 0.00820524 0.00063908
v 0.00369972 0.00819480 0.00071593
v 0.00287461 0.00594485 0.00079793
v 0.00426424 0.01822251 0.00016411
v 0.00342065 0.01727038 0.00002752
v 0.00295299 0.01621210 -0.00008029
v 0.00285125 0.01511043 -0.00013381
v 0.00330907 0.00822043 0.00052322
v 0.00274217 0.00595355 0.00071877
v 0.00269401 0.00538439 0.00084149
v -0.00023279 0.00387031 -0.00040358
v -0.00066394 0.00277626 -0.00028222
v -0.00051589 0.00276655 -0.00029149
v -0.00059128 0.00389385 -0.00044177
v -0.00040993 0.00388199 -0.00043889
v 0.00129235 0.00604874 -0.00008677
v 0.00076959 0.00380450 0.00001005
v 0.00045406 0.00270283 0.00003512
v 0.00155139 0.00718170 -0.00013177
v 0.00059434 0.00724453 -0.00051249
v 0.00009952 0.00727701 -0.00065516
v -0.00015277 0.00729358 -0.00070598
v -0.00001319 0.00843865 -0.00067669
v -0.00014997 0.00844759 -0.00068827
v 0.00002742 0.00959211 -0.00061901
v -0.00011850 0.00960171 -0.00059948
v 0.00013128 0.01074028 -0.00050681
v 0.00011716 0.01074123 -0.00049659
v 0.00045587 0.01186853 -0.00039550
v 0.00045182 0.01186883 -0.00038974
v 0.00087052 0.01298385 -0.00028810
v 0.00109649 0.01353830 -0.00023450
v 0.00134283 0.01408833 -0.00018444
v 0.00134706 0.01408803 -0.00019296
v 0.00135207 0.01408773 -0.00019841
v 0.00087434 0.01298362 -0.00029383
v 0.00088720 0.01298278 -0.00030450
v 0.00046955 0.01186764 -0.00040604
v 0.00061343 0.01185822 -0.00043501
v 0.00027817 0.01073062 -0.00053145
v 0.00042189 0.01072120 -0.00052858
v 0.00016940 0.00958276 -0.00061162
v 0.00044856 0.00956446 -0.00057470
v 0.00025503 0.00842100 -0.00063183
v 0.00078308 0.00838631 -0.00050017
v -0.00034305 0.00501299 -0.00056788
v -0.00055731 0.00502705 -0.00057885
v -0.00026308 0.00615090 -0.00066443
v -0.00076989 0.00221836 -0.00015514
v -0.00071000 0.00277924 -0.00024456
v -0.00068052 0.00305742 -0.00027717
v -0.00077276 0.00221860 -0.00014011
v -0.00069991 0.00277859 -0.00026311
v -0.00064177 0.00361538 -0.00036875
v -0.00065662 0.00333571 -0.00033085
v -0.00063142 0.00389653 -0.00039803
v -0.00064211 0.00361544 -0.00036406
v -0.00064149 0.00361538 -0.00035915
v -0.00065766 0.00333583 -0.00032651
v -0.00065779 0.00333583 -0.00032193
v -0.00068117 0.00305748 -0.00028618
v -0.00069222 0.00277811 -0.00026913
v -0.00058914 0.00502914 -0.00056321
v -0.00058434 0.00502884 -0.00056717
v -0.00061526 0.00389546 -0.00043214
v -0.00068329 0.00277752 -0.00027432
v -0.00063322 0.00389665 -0.00040829
v -0.00063263 0.00389659 -0.00041307
v -0.00063098 0.00389647 -0.00041754
v -0.00061851 0.00446200 -0.00049736
v -0.00059272 0.00502938 -0.00055882
v -0.00056242 0.00559825 -0.00060840
v -0.00056089 0.00559813 -0.00061079
v -0.00053037 0.00616848 -0.00065971
v -0.00055673 0.00559789 -0.00061520
v -0.00052570 0.00616819 -0.00066418
v -0.00061982 0.00446212 -0.00048206
v -0.00062066 0.00446218 -0.00048750
v -0.00062026 0.00446212 -0.00049262
v -0.00059491 0.00502950 -0.00055396
v -0.00053179 0.00616854 -0.00063703
v -0.00056385 0.00559837 -0.00059469
v -0.00055845 0.00559801 -0.00058228
v -0.00065562 0.00333565 -0.00031228
v -0.00062633 0.00389618 -0.00038733
v -0.00061509 0.00446182 -0.00047066
v -0.00059279 0.00502938 -0.00053709
v -0.00059486 0.00502950 -0.00054303
v -0.00059563 0.00502956 -0.00054869
v -0.00061922 0.00389570 -0.00037692
v -0.00058557 0.00389349 -0.00034494
v -0.00056582 0.00502759 -0.00050242
v -0.00038762 0.00615907 -0.00052803
v -0.00048785 0.00616568 -0.00058991
v -0.00058567 0.00502890 -0.00052488
v -0.00051211 0.00616729 -0.00061117
v -0.00052352 0.00616801 -0.00062397
v -0.00069934 0.00277859 -0.00021418
v -0.00062282 0.00333351 -0.00027030
v -0.00054867 0.00389105 -0.00031930
v -0.00017302 0.00614500 -0.00042558
v 0.00084387 0.00267720 0.00040484
v 0.00067596 0.00212342 0.00039404
v 0.00128067 0.00377095 0.00047106
v 0.00061302 0.00381476 0.00019021
v 0.00029689 0.00271314 0.00019648
v 0.00258195 0.00510615 0.00084658
v 0.00257993 0.00510627 0.00084718
v 0.00245416 0.00482929 0.00083833
v 0.00205249 0.00485563 0.00066195
v 0.00161755 0.00374883 0.00061731
v 0.00194245 0.00372749 0.00074332
v 0.00230509 0.00483906 0.00073250
v 0.00254852 0.00596625 0.00059937
v 0.00280946 0.00825328 0.00028823
v 0.00180995 0.00831890 -0.00013915
v 0.00134373 0.01408827 -0.00018732
v -0.00038912 0.00388062 -0.00023357
v 0.00026656 0.00611615 -0.00024427
v 0.00114971 0.00605816 0.00010861
v -0.00043080 0.00731188 -0.00070455
v -0.00050472 0.00616676 -0.00067468
v -0.00051970 0.00616777 -0.00066816
v -0.00052972 0.00559610 -0.00062830
v -0.00054483 0.00559711 -0.00062264
v -0.00043650 0.00731224 -0.00069999
v -0.00049285 0.00674015 -0.00068845
v -0.00053343 0.00616866 -0.00065474
v -0.00053429 0.00616872 -0.00065207
v -0.00056353 0.00559831 -0.00060588
v -0.00053458 0.00616872 -0.00064634
v -0.00049366 0.00674021 -0.00067088
v -0.00049027 0.00673997 -0.00066428
v -0.00043588 0.00731218 -0.00067003
v -0.00041028 0.00731051 -0.00064361
v -0.00044217 0.00731259 -0.00068324
v -0.00049540 0.00674027 -0.00067719
v -0.00053467 0.00616872 -0.00064926
v -0.00031102 0.00845820 -0.00066004
v -0.00030289 0.00845766 -0.00062825
v -0.00031236 0.00845826 -0.00064186
v -0.00038095 0.00788534 -0.00066953
v -0.00038299 0.00730872 -0.00062329
v -0.00027108 0.00730139 -0.00056178
v -0.00003455 0.00728583 -0.00045976
v 0.00044794 0.00725412 -0.00027926
v 0.00064956 0.00839507 -0.00025735
v 0.00013252 0.00842905 -0.00042768
v -0.00012178 0.00844574 -0.00052462
v -0.00024339 0.00845373 -0.00058365
v 0.00135076 0.01408779 -0.00016394
v 0.00134611 0.01408809 -0.00016977
v 0.00110924 0.01353746 -0.00021053
v 0.00109899 0.01353812 -0.00022250
v 0.00088452 0.01298296 -0.00025767
v 0.00087288 0.01298373 -0.00026989
v 0.00045442 0.01186865 -0.00037105
v 0.00045107 0.01186889 -0.00037745
v 0.00011210 0.01074153 -0.00047851
v 0.00011117 0.01074159 -0.00048486
v -0.00013986 0.00960308 -0.00057850
v -0.00013763 0.00960296 -0.00058440
v -0.00030608 0.00845784 -0.00066517
v -0.00041544 0.00731087 -0.00071215
v -0.00038181 0.00615871 -0.00068039
v 0.00045013 0.01186895 -0.00038371
v 0.00011296 0.01074147 -0.00049090
v -0.00013307 0.00960266 -0.00058987
v -0.00029128 0.00845688 -0.00067396
v -0.00028177 0.00730204 -0.00072091
v -0.00038068 0.00788534 -0.00068165
v -0.00038194 0.00788540 -0.00067581
v -0.00031385 0.00845837 -0.00065443
v -0.00031426 0.00845837 -0.00064834
v -0.00013947 0.00960308 -0.00057221
v -0.00013665 0.00960290 -0.00056562
v 0.00011547 0.01074135 -0.00047195
v 0.00012778 0.01074051 -0.00045869
v 0.00046666 0.01186782 -0.00035826
v 0.00053290 0.01186347 -0.00032004
v 0.00107580 0.01297038 -0.00017864
v 0.00177735 0.01405978 -0.00003232
v 0.00227821 0.01402688 0.00005390
v 0.00087606 0.00953638 -0.00020857
v 0.00033431 0.00957197 -0.00036422
v 0.00006720 0.00958949 -0.00045394
v -0.00006138 0.00959796 -0.00050951
v -0.00012537 0.00960213 -0.00055206
v 0.00168675 0.00832701 0.00007399
v 0.00272095 0.00825906 0.00040936
v 0.00202995 0.00600034 0.00046524
v 0.00324529 0.00822467 0.00058427
v 0.00336707 0.00706244 0.00079735
v 0.00336349 0.00706267 0.00079737
v 0.00165826 0.00488156 0.00048829
v 0.00592226 0.01811361 0.00041316
v -0.00096798 0.00124872 0.00000000
v -0.00027678 0.00155556 0.00000000
v 0.00047783 0.00150597 0.00000000
v 0.00112295 0.00111145 0.00000000
v 0.00151086 0.00046226 0.00000000
v 0.00155258 -0.00029282 0.00000000
v 0.00123870 -0.00098082 0.00000000
v 0.00064101 -0.00144410 0.00000000
v -0.00010354 -0.00157660 0.00000000
v -0.00082436 -0.00134784 0.00000000
v -0.00135630 -0.00081040 0.00000000
v -0.00157756 -0.00008726 0.00000000
v -0.00143743 0.00065588 0.00000000
v -0.00105083 0.00070237 0.00022120
v -0.00126123 0.00008283 0.00022120
v -0.00113368 -0.00055891 0.00022120
v -0.00070237 -0.00105083 0.00022120
v -0.00008283 -0.00126123 0.00022120
v 0.00055891 -0.00113368 0.00022120
v 0.00105083 -0.00070237 0.00022120
v 0.00126123 -0.00008283 0.00022120
v 0.00113368 0.00055891 0.00022120
v 0.00070237 0.00105083 0.00022120
v 0.00008283 0.00126123 0.00022120
v -0.00055891 0.00113368 0.00022120
f 1 2 3
f 3 2 4
f 3 4 5
f 5 4 6
f 5 6 7
f 7 6 8
f 7 8 9
f 9 8 10
f 9 10 11
f 11 10 12
f 11 12 13
f 13 12 14
f 13 14 15
f 15 14 16
f 15 16 17
f 17 16 18
f 17 18 19
f 19 18 20
f 19 20 21
f 21 20 22
f 21 22 23
f 23 22 24
f 23 24 1
f 1 24 2
f 25 26 27
f 27 26 28
f 26 29 28
f 28 29 30
f 28 30 31
f 31 30 32
f 31 32 33
f 27 34 25
f 25 34 35
f 25 35 36
f 37 38 39
f 39 40 37
f 37 40 41
f 37 41 42
f 42 41 43
f 42 43 33
f 33 43 44
f 33 44 31
f 45 46 47
f 48 49 50
f 51 52 53
f 54 55 56
f 57 58 59
f 60 61 62
f 63 64 65
f 66 67 68
f 69 70 71
f 71 72 73
f 74 75 76
f 77 78 79
f 80 81 82
f 83 84 85
f 86 87 88
f 89 90 91
f 92 93 94
f 55 54 95
f 96 97 98
f 99 100 101
f 102 103 104
f 105 106 107
f 102 104 108
f 108 104 107
f 108 107 109
f 109 107 106
f 109 106 110
f 111 112 113
f 113 112 114
f 113 114 115
f 116 117 118
f 118 117 119
f 120 121 116
f 122 123 124
f 124 123 125
f 124 125 126
f 127 128 123
f 123 128 129
f 123 129 125
f 96 98 130
f 131 95 132
f 132 95 54
f 132 54 133
f 133 54 134
f 92 94 135
f 135 94 136
f 135 136 137
f 138 139 140
f 141 142 143
f 90 89 144
f 144 89 145
f 144 145 146
f 147 148 149
f 149 148 150
f 151 152 148
f 148 152 153
f 148 153 150
f 154 155 156
f 156 155 157
f 156 157 158
f 158 157 159
f 158 159 160
f 160 159 161
f 162 163 164
f 164 163 165
f 164 165 166
f 167 161 168
f 168 161 159
f 168 159 169
f 169 159 157
f 169 157 170
f 170 157 155
f 170 155 171
f 172 173 174
f 175 167 176
f 176 167 168
f 176 168 177
f 177 168 169
f 177 169 178
f 178 169 170
f 178 170 179
f 179 170 171
f 180 181 182
f 182 181 183
f 182 183 184
f 184 183 173
f 184 173 185
f 154 186 187
f 187 186 188
f 187 188 189
f 189 188 190
f 189 190 191
f 191 190 192
f 191 192 193
f 194 195 180
f 180 195 196
f 180 196 181
f 197 198 195
f 195 198 199
f 195 199 196
f 194 200 195
f 195 200 201
f 195 201 197
f 197 201 175
f 197 175 198
f 198 175 176
f 198 176 199
f 199 176 177
f 199 177 196
f 196 177 178
f 196 178 181
f 181 178 179
f 181 179 183
f 183 179 171
f 183 171 173
f 173 171 155
f 173 155 174
f 174 155 154
f 202 203 204
f 204 203 205
f 204 205 206
f 206 205 207
f 85 84 208
f 85 43 41
f 83 85 209
f 209 85 41
f 209 41 40
f 38 207 39
f 39 207 205
f 39 205 40
f 40 205 203
f 40 203 209
f 209 203 202
f 209 202 83
f 185 173 210
f 210 173 172
f 210 172 211
f 211 172 212
f 211 212 213
f 213 212 214
f 213 214 215
f 43 85 44
f 44 85 208
f 44 208 31
f 154 187 174
f 174 187 189
f 174 189 172
f 172 189 191
f 172 191 212
f 212 191 193
f 212 193 214
f 37 200 38
f 38 200 194
f 38 194 207
f 207 194 180
f 207 180 206
f 206 180 182
f 206 182 204
f 204 182 184
f 204 184 202
f 202 184 185
f 202 185 83
f 83 185 210
f 83 210 84
f 84 210 211
f 84 211 208
f 208 211 213
f 208 213 31
f 31 213 215
f 31 215 28
f 216 217 218
f 218 217 219
f 218 219 220
f 220 219 221
f 220 221 222
f 165 221 166
f 166 221 219
f 166 219 223
f 223 219 217
f 223 217 224
f 224 217 216
f 225 226 227
f 227 226 228
f 227 228 229
f 80 82 230
f 81 80 231
f 81 231 232
f 232 231 233
f 232 233 234
f 235 236 237
f 237 236 238
f 239 240 241
f 242 243 244
f 242 244 245
f 245 244 246
f 245 246 247
f 248 246 249
f 247 250 239
f 241 242 239
f 239 242 245
f 239 245 247
f 220 240 218
f 218 240 239
f 218 239 251
f 251 239 250
f 251 250 76
f 76 250 74
f 74 250 252
f 74 252 246
f 75 74 246
f 75 246 253
f 254 251 255
f 255 251 76
f 255 76 256
f 257 258 255
f 259 254 258
f 259 258 257
f 256 257 255
f 255 258 254
f 260 254 259
f 260 259 261
f 246 248 253
f 253 248 262
f 253 262 263
f 263 262 25
f 263 25 36
f 26 25 264
f 264 25 262
f 264 262 265
f 265 262 248
f 265 248 266
f 266 248 249
f 266 249 235
f 267 268 269
f 269 268 270
f 269 270 271
f 271 270 272
f 271 272 273
f 273 272 274
f 273 274 275
f 275 274 276
f 275 276 277
f 233 278 234
f 234 278 279
f 234 279 280
f 280 279 281
f 280 281 282
f 282 281 283
f 282 283 284
f 284 283 285
f 284 285 286
f 286 285 73
f 71 70 72
f 72 70 287
f 72 287 288
f 288 287 29
f 288 29 26
f 78 277 79
f 79 277 276
f 79 276 289
f 289 276 274
f 289 274 290
f 290 274 272
f 290 272 291
f 291 272 270
f 291 270 292
f 292 270 268
f 292 268 293
f 73 72 286
f 286 72 288
f 286 288 284
f 284 288 26
f 284 26 282
f 282 26 264
f 282 264 280
f 280 264 265
f 280 265 234
f 234 265 266
f 234 266 232
f 232 266 235
f 232 235 81
f 81 235 237
f 81 237 82
f 82 237 230
f 88 294 86
f 86 294 295
f 86 295 296
f 296 295 297
f 296 297 298
f 298 297 299
f 298 299 300
f 300 299 301
f 300 301 302
f 302 301 303
f 78 303 277
f 277 303 301
f 277 301 275
f 275 301 299
f 275 299 273
f 273 299 297
f 273 297 271
f 271 297 295
f 271 295 269
f 269 295 294
f 269 294 267
f 267 294 88
f 267 88 304
f 304 88 87
f 304 87 305
f 305 87 306
f 305 306 307
f 119 120 118
f 118 120 116
f 126 121 124
f 124 121 120
f 124 120 122
f 122 120 119
f 122 119 308
f 308 119 117
f 308 117 309
f 309 117 310
f 310 117 311
f 312 313 314
f 314 313 315
f 314 315 316
f 313 317 315
f 315 317 310
f 315 310 316
f 318 319 101
f 101 319 320
f 101 320 99
f 99 320 321
f 322 323 324
f 324 323 325
f 324 325 326
f 324 327 322
f 328 329 330
f 330 329 327
f 327 331 330
f 330 331 332
f 330 332 328
f 333 334 335
f 335 334 336
f 335 336 337
f 337 336 322
f 322 336 338
f 322 338 323
f 337 329 339
f 339 329 328
f 339 328 340
f 340 328 341
f 331 342 343
f 331 343 332
f 328 332 344
f 328 344 341
f 313 312 345
f 345 317 313
f 342 312 314
f 342 314 343
f 343 314 332
f 332 314 316
f 332 316 344
f 344 316 346
f 344 346 341
f 347 348 349
f 349 348 350
f 348 347 351
f 348 351 352
f 350 348 353
f 353 348 352
f 354 355 356
f 356 355 351
f 112 321 114
f 114 321 320
f 114 320 115
f 115 320 319
f 115 319 357
f 357 319 318
f 357 318 358
f 359 111 360
f 360 111 113
f 360 113 361
f 361 113 115
f 361 115 362
f 362 115 357
f 362 357 363
f 363 357 358
f 363 358 364
f 365 349 366
f 366 349 350
f 366 350 367
f 367 350 353
f 368 369 370
f 370 369 371
f 372 368 373
f 373 368 370
f 80 372 374
f 374 372 373
f 373 370 375
f 375 370 371
f 375 371 376
f 372 80 230
f 250 247 252
f 252 247 246
f 246 244 249
f 249 244 243
f 249 243 235
f 235 243 236
f 236 243 377
f 236 377 238
f 237 238 230
f 80 374 231
f 231 374 373
f 231 373 375
f 231 375 233
f 233 375 376
f 233 376 278
f 378 379 380
f 380 379 381
f 380 381 382
f 382 381 383
f 382 383 384
f 384 383 385
f 384 385 386
f 293 387 292
f 292 387 388
f 292 388 291
f 291 388 389
f 291 389 290
f 290 389 390
f 290 390 289
f 289 390 378
f 289 378 79
f 79 378 380
f 79 380 77
f 77 380 382
f 77 382 391
f 391 382 384
f 391 384 392
f 392 384 386
f 392 386 341
f 341 386 393
f 341 393 340
f 340 393 333
f 340 333 339
f 339 333 335
f 339 335 337
f 329 337 322
f 329 322 327
f 331 327 324
f 331 324 342
f 342 324 312
f 312 324 326
f 312 326 345
f 394 105 395
f 395 105 107
f 395 107 68
f 68 107 396
f 68 396 66
f 141 397 398
f 398 397 399
f 398 399 400
f 67 401 68
f 68 401 402
f 68 402 395
f 395 402 403
f 395 403 394
f 394 403 404
f 394 404 405
f 405 404 406
f 100 406 101
f 101 406 404
f 101 404 318
f 318 404 403
f 318 403 358
f 358 403 402
f 358 402 364
f 364 402 401
f 364 401 407
f 407 401 67
f 407 67 408
f 408 67 66
f 408 66 409
f 409 66 410
f 409 410 411
f 411 410 412
f 411 412 413
f 413 412 414
f 413 414 415
f 415 414 416
f 415 416 417
f 417 416 418
f 417 418 419
f 419 418 149
f 419 149 420
f 420 149 150
f 420 150 421
f 421 150 153
f 422 423 424
f 424 423 425
f 424 425 426
f 426 425 427
f 426 427 428
f 428 427 429
f 428 429 430
f 430 429 431
f 430 431 432
f 432 431 433
f 400 399 434
f 434 399 435
f 434 435 436
f 437 140 438
f 438 140 139
f 438 139 439
f 440 437 441
f 441 437 438
f 441 438 442
f 442 438 439
f 442 439 443
f 444 137 445
f 445 137 136
f 445 136 59
f 64 63 446
f 447 60 448
f 448 60 62
f 448 62 63
f 449 450 451
f 451 450 452
f 451 452 453
f 453 452 454
f 455 62 52
f 52 62 61
f 52 61 53
f 456 457 51
f 51 457 458
f 51 458 52
f 52 458 459
f 52 459 455
f 63 62 446
f 446 62 455
f 446 455 141
f 141 455 459
f 141 459 397
f 397 459 458
f 397 458 399
f 399 458 457
f 399 457 435
f 447 460 60
f 60 460 461
f 60 461 61
f 61 461 462
f 61 462 53
f 53 462 463
f 53 463 51
f 51 463 464
f 51 464 456
f 456 464 465
f 466 467 468
f 468 467 469
f 65 454 63
f 63 454 452
f 63 452 448
f 448 452 450
f 448 450 447
f 447 450 449
f 447 449 460
f 460 449 470
f 460 470 461
f 461 470 471
f 461 471 462
f 462 471 472
f 462 472 463
f 463 472 473
f 463 473 464
f 474 475 476
f 141 143 446
f 446 143 138
f 446 138 64
f 64 138 140
f 64 140 65
f 65 140 437
f 65 437 454
f 454 437 440
f 454 440 453
f 453 440 477
f 453 477 451
f 451 477 478
f 451 478 449
f 449 478 479
f 449 479 470
f 470 479 480
f 470 480 471
f 471 480 481
f 471 481 472
f 472 481 482
f 472 482 473
f 58 57 483
f 483 57 484
f 483 484 485
f 484 486 485
f 485 486 487
f 485 487 488
f 488 487 489
f 488 489 476
f 476 489 490
f 476 490 474
f 59 491 57
f 57 491 492
f 57 492 484
f 484 492 493
f 484 493 486
f 486 493 494
f 495 496 123
f 123 496 497
f 123 497 127
f 498 499 495
f 495 499 500
f 495 500 496
f 496 500 98
f 496 98 497
f 497 98 97
f 385 354 386
f 386 354 356
f 386 356 393
f 393 356 351
f 393 351 333
f 333 351 501
f 333 501 334
f 334 501 502
f 334 502 336
f 336 502 503
f 336 503 338
f 338 503 504
f 338 504 323
f 323 504 505
f 323 505 325
f 504 498 505
f 505 498 495
f 505 495 325
f 325 495 123
f 325 123 326
f 326 123 122
f 326 122 345
f 345 122 308
f 345 308 317
f 317 308 309
f 317 309 310
f 316 310 311
f 316 311 346
f 346 311 506
f 346 506 341
f 341 506 507
f 341 507 392
f 392 507 508
f 392 508 391
f 391 508 509
f 391 509 77
f 77 509 510
f 77 510 78
f 78 510 433
f 78 433 303
f 303 433 431
f 303 431 302
f 302 431 429
f 302 429 300
f 300 429 427
f 300 427 298
f 298 427 425
f 298 425 296
f 296 425 423
f 296 423 86
f 86 423 422
f 86 422 87
f 87 422 511
f 87 511 306
f 92 134 93
f 93 134 54
f 93 54 512
f 512 54 56
f 512 56 513
f 513 56 514
f 515 516 517
f 517 516 518
f 517 518 519
f 520 469 521
f 521 469 467
f 521 467 522
f 522 467 466
f 522 466 523
f 524 48 525
f 525 48 50
f 525 50 526
f 526 50 527
f 526 527 528
f 528 527 529
f 528 530 526
f 526 530 531
f 526 531 525
f 525 531 532
f 525 532 524
f 533 515 520
f 520 515 517
f 520 517 469
f 469 517 519
f 469 519 468
f 534 535 536
f 49 475 50
f 50 475 474
f 50 474 527
f 527 474 490
f 527 490 529
f 529 490 489
f 529 489 537
f 537 489 487
f 537 487 538
f 538 487 486
f 538 486 539
f 539 486 494
f 539 494 540
f 540 541 539
f 539 541 542
f 539 542 538
f 538 542 543
f 538 543 537
f 537 543 544
f 537 544 529
f 529 544 534
f 529 534 528
f 528 534 536
f 528 536 530
f 545 546 547
f 547 546 548
f 547 548 549
f 549 548 550
f 549 550 551
f 551 550 552
f 551 552 553
f 553 552 554
f 553 554 555
f 555 554 556
f 555 556 533
f 533 556 557
f 533 557 515
f 515 557 558
f 515 558 516
f 516 558 559
f 516 559 518
f 147 149 560
f 560 149 418
f 560 418 561
f 561 418 416
f 561 416 562
f 562 416 414
f 562 414 563
f 563 414 412
f 563 412 564
f 564 412 410
f 564 410 436
f 436 410 66
f 436 66 434
f 434 66 396
f 434 396 400
f 400 396 107
f 400 107 398
f 398 107 104
f 398 104 141
f 141 104 103
f 141 103 142
f 546 151 548
f 548 151 148
f 548 148 550
f 550 148 147
f 550 147 552
f 552 147 560
f 552 560 554
f 554 560 561
f 554 561 556
f 556 561 562
f 556 562 557
f 557 562 563
f 557 563 558
f 558 563 564
f 558 564 559
f 559 564 436
f 559 436 518
f 518 436 435
f 518 435 519
f 519 435 457
f 519 457 468
f 468 457 456
f 468 456 466
f 466 456 465
f 466 465 523
f 47 46 565
f 565 46 566
f 565 566 567
f 567 566 568
f 567 568 569
f 569 568 570
f 569 570 571
f 571 570 572
f 571 572 573
f 573 572 574
f 573 574 186
f 186 574 575
f 186 575 188
f 188 575 576
f 188 576 190
f 190 576 577
f 190 577 192
f 541 578 542
f 542 578 579
f 542 579 543
f 543 579 580
f 543 580 544
f 544 580 581
f 544 581 534
f 534 581 582
f 534 582 535
f 583 514 584
f 584 514 585
f 584 585 586
f 367 587 588
f 367 588 366
f 366 588 586
f 366 586 365
f 365 586 585
f 365 585 589
f 589 585 514
f 586 222 584
f 584 222 221
f 584 221 583
f 583 221 165
f 583 165 91
f 91 165 163
f 91 163 89
f 89 163 162
f 89 162 145
f 59 136 491
f 491 136 94
f 491 94 492
f 492 94 93
f 492 93 493
f 493 93 512
f 493 512 494
f 494 512 513
f 494 513 540
f 540 513 514
f 540 514 541
f 541 514 583
f 541 583 578
f 578 583 91
f 578 91 579
f 579 91 90
f 579 90 580
f 580 90 144
f 580 144 581
f 581 144 146
f 581 146 582
f 37 42 69
f 69 42 33
f 69 33 70
f 70 33 32
f 70 32 287
f 287 32 30
f 287 30 29
f 369 587 590
f 369 590 371
f 371 590 354
f 371 354 376
f 376 354 385
f 376 385 278
f 278 385 383
f 278 383 279
f 279 383 381
f 279 381 281
f 281 381 379
f 281 379 283
f 283 379 378
f 283 378 285
f 285 378 390
f 285 390 73
f 73 390 389
f 73 389 71
f 71 389 388
f 71 388 69
f 69 388 387
f 69 387 37
f 37 387 293
f 37 293 200
f 200 293 268
f 200 268 201
f 201 268 267
f 201 267 175
f 175 267 304
f 175 304 167
f 167 304 305
f 167 305 161
f 161 305 307
f 161 307 160
f 261 591 260
f 260 591 254
f 254 591 592
f 254 592 251
f 251 592 225
f 251 225 218
f 218 225 227
f 218 227 216
f 216 227 229
f 216 229 224
f 45 531 46
f 46 531 530
f 46 530 566
f 566 530 536
f 566 536 568
f 568 536 535
f 568 535 570
f 570 535 582
f 570 582 572
f 572 582 146
f 572 146 574
f 574 146 145
f 574 145 575
f 575 145 162
f 575 162 576
f 576 162 164
f 576 164 577
f 577 164 166
f 577 166 192
f 192 166 223
f 192 223 193
f 193 223 224
f 193 224 214
f 214 224 229
f 214 229 215
f 215 229 228
f 215 228 28
f 28 228 226
f 28 226 27
f 27 226 225
f 27 225 34
f 34 225 592
f 116 359 117
f 117 359 360
f 117 360 311
f 311 360 361
f 311 361 506
f 506 361 362
f 506 362 507
f 507 362 363
f 507 363 508
f 508 363 364
f 508 364 509
f 509 364 407
f 509 407 510
f 510 407 408
f 510 408 433
f 433 408 409
f 433 409 432
f 432 409 411
f 432 411 430
f 430 411 413
f 430 413 428
f 428 413 415
f 428 415 426
f 426 415 417
f 426 417 424
f 424 417 419
f 424 419 422
f 422 419 420
f 422 420 511
f 511 420 421
f 511 421 306
f 306 421 153
f 306 153 307
f 307 153 152
f 307 152 160
f 160 152 151
f 160 151 158
f 158 151 546
f 158 546 156
f 156 546 545
f 156 545 154
f 154 545 547
f 154 547 186
f 186 547 549
f 186 549 573
f 573 549 551
f 573 551 571
f 571 551 553
f 571 553 569
f 569 553 555
f 569 555 567
f 567 555 533
f 567 533 565
f 565 533 520
f 565 520 47
f 47 520 521
f 47 521 45
f 45 521 522
f 45 522 531
f 531 522 523
f 531 523 532
f 532 523 465
f 532 465 524
f 524 465 464
f 524 464 48
f 48 464 473
f 48 473 49
f 49 473 482
f 49 482 475
f 475 482 481
f 475 481 476
f 476 481 480
f 476 480 488
f 488 480 479
f 488 479 485
f 485 479 478
f 485 478 483
f 483 478 477
f 483 477 58
f 58 477 440
f 58 440 59
f 59 440 441
f 59 441 445
f 445 441 442
f 445 442 444
f 444 442 443
f 131 130 95
f 95 130 98
f 95 98 55
f 55 98 500
f 55 500 56
f 56 500 499
f 56 499 514
f 514 499 498
f 514 498 589
f 589 498 504
f 589 504 365
f 365 504 503
f 365 503 349
f 349 503 502
f 349 502 347
f 347 502 501
f 347 501 351
f 352 351 355
f 352 355 353
f 353 355 354
f 353 354 590
f 353 590 367
f 367 590 587
f 587 369 588
f 588 369 368
f 588 368 586
f 586 368 372
f 586 372 222
f 222 372 230
f 222 230 220
f 220 230 238
f 220 238 240
f 240 238 377
f 240 377 241
f 241 377 243
f 241 243 242
f 256 76 75
f 256 75 257
f 257 75 253
f 257 253 259
f 259 253 263
f 259 263 261
f 261 263 36
f 261 36 591
f 591 36 592
f 592 36 35
f 592 35 34
f 593 594 595
f 444 443 596
f 597 135 137
f 443 439 596
f 596 439 139
f 596 139 138
f 138 143 596
f 596 143 142
f 596 142 103
f 132 133 598
f 598 133 134
f 598 134 597
f 597 134 92
f 597 92 135
f 599 130 598
f 598 130 131
f 598 131 132
f 600 127 599
f 599 127 497
f 497 97 599
f 599 97 96
f 599 96 130
f 112 111 601
f 601 111 359
f 601 359 116
f 602 99 601
f 601 99 321
f 601 321 112
f 603 116 121
f 603 121 600
f 600 121 126
f 600 126 125
f 125 129 600
f 600 129 128
f 600 128 127
f 394 405 604
f 604 405 406
f 604 406 602
f 602 406 100
f 602 100 99
f 605 606 607
f 605 607 608
f 595 594 607
f 607 594 609
f 607 609 608
f 610 611 612
f 612 611 613
f 612 613 614
f 614 615 612
f 612 615 616
f 612 616 617
f 618 619 620
f 621 622 620
f 620 622 623
f 620 623 618
f 624 619 625
f 625 619 626
f 626 627 625
f 625 627 628
f 625 628 629
f 629 630 625
f 625 630 631
f 625 631 595
f 595 631 632
f 595 632 593
f 633 634 635
f 635 634 636
f 636 637 635
f 635 637 638
f 635 638 620
f 620 638 639
f 620 639 621
f 619 624 620
f 620 624 640
f 620 640 641
f 641 640 642
f 641 642 643
f 643 642 644
f 643 644 645
f 645 644 597
f 645 597 596
f 596 597 137
f 596 137 444
f 116 603 601
f 601 603 646
f 601 646 647
f 647 646 648
f 647 648 649
f 649 648 650
f 649 650 651
f 651 650 607
f 651 607 612
f 612 607 606
f 612 606 610
f 652 644 653
f 653 644 642
f 653 642 654
f 654 642 640
f 654 640 655
f 655 640 624
f 655 624 656
f 657 603 658
f 658 603 600
f 658 600 659
f 659 600 599
f 659 599 660
f 660 599 598
f 660 598 652
f 652 598 597
f 652 597 644
f 624 625 656
f 656 625 595
f 656 595 661
f 661 595 607
f 661 607 662
f 662 607 650
f 662 650 663
f 663 650 648
f 663 648 657
f 657 648 646
f 657 646 603
f 105 394 604
f 102 108 664
f 665 645 666
f 666 645 596
f 666 596 664
f 664 596 103
f 664 103 102
f 667 633 635
f 668 669 670
f 108 109 664
f 664 109 110
f 664 110 671
f 671 110 106
f 669 672 670
f 670 672 673
f 670 673 674
f 673 675 674
f 674 675 667
f 674 667 676
f 676 667 635
f 676 635 677
f 677 635 620
f 677 620 678
f 678 620 641
f 678 641 665
f 665 641 643
f 665 643 645
f 106 105 671
f 671 105 604
f 671 604 679
f 679 604 602
f 679 602 680
f 680 602 601
f 680 601 681
f 617 668 612
f 612 668 670
f 612 670 651
f 651 670 682
f 651 682 649
f 649 682 681
f 649 681 647
f 647 681 601
f 683 684 685
f 685 684 686
f 684 687 686
f 686 687 688
f 686 688 689
f 689 688 690
f 689 690 691
f 685 692 683
f 683 692 693
f 683 693 694
f 695 696 697
f 697 698 695
f 695 698 699
f 695 699 700
f 700 699 701
f 700 701 691
f 691 701 702
f 691 702 689
f 703 704 705
f 706 707 708
f 709 710 711
f 712 713 714
f 715 716 717
f 718 719 720
f 721 722 723
f 724 725 726
f 727 728 729
f 730 731 732
f 732 733 734
f 735 736 737
f 738 739 740
f 741 742 743
f 744 745 746
f 747 748 749
f 675 673 672
f 750 617 616
f 605 751 752
f 593 632 753
f 754 755 756
f 626 619 757
f 637 636 758
f 759 639 638
f 760 623 727
f 727 623 622
f 727 622 728
f 619 618 757
f 757 618 761
f 757 761 762
f 626 757 627
f 630 629 756
f 756 629 628
f 756 628 754
f 712 608 609
f 713 712 763
f 763 712 609
f 763 609 594
f 605 752 606
f 606 752 764
f 606 764 610
f 614 613 765
f 765 613 766
f 765 766 767
f 768 633 769
f 769 633 667
f 667 675 769
f 769 675 672
f 769 672 770
f 770 672 669
f 770 669 668
f 748 747 771
f 771 747 772
f 771 772 773
f 774 775 776
f 776 775 777
f 778 779 775
f 775 779 780
f 775 780 777
f 781 782 783
f 783 782 784
f 783 784 785
f 785 784 786
f 785 786 787
f 787 786 788
f 789 790 791
f 791 790 792
f 791 792 793
f 794 788 795
f 795 788 786
f 795 786 796
f 796 786 784
f 796 784 797
f 797 784 782
f 797 782 798
f 799 800 801
f 802 794 803
f 803 794 795
f 803 795 804
f 804 795 796
f 804 796 805
f 805 796 797
f 805 797 806
f 806 797 798
f 807 808 809
f 809 808 810
f 809 810 811
f 811 810 800
f 811 800 812
f 781 813 814
f 814 813 815
f 814 815 816
f 816 815 817
f 816 817 818
f 818 817 819
f 818 819 820
f 821 822 807
f 807 822 823
f 807 823 808
f 824 825 822
f 822 825 826
f 822 826 823
f 821 827 822
f 822 827 828
f 822 828 824
f 824 828 802
f 824 802 825
f 825 802 803
f 825 803 826
f 826 803 804
f 826 804 823
f 823 804 805
f 823 805 808
f 808 805 806
f 808 806 810
f 810 806 798
f 810 798 800
f 800 798 782
f 800 782 801
f 801 782 781
f 829 830 831
f 831 830 832
f 831 832 833
f 833 832 834
f 743 742 835
f 743 701 699
f 741 743 836
f 836 743 699
f 836 699 698
f 696 834 697
f 697 834 832
f 697 832 698
f 698 832 830
f 698 830 836
f 836 830 829
f 836 829 741
f 812 800 837
f 837 800 799
f 837 799 838
f 838 799 839
f 838 839 840
f 840 839 841
f 840 841 842
f 701 743 702
f 702 743 835
f 702 835 689
f 781 814 801
f 801 814 816
f 801 816 799
f 799 816 818
f 799 818 839
f 839 818 820
f 839 820 841
f 695 827 696
f 696 827 821
f 696 821 834
f 834 821 807
f 834 807 833
f 833 807 809
f 833 809 831
f 831 809 811
f 831 811 829
f 829 811 812
f 829 812 741
f 741 812 837
f 741 837 742
f 742 837 838
f 742 838 835
f 835 838 840
f 835 840 689
f 689 840 842
f 689 842 686
f 843 844 845
f 845 844 846
f 845 846 847
f 847 846 848
f 847 848 849
f 792 848 793
f 793 848 846
f 793 846 850
f 850 846 844
f 850 844 851
f 851 844 843
f 852 853 854
f 854 853 855
f 854 855 856
f 857 738 858
f 858 738 740
f 858 740 859
f 859 740 860
f 859 860 861
f 862 863 864
f 865 866 867
f 867 868 869
f 869 868 870
f 869 870 871
f 872 873 874
f 875 876 865
f 867 869 865
f 865 869 871
f 865 871 875
f 847 866 845
f 845 866 865
f 845 865 877
f 877 865 876
f 877 876 878
f 878 876 879
f 879 876 880
f 879 880 873
f 878 879 881
f 881 879 873
f 881 873 882
f 883 877 884
f 884 877 878
f 884 878 885
f 883 886 887
f 887 886 884
f 887 884 885
f 884 886 883
f 888 883 889
f 873 872 882
f 882 872 890
f 882 890 891
f 891 890 683
f 891 683 694
f 684 683 892
f 892 683 890
f 892 890 893
f 893 890 872
f 893 872 894
f 894 872 874
f 894 874 862
f 895 896 897
f 897 896 898
f 897 898 899
f 899 898 900
f 899 900 901
f 901 900 902
f 901 902 903
f 903 902 904
f 903 904 905
f 860 906 861
f 861 906 907
f 861 907 908
f 908 907 909
f 908 909 910
f 910 909 911
f 910 911 912
f 912 911 913
f 912 913 914
f 914 913 734
f 732 731 733
f 733 731 915
f 733 915 916
f 916 915 687
f 916 687 684
f 736 905 737
f 737 905 904
f 737 904 917
f 917 904 902
f 917 902 918
f 918 902 900
f 918 900 919
f 919 900 898
f 919 898 920
f 920 898 896
f 920 896 921
f 734 733 914
f 914 733 916
f 914 916 912
f 912 916 684
f 912 684 910
f 910 684 892
f 910 892 908
f 908 892 893
f 908 893 861
f 861 893 894
f 861 894 859
f 859 894 862
f 859 862 858
f 858 862 864
f 858 864 857
f 746 922 744
f 744 922 923
f 744 923 924
f 924 923 925
f 924 925 926
f 926 925 927
f 926 927 928
f 928 927 929
f 928 929 930
f 930 929 931
f 736 931 905
f 905 931 929
f 905 929 903
f 903 929 927
f 903 927 901
f 901 927 925
f 901 925 899
f 899 925 923
f 899 923 897
f 897 923 922
f 897 922 895
f 895 922 746
f 895 746 932
f 932 746 745
f 932 745 933
f 933 745 934
f 933 934 935
f 628 627 754
f 754 627 757
f 754 757 755
f 755 757 762
f 755 762 936
f 936 762 761
f 936 761 937
f 937 761 938
f 939 940 941
f 941 940 942
f 940 943 937
f 940 937 942
f 622 621 728
f 728 621 944
f 728 944 729
f 729 944 945
f 729 945 946
f 760 727 947
f 947 727 729
f 947 729 948
f 948 729 946
f 948 946 949
f 950 951 952
f 953 954 950
f 950 954 955
f 950 955 956
f 950 952 953
f 953 952 957
f 953 957 958
f 959 957 952
f 952 951 960
f 952 960 959
f 961 962 963
f 963 962 958
f 958 962 964
f 958 964 953
f 953 964 965
f 953 965 954
f 958 957 959
f 958 959 966
f 966 959 967
f 951 968 960
f 959 960 969
f 959 969 967
f 940 939 970
f 940 970 943
f 968 939 941
f 968 941 960
f 960 941 942
f 960 942 969
f 969 942 971
f 969 971 967
f 972 973 974
f 974 973 975
f 975 973 976
f 977 978 979
f 979 978 980
f 621 639 944
f 944 639 759
f 944 759 945
f 945 759 981
f 945 981 946
f 946 981 982
f 946 982 949
f 949 982 983
f 984 974 985
f 985 974 975
f 985 975 986
f 987 988 989
f 990 987 991
f 991 987 989
f 991 989 992
f 992 989 988
f 992 988 993
f 991 739 990
f 990 739 738
f 990 738 994
f 876 875 880
f 880 875 871
f 880 871 873
f 873 871 870
f 873 870 874
f 874 870 868
f 874 868 862
f 862 868 867
f 862 867 863
f 863 867 995
f 863 995 996
f 863 996 864
f 864 996 994
f 864 994 857
f 857 994 738
f 739 991 740
f 740 991 992
f 740 992 860
f 860 992 993
f 860 993 906
f 997 998 999
f 999 998 1000
f 999 1000 1001
f 1001 1000 1002
f 1001 1002 1003
f 1003 1002 1004
f 1003 1004 1005
f 921 1006 920
f 920 1006 1007
f 920 1007 919
f 919 1007 1008
f 919 1008 918
f 918 1008 1009
f 918 1009 917
f 917 1009 997
f 917 997 737
f 737 997 999
f 737 999 735
f 735 999 1001
f 735 1001 1010
f 1010 1001 1003
f 1010 1003 1011
f 1011 1003 1005
f 1011 1005 967
f 967 1005 1012
f 967 1012 966
f 966 1012 961
f 966 961 958
f 958 961 963
f 968 951 950
f 968 950 939
f 939 950 956
f 939 956 970
f 768 769 726
f 726 769 1013
f 726 1013 724
f 750 1014 1015
f 1015 1014 1016
f 1015 1016 1017
f 725 1018 726
f 726 1018 1019
f 726 1019 768
f 768 1019 1020
f 768 1020 633
f 633 1020 758
f 633 758 634
f 634 758 636
f 638 637 759
f 759 637 758
f 759 758 981
f 981 758 1020
f 981 1020 982
f 982 1020 1019
f 982 1019 983
f 983 1019 1018
f 983 1018 1021
f 1021 1018 725
f 1021 725 1022
f 1022 725 724
f 1022 724 1023
f 1023 724 1024
f 1023 1024 1025
f 1025 1024 1026
f 1025 1026 1027
f 1027 1026 1028
f 1027 1028 1029
f 1029 1028 1030
f 1029 1030 1031
f 1031 1030 1032
f 1031 1032 1033
f 1033 1032 776
f 1033 776 1034
f 1034 776 777
f 1034 777 1035
f 1035 777 780
f 1036 1037 1038
f 1038 1037 1039
f 1038 1039 1040
f 1040 1039 1041
f 1040 1041 1042
f 1042 1041 1043
f 1042 1043 1044
f 1044 1043 1045
f 1044 1045 1046
f 1046 1045 1047
f 1017 1016 1048
f 1048 1016 1049
f 1048 1049 1050
f 615 614 1051
f 1051 614 765
f 1051 765 1052
f 1052 765 767
f 1052 767 1053
f 611 610 1054
f 1054 610 764
f 1054 764 717
f 722 721 1055
f 1056 718 1057
f 1057 718 720
f 1057 720 721
f 1058 1059 1060
f 1060 1059 1061
f 1060 1061 1062
f 1062 1061 1063
f 1064 720 710
f 710 720 719
f 710 719 711
f 1065 1066 709
f 709 1066 1067
f 709 1067 710
f 710 1067 1068
f 710 1068 1064
f 721 720 1055
f 1055 720 1064
f 1055 1064 750
f 750 1064 1068
f 750 1068 1014
f 1014 1068 1067
f 1014 1067 1016
f 1016 1067 1066
f 1016 1066 1049
f 1056 1069 718
f 718 1069 1070
f 718 1070 719
f 719 1070 1071
f 719 1071 711
f 711 1071 1072
f 711 1072 709
f 709 1072 1073
f 709 1073 1065
f 1065 1073 1074
f 1075 1076 1077
f 1077 1076 1078
f 723 1063 721
f 721 1063 1061
f 721 1061 1057
f 1057 1061 1059
f 1057 1059 1056
f 1056 1059 1058
f 1056 1058 1069
f 1069 1058 1079
f 1069 1079 1070
f 1070 1079 1080
f 1070 1080 1071
f 1071 1080 1081
f 1071 1081 1072
f 1072 1081 1082
f 1072 1082 1073
f 1083 1084 1085
f 750 616 1055
f 1055 616 615
f 1055 615 722
f 722 615 1051
f 722 1051 723
f 723 1051 1052
f 723 1052 1063
f 1063 1052 1053
f 1063 1053 1062
f 1062 1053 1086
f 1062 1086 1060
f 1060 1086 1087
f 1060 1087 1058
f 1058 1087 1088
f 1058 1088 1079
f 1079 1088 1089
f 1079 1089 1080
f 1080 1089 1090
f 1080 1090 1081
f 1081 1090 1091
f 1081 1091 1082
f 716 715 1092
f 1092 715 1093
f 1092 1093 1094
f 1093 1095 1094
f 1094 1095 1096
f 1094 1096 1097
f 1097 1096 1098
f 1097 1098 1085
f 1085 1098 1099
f 1085 1099 1083
f 717 1100 715
f 715 1100 1101
f 715 1101 1093
f 1093 1101 1102
f 1093 1102 1095
f 1095 1102 1103
f 1104 1105 756
f 756 1105 631
f 756 631 630
f 1106 1107 1104
f 1104 1107 1108
f 1104 1108 1105
f 1105 1108 753
f 1105 753 631
f 631 753 632
f 1004 977 1005
f 1005 977 979
f 1005 979 1012
f 1012 979 980
f 1012 980 961
f 961 980 1109
f 961 1109 962
f 962 1109 1110
f 962 1110 964
f 964 1110 1111
f 964 1111 965
f 965 1111 1112
f 965 1112 954
f 954 1112 1113
f 954 1113 955
f 1112 1106 1113
f 1113 1106 1104
f 1113 1104 955
f 955 1104 756
f 955 756 956
f 956 756 755
f 956 755 970
f 970 755 936
f 970 936 943
f 943 936 937
f 942 937 938
f 942 938 971
f 971 938 1114
f 971 1114 967
f 967 1114 1115
f 967 1115 1011
f 1011 1115 1116
f 1011 1116 1010
f 1010 1116 1117
f 1010 1117 735
f 735 1117 1118
f 735 1118 736
f 736 1118 1047
f 736 1047 931
f 931 1047 1045
f 931 1045 930
f 930 1045 1043
f 930 1043 928
f 928 1043 1041
f 928 1041 926
f 926 1041 1039
f 926 1039 924
f 924 1039 1037
f 924 1037 744
f 744 1037 1036
f 744 1036 745
f 745 1036 1119
f 745 1119 934
f 605 608 751
f 751 608 712
f 751 712 1120
f 1120 712 714
f 1120 714 1121
f 1121 714 1122
f 1123 1124 1125
f 1125 1124 1126
f 1125 1126 1127
f 1128 1078 1129
f 1129 1078 1076
f 1129 1076 1130
f 1130 1076 1075
f 1130 1075 1131
f 1132 706 1133
f 1133 706 708
f 1133 708 1134
f 1134 708 1135
f 1134 1135 1136
f 1136 1135 1137
f 1136 1138 1134
f 1134 1138 1139
f 1134 1139 1133
f 1133 1139 1140
f 1133 1140 1132
f 1141 1123 1128
f 1128 1123 1125
f 1128 1125 1078
f 1078 1125 1127
f 1078 1127 1077
f 1142 1143 1144
f 707 1084 708
f 708 1084 1083
f 708 1083 1135
f 1135 1083 1099
f 1135 1099 1137
f 1137 1099 1098
f 1137 1098 1145
f 1145 1098 1096
f 1145 1096 1146
f 1146 1096 1095
f 1146 1095 1147
f 1147 1095 1103
f 1147 1103 1148
f 1148 1149 1147
f 1147 1149 1150
f 1147 1150 1146
f 1146 1150 1151
f 1146 1151 1145
f 1145 1151 1152
f 1145 1152 1137
f 1137 1152 1142
f 1137 1142 1136
f 1136 1142 1144
f 1136 1144 1138
f 1153 1154 1155
f 1155 1154 1156
f 1155 1156 1157
f 1157 1156 1158
f 1157 1158 1159
f 1159 1158 1160
f 1159 1160 1161
f 1161 1160 1162
f 1161 1162 1163
f 1163 1162 1164
f 1163 1164 1141
f 1141 1164 1165
f 1141 1165 1123
f 1123 1165 1166
f 1123 1166 1124
f 1124 1166 1167
f 1124 1167 1126
f 774 776 1168
f 1168 776 1032
f 1168 1032 1169
f 1169 1032 1030
f 1169 1030 1170
f 1170 1030 1028
f 1170 1028 1171
f 1171 1028 1026
f 1171 1026 1172
f 1172 1026 1024
f 1172 1024 1050
f 1050 1024 724
f 1050 724 1048
f 1048 724 1013
f 1048 1013 1017
f 1017 1013 769
f 1017 769 1015
f 1015 769 770
f 1015 770 750
f 750 770 668
f 750 668 617
f 1154 778 1156
f 1156 778 775
f 1156 775 1158
f 1158 775 774
f 1158 774 1160
f 1160 774 1168
f 1160 1168 1162
f 1162 1168 1169
f 1162 1169 1164
f 1164 1169 1170
f 1164 1170 1165
f 1165 1170 1171
f 1165 1171 1166
f 1166 1171 1172
f 1166 1172 1167
f 1167 1172 1050
f 1167 1050 1126
f 1126 1050 1049
f 1126 1049 1127
f 1127 1049 1066
f 1127 1066 1077
f 1077 1066 1065
f 1077 1065 1075
f 1075 1065 1074
f 1075 1074 1131
f 705 704 1173
f 1173 704 1174
f 1173 1174 1175
f 1175 1174 1176
f 1175 1176 1177
f 1177 1176 1178
f 1177 1178 1179
f 1179 1178 1180
f 1179 1180 1181
f 1181 1180 1182
f 1181 1182 813
f 813 1182 1183
f 813 1183 815
f 815 1183 1184
f 815 1184 817
f 817 1184 1185
f 817 1185 819
f 1149 1186 1150
f 1150 1186 1187
f 1150 1187 1151
f 1151 1187 1188
f 1151 1188 1152
f 1152 1188 1189
f 1152 1189 1142
f 1142 1189 1190
f 1142 1190 1143
f 1191 1122 1192
f 1192 1122 1193
f 1192 1193 1194
f 986 1195 1196
f 986 1196 985
f 985 1196 1194
f 985 1194 984
f 984 1194 1193
f 984 1193 1197
f 1197 1193 1122
f 1194 849 1192
f 1192 849 848
f 1192 848 1191
f 1191 848 792
f 1191 792 749
f 749 792 790
f 749 790 747
f 747 790 789
f 747 789 772
f 717 764 1100
f 1100 764 752
f 1100 752 1101
f 1101 752 751
f 1101 751 1102
f 1102 751 1120
f 1102 1120 1103
f 1103 1120 1121
f 1103 1121 1148
f 1148 1121 1122
f 1148 1122 1149
f 1149 1122 1191
f 1149 1191 1186
f 1186 1191 749
f 1186 749 1187
f 1187 749 748
f 1187 748 1188
f 1188 748 771
f 1188 771 1189
f 1189 771 773
f 1189 773 1190
f 695 700 730
f 730 700 691
f 730 691 731
f 731 691 690
f 731 690 915
f 915 690 688
f 915 688 687
f 988 1195 977
f 988 977 993
f 993 977 1004
f 993 1004 906
f 906 1004 1002
f 906 1002 907
f 907 1002 1000
f 907 1000 909
f 909 1000 998
f 909 998 911
f 911 998 997
f 911 997 913
f 913 997 1009
f 913 1009 734
f 734 1009 1008
f 734 1008 732
f 732 1008 1007
f 732 1007 730
f 730 1007 1006
f 730 1006 695
f 695 1006 921
f 695 921 827
f 827 921 896
f 827 896 828
f 828 896 895
f 828 895 802
f 802 895 932
f 802 932 794
f 794 932 933
f 794 933 788
f 788 933 935
f 788 935 787
f 883 889 1198
f 883 1198 877
f 877 1198 852
f 877 852 845
f 845 852 854
f 845 854 843
f 843 854 856
f 843 856 851
f 703 1139 704
f 704 1139 1138
f 704 1138 1174
f 1174 1138 1144
f 1174 1144 1176
f 1176 1144 1143
f 1176 1143 1178
f 1178 1143 1190
f 1178 1190 1180
f 1180 1190 773
f 1180 773 1182
f 1182 773 772
f 1182 772 1183
f 1183 772 789
f 1183 789 1184
f 1184 789 791
f 1184 791 1185
f 1185 791 793
f 1185 793 819
f 819 793 850
f 819 850 820
f 820 850 851
f 820 851 841
f 841 851 856
f 841 856 842
f 842 856 855
f 842 855 686
f 686 855 853
f 686 853 685
f 685 853 852
f 685 852 692
f 692 852 1198
f 618 623 761
f 761 623 760
f 761 760 938
f 938 760 947
f 938 947 1114
f 1114 947 948
f 1114 948 1115
f 1115 948 949
f 1115 949 1116
f 1116 949 983
f 1116 983 1117
f 1117 983 1021
f 1117 1021 1118
f 1118 1021 1022
f 1118 1022 1047
f 1047 1022 1023
f 1047 1023 1046
f 1046 1023 1025
f 1046 1025 1044
f 1044 1025 1027
f 1044 1027 1042
f 1042 1027 1029
f 1042 1029 1040
f 1040 1029 1031
f 1040 1031 1038
f 1038 1031 1033
f 1038 1033 1036
f 1036 1033 1034
f 1036 1034 1119
f 1119 1034 1035
f 1119 1035 934
f 934 1035 780
f 934 780 935
f 935 780 779
f 935 779 787
f 787 779 778
f 787 778 785
f 785 778 1154
f 785 1154 783
f 783 1154 1153
f 783 1153 781
f 781 1153 1155
f 781 1155 813
f 813 1155 1157
f 813 1157 1181
f 1181 1157 1159
f 1181 1159 1179
f 1179 1159 1161
f 1179 1161 1177
f 1177 1161 1163
f 1177 1163 1175
f 1175 1163 1141
f 1175 1141 1173
f 1173 1141 1128
f 1173 1128 705
f 705 1128 1129
f 705 1129 703
f 703 1129 1130
f 703 1130 1139
f 1139 1130 1131
f 1139 1131 1140
f 1140 1131 1074
f 1140 1074 1132
f 1132 1074 1073
f 1132 1073 706
f 706 1073 1082
f 706 1082 707
f 707 1082 1091
f 707 1091 1084
f 1084 1091 1090
f 1084 1090 1085
f 1085 1090 1089
f 1085 1089 1097
f 1097 1089 1088
f 1097 1088 1094
f 1094 1088 1087
f 1094 1087 1092
f 1092 1087 1086
f 1092 1086 716
f 716 1086 1053
f 716 1053 717
f 717 1053 767
f 717 767 1054
f 1054 767 766
f 1054 766 611
f 611 766 613
f 594 593 763
f 763 593 753
f 763 753 713
f 713 753 1108
f 713 1108 714
f 714 1108 1107
f 714 1107 1122
f 1122 1107 1106
f 1122 1106 1197
f 1197 1106 1112
f 1197 1112 984
f 984 1112 1111
f 984 1111 974
f 974 1111 1110
f 974 1110 972
f 972 1110 1109
f 972 1109 980
f 972 980 973
f 973 980 978
f 973 978 976
f 976 978 977
f 976 977 975
f 975 977 1195
f 975 1195 986
f 1195 988 1196
f 1196 988 987
f 1196 987 1194
f 1194 987 990
f 1194 990 849
f 849 990 994
f 849 994 847
f 847 994 996
f 847 996 866
f 866 996 995
f 866 995 867
f 885 878 881
f 885 881 887
f 887 881 882
f 887 882 883
f 883 882 891
f 883 891 889
f 889 891 694
f 889 694 1198
f 1198 694 693
f 1198 693 692
f 1199 1200 14
f 14 1200 1201
f 14 1201 16
f 16 1201 1202
f 16 1202 18
f 18 1202 1203
f 18 1203 20
f 20 1203 1204
f 20 1204 22
f 22 1204 1205
f 22 1205 24
f 24 1205 1206
f 24 1206 2
f 2 1206 1207
f 2 1207 4
f 4 1207 1208
f 4 1208 6
f 6 1208 1209
f 6 1209 8
f 8 1209 1210
f 8 1210 10
f 10 1210 1211
f 10 1211 12
f 12 1211 1199
f 12 1199 14
f 1207 671 1208
f 1208 671 679
f 1208 679 1209
f 1209 679 680
f 1209 680 1210
f 1210 680 681
f 1210 681 1211
f 1211 681 682
f 1211 682 1199
f 1199 682 670
f 1199 670 1200
f 1200 670 674
f 1200 674 1201
f 1201 674 676
f 1201 676 1202
f 1202 676 677
f 1202 677 1203
f 1203 677 678
f 1203 678 1204
f 1204 678 665
f 1204 665 1205
f 1205 665 666
f 1205 666 1206
f 1206 666 664
f 1206 664 1207
f 1207 664 671
f 9 1212 7
f 7 1212 1213
f 7 1213 5
f 5 1213 1214
f 5 1214 3
f 3 1214 1215
f 3 1215 1
f 1 1215 1216
f 1 1216 23
f 23 1216 1217
f 23 1217 21
f 21 1217 1218
f 21 1218 19
f 19 1218 1219
f 19 1219 17
f 17 1219 1220
f 17 1220 15
f 15 1220 1221
f 15 1221 13
f 13 1221 1222
f 13 1222 11
f 11 1222 1223
f 11 1223 9
f 9 1223 1212
f 1222 656 1223
f 1223 656 661
f 1223 661 1212
f 1212 661 662
f 1212 662 1213
f 1213 662 663
f 1213 663 1214
f 1214 663 657
f 1214 657 1215
f 1215 657 658
f 1215 658 1216
f 1216 658 659
f 1216 659 1217
f 1217 659 660
f 1217 660 1218
f 1218 660 652
f 1218 652 1219
f 1219 652 653
f 1219 653 1220
f 1220 653 654
f 1220 654 1221
f 1221 654 655
f 1221 655 1222
f 1222 655 656

